<svg width="40" height="40" viewBox="0 0 40 40" fill="none" xmlns="http://www.w3.org/2000/svg">
<path d="M34.8387 9.94345V6.67957C34.8387 6.32328 34.5498 6.03441 34.1935 6.03441H32.9032V2.80861H34.8387C35.0098 2.80861 35.1739 2.74054 35.2948 2.61957L36.5852 1.32925L35.6729 0.416992L34.5716 1.51828H24.5161C24.345 1.51828 24.181 1.58635 24.06 1.70731L22.7697 2.99764L23.6819 3.9099L24.7832 2.80861H29.0323V6.03441H27.7419C27.3856 6.03441 27.0968 6.32328 27.0968 6.67957V9.94345C24.1602 10.2747 21.9395 12.7566 21.9355 15.7118V18.9376H18.9961C19.2283 18.5471 19.3522 18.1017 19.3548 17.6473C19.3548 16.2221 18.1994 15.0667 16.7742 15.0667H7.74194C7.57081 15.0667 7.40677 15.1347 7.28581 15.2557L4.24903 18.2925H0.645161C0.288871 18.2925 0 18.5813 0 18.9376V31.8409C0 32.1972 0.288871 32.486 0.645161 32.486H4.24903L7.28581 35.5228C7.40677 35.6438 7.57081 35.7118 7.74194 35.7118H21.9355V38.9376C21.9355 39.2939 22.2244 39.5828 22.5806 39.5828H39.3548C39.7111 39.5828 40 39.2939 40 38.9376V15.7118C39.996 12.7566 37.7753 10.2747 34.8387 9.94345ZM3.87097 31.1957H1.29032V19.5828H3.87097V31.1957ZM30.3226 2.80861H31.6129V6.03441H30.3226V2.80861ZM28.3871 7.32474H33.5484V9.90538H28.3871V7.32474ZM8.00903 34.4215L5.16129 31.5738V19.2047L8.00903 16.357H16.7742C17.4869 16.357 18.0645 16.9347 18.0645 17.6473C18.0645 18.36 17.4869 18.9376 16.7742 18.9376H14.1935V20.228H26.4516C27.1643 20.228 27.7419 20.8056 27.7419 21.5183C27.7419 22.2309 27.1643 22.8086 26.4516 22.8086H18.7097V24.0989H29.6774C30.3901 24.0989 30.9677 24.6766 30.9677 25.3893C30.9677 26.1019 30.3901 26.6796 29.6774 26.6796H18.7097V27.9699H28.3871C29.0998 27.9699 29.6774 28.5476 29.6774 29.2602C29.6774 29.9729 29.0998 30.5505 28.3871 30.5505H18.7097V31.8409H24.5161C25.2288 31.8409 25.8064 32.4185 25.8064 33.1312C25.8064 33.8438 25.2288 34.4215 24.5161 34.4215H8.00903ZM38.7097 38.2925H23.2258V35.7118H24.5161C25.9414 35.7118 27.0968 34.5564 27.0968 33.1312C27.0941 32.6768 26.9702 32.2314 26.7381 31.8409H28.3871C29.8123 31.8403 30.9673 30.6844 30.9667 29.2592C30.9664 28.7447 30.8125 28.2421 30.5245 27.8157C31.8681 27.3512 32.5809 25.8854 32.1164 24.5417C31.757 23.5023 30.7772 22.806 29.6774 22.8086H28.6735C28.9057 22.418 29.0296 21.9726 29.0323 21.5183C29.0323 20.093 27.8769 18.9376 26.4516 18.9376H23.2258V15.7118C23.2286 13.2188 25.249 11.1985 27.7419 11.1957H34.1935C36.6865 11.1985 38.7069 13.2188 38.7097 15.7118V38.2925Z" fill="white"/>
<path d="M34.1934 12.4858V13.7762C35.2623 13.7762 36.1288 14.6427 36.1288 15.7116V20.8729H37.4192V15.7116C37.4171 13.931 35.974 12.4879 34.1934 12.4858Z" fill="white"/>
<path d="M29.6777 33.1311C28.6087 33.1311 27.7422 33.9976 27.7422 35.0666C27.7422 36.1355 28.6087 37.0021 29.6777 37.0021C30.7466 37.0021 31.6132 36.1355 31.6132 35.0666C31.6132 33.9976 30.7466 33.1311 29.6777 33.1311ZM29.6777 35.7117C29.3214 35.7117 29.0325 35.4229 29.0325 35.0666C29.0325 34.7103 29.3214 34.4214 29.6777 34.4214C30.034 34.4214 30.3228 34.7103 30.3228 35.0666C30.3228 35.4229 30.034 35.7117 29.6777 35.7117Z" fill="white"/>
<path d="M34.8385 29.26C33.4132 29.26 32.2578 30.4154 32.2578 31.8407C32.2578 33.2659 33.4132 34.4213 34.8385 34.4213C36.2637 34.4213 37.4191 33.2659 37.4191 31.8407C37.4191 30.4154 36.2637 29.26 34.8385 29.26ZM34.8385 33.131C34.1258 33.131 33.5481 32.5533 33.5481 31.8407C33.5481 31.128 34.1258 30.5503 34.8385 30.5503C35.5511 30.5503 36.1288 31.128 36.1288 31.8407C36.1288 32.5533 35.5511 33.131 34.8385 33.131Z" fill="white"/>
<path d="M8.91192 12.2201C9.56434 12.8084 10.4122 13.133 11.2907 13.1311C12.1712 13.1336 13.0203 12.8042 13.6688 12.2085C14.3935 13.198 15.5481 13.7808 16.7746 13.7763C18.9082 13.7794 20.6404 12.0524 20.6435 9.91877C20.6454 8.67208 20.0456 7.50119 19.0326 6.77433C19.2443 6.34321 19.3547 5.86942 19.3552 5.38917C19.3531 3.60853 17.9101 2.16546 16.1294 2.16337C15.6491 2.16353 15.1752 2.27385 14.7443 2.48595C13.5003 0.75248 11.0867 0.355625 9.35321 1.59958C8.34031 2.32643 7.74047 3.49732 7.74232 4.74401C7.74281 5.65111 8.06571 6.52845 8.65329 7.2195C7.34386 8.67175 7.45958 10.9106 8.91192 12.2201ZM10.1151 6.85933C10.0823 6.81393 10.0438 6.77296 10.0004 6.73756C8.89466 5.84675 8.72039 4.22829 9.6112 3.12256C10.502 2.01683 12.1205 1.84256 13.2262 2.73337C13.5338 2.98119 13.7801 3.29659 13.9462 3.65498C14.0976 3.97756 14.4818 4.11635 14.8043 3.9649C14.8503 3.94329 14.8936 3.91635 14.9333 3.88466C15.271 3.60845 15.6931 3.45635 16.1294 3.45369C17.1984 3.45369 18.0649 4.32022 18.0649 5.38917C18.0626 5.82667 17.9106 6.25022 17.6339 6.58917C17.4116 6.86764 17.4571 7.27353 17.7355 7.49587C17.7749 7.5274 17.8179 7.55409 17.8636 7.57563C19.1531 8.17522 19.7123 9.70659 19.1127 10.996C18.5131 12.2855 16.9818 12.8447 15.6923 12.2451C15.0868 11.9635 14.6143 11.4577 14.3747 10.8343C14.2856 10.6047 14.0736 10.4457 13.8282 10.4247C13.8099 10.4237 13.7917 10.4237 13.7734 10.4247C13.5466 10.4246 13.3364 10.5437 13.2198 10.7382C12.8177 11.4217 12.0838 11.8412 11.2908 11.8408C10.0437 11.8408 9.03273 10.8298 9.03273 9.58272C9.0316 8.85925 9.38095 8.17998 9.97015 7.76014C10.2589 7.55143 10.3239 7.14821 10.1151 6.85933Z" fill="white"/>
<path d="M4.51556 4.74401C5.58451 4.74401 6.45105 3.87748 6.45105 2.80853C6.45105 1.73958 5.58451 0.873047 4.51556 0.873047C3.44661 0.873047 2.58008 1.73958 2.58008 2.80853C2.58008 3.87748 3.44661 4.74401 4.51556 4.74401ZM4.51556 2.16337C4.87185 2.16337 5.16072 2.45224 5.16072 2.80853C5.16072 3.16482 4.87185 3.45369 4.51556 3.45369C4.15927 3.45369 3.8704 3.16482 3.8704 2.80853C3.8704 2.45224 4.15927 2.16337 4.51556 2.16337Z" fill="white"/>
</svg>
