<svg width="40" height="40" viewBox="0 0 40 40" fill="none" xmlns="http://www.w3.org/2000/svg">
<path d="M37.6562 4.21875H34.9087V2.96875C34.9087 1.3318 33.577 0 31.94 0C30.303 0 28.9713 1.3318 28.9713 2.96875V4.21875H22.9688V2.96875C22.9688 1.3318 21.637 0 20 0C18.363 0 17.0312 1.3318 17.0312 2.96875V4.21875H11.0287V2.96875C11.0287 1.3318 9.69695 0 8.06 0C6.42305 0 5.09125 1.3318 5.09125 2.96875V4.21875H2.34375C1.05141 4.21875 0 5.27016 0 6.5625V37.6562C0 38.9486 1.05141 40 2.34375 40H37.6562C38.9486 40 40 38.9486 40 37.6562V6.5625C40 5.27016 38.9486 4.21875 37.6562 4.21875ZM30.5338 2.96875C30.5338 2.19336 31.1646 1.5625 31.94 1.5625C32.7154 1.5625 33.3462 2.19336 33.3462 2.96875V4.21875H30.5338V2.96875ZM18.5938 2.96875C18.5938 2.19336 19.2246 1.5625 20 1.5625C20.7754 1.5625 21.4062 2.19336 21.4062 2.96875V4.21875H18.5938V2.96875ZM6.65375 2.96875C6.65375 2.19336 7.28461 1.5625 8.06 1.5625C8.83539 1.5625 9.46625 2.19336 9.46625 2.96875V4.21875H6.65375V2.96875ZM38.4375 37.6562C38.4375 38.087 38.087 38.4375 37.6562 38.4375H2.34375C1.91297 38.4375 1.5625 38.087 1.5625 37.6562V6.5625C1.5625 6.13172 1.91297 5.78125 2.34375 5.78125H5.09125V6.25C5.09125 7.88695 6.42305 9.21875 8.06 9.21875H8.24219C8.67359 9.21875 9.02344 8.86898 9.02344 8.4375C9.02344 8.00602 8.67359 7.65625 8.24219 7.65625H8.06C7.28461 7.65625 6.65375 7.02539 6.65375 6.25V5.78125H17.0312V6.25C17.0312 7.88695 18.363 9.21875 20 9.21875H20.1822C20.6136 9.21875 20.9634 8.86898 20.9634 8.4375C20.9634 8.00602 20.6136 7.65625 20.1822 7.65625H20C19.2246 7.65625 18.5938 7.02539 18.5938 6.25V5.78125H28.9713V6.25C28.9713 7.88695 30.303 9.21875 31.94 9.21875H32.1222C32.5536 9.21875 32.9034 8.86898 32.9034 8.4375C32.9034 8.00602 32.5536 7.65625 32.1222 7.65625H31.94C31.1646 7.65625 30.5338 7.02539 30.5338 6.25V5.78125H37.6562C38.087 5.78125 38.4375 6.13172 38.4375 6.5625V37.6562Z" fill="white"/>
<path d="M26.2705 19.5275C26.1272 19.3015 25.8782 19.1646 25.6107 19.1646H20.3301C19.8987 19.1646 19.5488 19.5143 19.5488 19.9458C19.5488 20.3773 19.8987 20.7271 20.3301 20.7271H24.3784L20.8734 28.1583C20.6895 28.5485 20.8566 29.0141 21.2468 29.1981C21.3545 29.2489 21.4679 29.273 21.5795 29.273C21.8725 29.273 22.1534 29.1074 22.2867 28.8248L26.3173 20.279C26.4315 20.037 26.4137 19.7535 26.2705 19.5275Z" fill="white"/>
<path d="M16.7973 29.2729C17.2287 29.2729 17.5785 28.9231 17.5785 28.4917V19.9459C17.5785 19.6427 17.403 19.3668 17.1284 19.2383C16.8537 19.1096 16.5295 19.1517 16.2968 19.3459L14.1715 21.1188C13.8401 21.3952 13.7955 21.8879 14.072 22.2192C14.3484 22.5506 14.8412 22.5951 15.1723 22.3187L16.016 21.6149V28.4916C16.016 28.9231 16.3659 29.2729 16.7973 29.2729Z" fill="white"/>
<path d="M35.4688 12.1875H13.9062C13.4748 12.1875 13.125 12.5373 13.125 12.9688C13.125 13.4002 13.4748 13.75 13.9062 13.75H34.6875V30.9375H28.5091C28.0777 30.9375 27.7278 31.2873 27.7278 31.7188C27.7278 32.1502 28.0777 32.5 28.5091 32.5H34.6875V34.6875H5.3125V13.75H7.65625C8.08766 13.75 8.4375 13.4002 8.4375 12.9688C8.4375 12.5373 8.08766 12.1875 7.65625 12.1875H4.53125C4.09984 12.1875 3.75 12.5373 3.75 12.9688V35.4688C3.75 35.9002 4.09984 36.25 4.53125 36.25H35.4688C35.9002 36.25 36.25 35.9002 36.25 35.4688V12.9688C36.25 12.5373 35.9002 12.1875 35.4688 12.1875Z" fill="white"/>
<path d="M24.8324 31.1664C24.6863 31.3117 24.6035 31.5133 24.6035 31.7188C24.6035 31.9242 24.6863 32.1258 24.8324 32.2711C24.977 32.4164 25.1785 32.5 25.3848 32.5C25.5902 32.5 25.791 32.4164 25.9371 32.2711C26.0823 32.1258 26.1652 31.9242 26.1652 31.7188C26.1652 31.5133 26.0823 31.3117 25.9371 31.1664C25.791 31.0211 25.5902 30.9375 25.3848 30.9375C25.1784 30.9375 24.977 31.0211 24.8324 31.1664Z" fill="white"/>
<path d="M10.7812 13.75C10.9867 13.75 11.1883 13.6664 11.3335 13.5211C11.4788 13.3758 11.5625 13.1742 11.5625 12.9688C11.5625 12.7633 11.4789 12.5617 11.3335 12.4164C11.1883 12.2711 10.9874 12.1875 10.7812 12.1875C10.5758 12.1875 10.3742 12.2711 10.2289 12.4164C10.0836 12.5617 10 12.7633 10 12.9688C10 13.1742 10.0835 13.3758 10.2289 13.5211C10.3743 13.6664 10.5758 13.75 10.7812 13.75Z" fill="white"/>
</svg>
