<svg width="40" height="40" viewBox="0 0 40 40" fill="none" xmlns="http://www.w3.org/2000/svg">
<path d="M37.6562 15.9375H35V15.4883C35 14.4955 34.3409 13.6539 33.4375 13.3775V12.5586C33.4375 11.3201 32.4299 10.3125 31.1914 10.3125H30.7812V2.34375C30.7812 1.05141 29.7298 0 28.4375 0H2.34375C1.05141 0 0 1.05141 0 2.34375V37.6562C0 38.9486 1.05141 40 2.34375 40H8.90625H30H37.6562C38.9486 40 40 38.9486 40 37.6562V18.2812C40 16.9889 38.9486 15.9375 37.6562 15.9375ZM38.4375 18.2812V19.6094H32.4674C32.036 19.6094 31.6862 19.9591 31.6862 20.3906C31.6862 20.8221 32.036 21.1719 32.4674 21.1719H38.4375V25.2344H26.875V24.8438C26.875 24.4123 26.5252 24.0625 26.0938 24.0625H20.4688C20.0373 24.0625 19.6875 24.4123 19.6875 24.8438V25.2344H8.125V18.2812C8.125 17.8505 8.47547 17.5 8.90625 17.5H37.6562C38.087 17.5 38.4375 17.8505 38.4375 18.2812ZM21.25 25.625H25.3125V28.2812C25.3125 29.4013 24.4013 30.3125 23.2812 30.3125C22.1612 30.3125 21.25 29.4013 21.25 28.2812V25.625ZM13.6914 14.8438H13.9648C14.3202 14.8438 14.6094 15.1329 14.6094 15.4883V15.9375H13.0469V15.4883C13.0469 15.1329 13.336 14.8438 13.6914 14.8438ZM31.875 15.9375V15.4883C31.875 15.1329 32.1641 14.8438 32.5195 14.8438H32.793C33.1484 14.8438 33.4375 15.1329 33.4375 15.4883V15.9375H31.875ZM31.875 12.5586V13.3775C30.9716 13.6539 30.3125 14.4955 30.3125 15.4883V15.9375H16.1719V15.4883C16.1719 14.4955 15.5128 13.6539 14.6094 13.3775V12.5586C14.6094 12.1816 14.916 11.875 15.293 11.875H31.1914C31.5684 11.875 31.875 12.1816 31.875 12.5586ZM1.5625 37.6562V2.34375C1.5625 1.91297 1.91297 1.5625 2.34375 1.5625H28.4375C28.8683 1.5625 29.2188 1.91297 29.2188 2.34375V10.3125H15.293C14.0545 10.3125 13.0469 11.3201 13.0469 12.5586V13.3775C12.1434 13.6539 11.4844 14.4955 11.4844 15.4883V15.9375H8.90625C7.61391 15.9375 6.5625 16.9889 6.5625 18.2812V37.6562C6.5625 37.9302 6.61016 38.193 6.69688 38.4375H2.34375C1.91297 38.4375 1.5625 38.087 1.5625 37.6562ZM37.6562 38.4375H30H8.90625C8.47547 38.4375 8.125 38.087 8.125 37.6562V26.7969H19.6875V28.2812C19.6875 30.2628 21.2997 31.875 23.2812 31.875C25.2628 31.875 26.875 30.2628 26.875 28.2812V26.7969H38.4375V37.6562C38.4375 38.087 38.087 38.4375 37.6562 38.4375Z" fill="white"/>
<path d="M5 5.78125H15.2344C15.6658 5.78125 16.0156 5.43148 16.0156 5C16.0156 4.56852 15.6658 4.21875 15.2344 4.21875H5C4.56859 4.21875 4.21875 4.56852 4.21875 5C4.21875 5.43148 4.56859 5.78125 5 5.78125Z" fill="white"/>
<path d="M18.3594 5.78125C18.5648 5.78125 18.7664 5.69766 18.9116 5.55234C19.057 5.40703 19.1406 5.20547 19.1406 5C19.1406 4.79453 19.057 4.59297 18.9116 4.44766C18.7664 4.30234 18.5648 4.21875 18.3594 4.21875C18.1539 4.21875 17.9523 4.30234 17.807 4.44766C17.6617 4.59297 17.5781 4.79453 17.5781 5C17.5781 5.20547 17.6616 5.40703 17.807 5.55234C17.9524 5.69766 18.1539 5.78125 18.3594 5.78125Z" fill="white"/>
<path d="M5 9.53125H10.2474C10.6788 9.53125 11.0287 9.18148 11.0287 8.75C11.0287 8.31852 10.6788 7.96875 10.2474 7.96875H5C4.56859 7.96875 4.21875 8.31852 4.21875 8.75C4.21875 9.18148 4.56859 9.53125 5 9.53125Z" fill="white"/>
<path d="M11.0287 12.5C11.0287 12.0685 10.6788 11.7188 10.2474 11.7188H5C4.56859 11.7188 4.21875 12.0685 4.21875 12.5C4.21875 12.9315 4.56859 13.2812 5 13.2812H10.2474C10.6788 13.2812 11.0287 12.9315 11.0287 12.5Z" fill="white"/>
<path d="M29.3418 19.6094C29.1363 19.6094 28.9348 19.693 28.7895 19.8383C28.6441 19.9836 28.5605 20.1852 28.5605 20.3906C28.5605 20.5961 28.6441 20.7977 28.7895 20.943C28.9348 21.0883 29.1363 21.1719 29.3418 21.1719C29.548 21.1719 29.7488 21.0883 29.8941 20.943C30.0402 20.7977 30.123 20.5961 30.123 20.3906C30.123 20.1852 30.0402 19.9836 29.8941 19.8383C29.7496 19.693 29.548 19.6094 29.3418 19.6094Z" fill="white"/>
<path d="M23.2812 29.2969C23.7127 29.2969 24.0625 28.9471 24.0625 28.5156V27.9688C24.0625 27.5373 23.7127 27.1875 23.2812 27.1875C22.8498 27.1875 22.5 27.5373 22.5 27.9688V28.5156C22.5 28.9471 22.8498 29.2969 23.2812 29.2969Z" fill="white"/>
</svg>
