<svg width="40" height="40" viewBox="0 0 40 40" fill="none" xmlns="http://www.w3.org/2000/svg">
<path d="M14.8378 8.38708C15.9068 8.38708 16.7733 7.52055 16.7733 6.4516C16.7733 5.38265 15.9068 4.51611 14.8378 4.51611C13.7689 4.51611 12.9023 5.38265 12.9023 6.4516C12.9023 7.52055 13.7689 8.38708 14.8378 8.38708ZM14.8378 5.80644C15.1941 5.80644 15.483 6.09531 15.483 6.4516C15.483 6.80789 15.1941 7.09676 14.8378 7.09676C14.4815 7.09676 14.1927 6.80789 14.1927 6.4516C14.1927 6.09531 14.4815 5.80644 14.8378 5.80644Z" fill="white"/>
<path d="M26.4524 7.7419C28.2339 7.7419 29.6782 6.29762 29.6782 4.51609C29.6782 2.73456 28.2339 1.29028 26.4524 1.29028C24.6708 1.29028 23.2266 2.73456 23.2266 4.51609C23.2287 6.29673 24.6717 7.7398 26.4524 7.7419ZM26.4524 2.58061C27.5213 2.58061 28.3879 3.44714 28.3879 4.51609C28.3879 5.58504 27.5213 6.45157 26.4524 6.45157C25.3834 6.45157 24.5169 5.58504 24.5169 4.51609C24.5169 3.44714 25.3834 2.58061 26.4524 2.58061Z" fill="white"/>
<path d="M13.5475 29.0322C12.4786 29.0322 11.612 28.1657 11.612 27.0968H10.3217C10.3217 27.8094 9.74406 28.3871 9.0314 28.3871C8.31874 28.3871 7.74108 27.8094 7.74108 27.0968C7.74108 26.3841 8.31874 25.8064 9.0314 25.8064V25.7548C9.24495 25.7874 9.46051 25.8047 9.67656 25.8064V24.5161C7.89503 24.5161 6.45076 23.0718 6.45076 21.2903C6.45076 19.5088 7.89503 18.0645 9.67656 18.0645V16.7742C7.18487 16.7737 5.16455 18.7932 5.16406 21.2849C5.16374 22.8698 5.99503 24.3386 7.35398 25.1542C6.27108 26.0743 6.13906 27.698 7.05906 28.7809C7.97906 29.8638 9.60285 29.9958 10.6858 29.0758C10.7524 29.0192 10.8161 28.9593 10.8766 28.8962C11.8755 30.3713 13.8812 30.7573 15.3563 29.7584C16.2398 29.1601 16.7702 28.1637 16.7733 27.0968H15.483C15.483 28.1657 14.6165 29.0322 13.5475 29.0322Z" fill="white"/>
<path d="M35.4834 21.2903C35.4813 19.5096 34.0382 18.0665 32.2576 18.0645V19.3548C33.3265 19.3548 34.193 20.2213 34.193 21.2903C34.193 22.3592 33.3265 23.2257 32.2576 23.2257V24.5161C32.9702 24.5161 33.5479 25.0937 33.5479 25.8064C33.5479 26.519 32.9702 27.0967 32.2576 27.0967C31.5449 27.0967 30.9672 26.519 30.9672 25.8064H29.6769C29.6769 26.8753 28.8104 27.7419 27.7414 27.7419C26.6725 27.7419 25.8059 26.8753 25.8059 25.8064H24.5156C24.5168 27.5879 25.962 29.0312 27.7435 29.0301C28.8151 29.0294 29.8164 28.4966 30.4156 27.6083C31.4103 28.6261 33.0418 28.6448 34.0595 27.65C35.0772 26.6552 35.0959 25.0239 34.1012 24.0061C34.0875 23.9921 34.0735 23.9782 34.0595 23.9644C34.9493 23.3653 35.4829 22.3629 35.4834 21.2903Z" fill="white"/>
<path d="M7.09759 16.129C8.16655 16.129 9.03308 15.2625 9.03308 14.1935C9.03308 13.1246 8.16655 12.2581 7.09759 12.2581C6.02864 12.2581 5.16211 13.1246 5.16211 14.1935C5.16211 15.2625 6.02864 16.129 7.09759 16.129ZM7.09759 13.5484C7.45388 13.5484 7.74275 13.8373 7.74275 14.1935C7.74275 14.5498 7.45388 14.8387 7.09759 14.8387C6.7413 14.8387 6.45243 14.5498 6.45243 14.1935C6.45243 13.8373 6.7413 13.5484 7.09759 13.5484Z" fill="white"/>
<path d="M2.58065 23.2258C1.1554 23.2258 0 24.3812 0 25.8065C0 27.2317 1.1554 28.3871 2.58065 28.3871C4.00589 28.3871 5.16129 27.2317 5.16129 25.8065C5.16129 24.3812 4.00589 23.2258 2.58065 23.2258ZM2.58065 27.0968C1.86798 27.0968 1.29032 26.5191 1.29032 25.8065C1.29032 25.0938 1.86798 24.5162 2.58065 24.5162C3.29331 24.5162 3.87097 25.0938 3.87097 25.8065C3.87097 26.5191 3.29331 27.0968 2.58065 27.0968Z" fill="white"/>
<path d="M32.2578 16.774C33.3267 16.774 34.1932 15.9075 34.1932 14.8386C34.1932 13.7696 33.3267 12.9031 32.2578 12.9031C31.1888 12.9031 30.3223 13.7696 30.3223 14.8386C30.3223 15.9075 31.1888 16.774 32.2578 16.774ZM32.2578 14.1934C32.614 14.1934 32.9029 14.4823 32.9029 14.8386C32.9029 15.1949 32.614 15.4837 32.2578 15.4837C31.9015 15.4837 31.6126 15.1949 31.6126 14.8386C31.6126 14.4823 31.9015 14.1934 32.2578 14.1934Z" fill="white"/>
<path d="M37.4185 9.67749C35.9933 9.67749 34.8379 10.8329 34.8379 12.2581C34.8379 13.6834 35.9933 14.8388 37.4185 14.8388C38.8438 14.8388 39.9992 13.6834 39.9992 12.2581C39.9992 10.8329 38.8438 9.67749 37.4185 9.67749ZM37.4185 13.5485C36.7059 13.5485 36.1282 12.9708 36.1282 12.2581C36.1282 11.5455 36.7059 10.9678 37.4185 10.9678C38.1312 10.9678 38.7089 11.5455 38.7089 12.2581C38.7089 12.9708 38.1312 13.5485 37.4185 13.5485Z" fill="white"/>
<path d="M28.3862 23.2258C28.7424 23.2258 29.0313 22.937 29.0313 22.5807V16.129C29.0313 15.7728 28.7424 15.4839 28.3862 15.4839H11.612C11.2557 15.4839 10.9668 15.7728 10.9668 16.129V22.5807C10.9668 22.937 11.2557 23.2258 11.612 23.2258H15.861L18.0636 25.4284V36.7742C18.0636 37.8432 18.9301 38.7097 19.9991 38.7097C21.068 38.7097 21.9345 37.8432 21.9345 36.7742V25.4284L24.1371 23.2258H28.3862ZM12.2571 16.7742H27.741V18.0645H12.2571V16.7742ZM13.5474 21.9355H12.2571V19.3549H13.5474V21.9355ZM14.8378 21.9355V19.3549H27.741V21.9355H14.8378ZM19.9991 37.4194C19.6428 37.4194 19.3539 37.1305 19.3539 36.7742C19.3539 36.4179 19.6428 36.129 19.9991 36.129C20.3553 36.129 20.6442 36.4179 20.6442 36.7742C20.6442 37.1305 20.3553 37.4194 19.9991 37.4194ZM20.6442 34.9574C20.2287 34.7991 19.7695 34.7991 19.3539 34.9574V25.8065H20.6442V34.9574ZM21.0223 24.5161H18.9758L17.6855 23.2258H22.3126L21.0223 24.5161Z" fill="white"/>
<path d="M13.5481 10.9675C14.6171 10.9675 15.4836 11.8341 15.4836 12.903H16.7739C16.7739 11.1215 18.2182 9.67723 19.9997 9.67723C21.7813 9.67723 23.2255 11.1215 23.2255 12.903H24.5159C24.5159 11.8341 25.3824 10.9675 26.4513 10.9675C27.5203 10.9675 28.3868 11.8341 28.3868 12.903H29.6772C29.685 11.1293 28.2534 9.68513 26.4798 9.67723C25.5253 9.67303 24.6184 10.0936 24.0049 10.825C22.8609 8.61295 20.1404 7.74715 17.9285 8.89102C17.0992 9.31989 16.4234 9.99561 15.9946 10.825C14.8547 9.46594 12.829 9.28827 11.47 10.4282C10.7387 11.0416 10.3181 11.9485 10.3223 12.903H11.6126C11.6126 11.8341 12.4792 10.9675 13.5481 10.9675Z" fill="white"/>
<path d="M25.6143 31.1563L24.3242 29.8662L23.4118 30.7786L24.7019 32.0687L25.6143 31.1563Z" fill="white"/>
<path d="M25.995 33.36L27.2852 34.6501L28.1975 33.7378L26.9074 32.4477L25.995 33.36Z" fill="white"/>
<path d="M25.9978 31.1567L26.9102 32.0691L28.2003 30.779L27.2879 29.8666L25.9978 31.1567Z" fill="white"/>
<path d="M23.4157 33.7373L24.3281 34.6497L25.6182 33.3595L24.7059 32.4471L23.4157 33.7373Z" fill="white"/>
</svg>
