<svg width="40" height="40" viewBox="0 0 40 40" fill="none" xmlns="http://www.w3.org/2000/svg">
<path d="M35 26.875C34.7945 26.875 34.593 26.9586 34.4477 27.1039C34.3023 27.2492 34.2188 27.4508 34.2188 27.6562C34.2188 27.8625 34.3023 28.0633 34.4477 28.2086C34.593 28.3539 34.7945 28.4375 35 28.4375C35.2055 28.4375 35.407 28.3539 35.5523 28.2086C35.6977 28.0633 35.7812 27.8617 35.7812 27.6562C35.7812 27.4508 35.6977 27.2492 35.5523 27.1039C35.407 26.9586 35.2055 26.875 35 26.875Z" fill="white"/>
<path d="M13.0898 31.0938C12.8844 31.0938 12.6828 31.1773 12.5375 31.3227C12.3922 31.468 12.3086 31.6695 12.3086 31.875C12.3086 32.0805 12.3922 32.282 12.5375 32.4273C12.6828 32.5727 12.8844 32.6562 13.0898 32.6562C13.2953 32.6562 13.4969 32.5727 13.6422 32.4273C13.7875 32.282 13.8711 32.0805 13.8711 31.875C13.8711 31.6695 13.7875 31.468 13.6422 31.3227C13.4969 31.1773 13.2953 31.0938 13.0898 31.0938Z" fill="white"/>
<path d="M26.7941 18.3845L23.6618 17.6996C24.9487 16.792 25.7918 15.2952 25.7918 13.6043V11.8084V10.9776V10.7906C25.7918 8.02844 23.5446 5.78125 20.7824 5.78125C18.0202 5.78125 15.773 8.02844 15.773 10.7906V10.9776V11.8084V13.6043C15.773 15.2932 16.6141 16.7885 17.8984 17.6963L14.7677 18.3831C12.7713 18.8211 11.3223 20.6224 11.3223 22.6663V26.0966C11.3223 26.5281 11.672 26.8779 12.1035 26.8779H29.4613C29.8927 26.8779 30.2425 26.5281 30.2425 26.0966V22.6684C30.2425 20.623 28.7923 18.8215 26.7941 18.3845ZM17.3355 10.7906C17.3355 8.89 18.8818 7.34375 20.7824 7.34375C22.5622 7.34375 24.0312 8.69953 24.2109 10.4325L22.5778 9.47312C22.2487 9.27977 21.8284 9.3525 21.5833 9.64492C20.8472 10.5234 19.7677 11.0272 18.6216 11.0272H17.3355V10.9776V10.7906ZM17.3355 12.5897H18.6216C20.0063 12.5897 21.3218 12.0659 22.3205 11.1341L24.2293 12.2555V13.6043C24.2293 15.5049 22.683 17.0512 20.7824 17.0512C18.8818 17.0512 17.3355 15.5049 17.3355 13.6043V12.5897ZM21.8344 18.5016L20.7714 20.9995L19.7061 18.4959C20.053 18.5723 20.4129 18.6137 20.7824 18.6137C21.1433 18.6137 21.4949 18.5745 21.8344 18.5016ZM28.68 25.3154H12.8848V22.6663C12.8848 21.3507 13.8175 20.1913 15.1026 19.9093L18.31 19.2057L20.0525 23.3007C20.1752 23.5889 20.4581 23.776 20.7714 23.776C21.0846 23.776 21.3677 23.5889 21.4903 23.3007L23.233 19.2053L26.4604 19.911C27.7466 20.1923 28.6801 21.3519 28.6801 22.6684V25.3154H28.68Z" fill="white"/>
<path d="M28.438 31.0938H16.2168C15.7853 31.0938 15.4355 31.4435 15.4355 31.875C15.4355 32.3065 15.7853 32.6562 16.2168 32.6562H28.438C28.8695 32.6562 29.2192 32.3065 29.2192 31.875C29.2192 31.4435 28.8695 31.0938 28.438 31.0938Z" fill="white"/>
<path d="M36.0938 0H31.875H11.25H7.03125C4.87734 0 3.125 1.75234 3.125 3.90625V5.78125H2.34375C1.05141 5.78125 0 6.83266 0 8.125C0 9.41734 1.05141 10.4688 2.34375 10.4688H3.125V17.6562H2.34375C1.05141 17.6562 0 18.7077 0 20C0 21.2923 1.05141 22.3438 2.34375 22.3438H3.125V29.5312H2.34375C1.05141 29.5312 0 30.5827 0 31.875C0 33.1673 1.05141 34.2188 2.34375 34.2188H3.125V36.0938C3.125 38.2477 4.87734 40 7.03125 40H11.25H31.875H36.0938C38.2477 40 40 38.2477 40 36.0938V3.90625C40 1.75234 38.2477 0 36.0938 0ZM1.5625 8.125C1.5625 7.69422 1.91297 7.34375 2.34375 7.34375H5.46875C5.89953 7.34375 6.25 7.69422 6.25 8.125C6.25 8.55578 5.89953 8.90625 5.46875 8.90625H2.34375C1.91297 8.90625 1.5625 8.55578 1.5625 8.125ZM1.5625 20C1.5625 19.5692 1.91297 19.2188 2.34375 19.2188H5.46875C5.89953 19.2188 6.25 19.5692 6.25 20C6.25 20.4308 5.89953 20.7812 5.46875 20.7812H2.34375C1.91297 20.7812 1.5625 20.4308 1.5625 20ZM1.5625 31.875C1.5625 31.4442 1.91297 31.0938 2.34375 31.0938H5.46875C5.89953 31.0938 6.25 31.4442 6.25 31.875C6.25 32.3058 5.89953 32.6562 5.46875 32.6562H2.34375C1.91297 32.6562 1.5625 32.3058 1.5625 31.875ZM38.4375 36.0938C38.4375 37.3861 37.3861 38.4375 36.0938 38.4375H34.9979C35.4895 37.7841 35.7812 36.9724 35.7812 36.0938V30.8145C35.7812 30.383 35.4315 30.0333 35 30.0333C34.5685 30.0333 34.2188 30.383 34.2188 30.8145V36.0938C34.2188 37.3861 33.1673 38.4375 31.875 38.4375H11.25H7.03125C5.73891 38.4375 4.6875 37.3861 4.6875 36.0938V34.2188H5.46875C6.76109 34.2188 7.8125 33.1673 7.8125 31.875C7.8125 30.5827 6.76109 29.5312 5.46875 29.5312H4.6875V22.3438H5.46875C6.76109 22.3438 7.8125 21.2923 7.8125 20C7.8125 18.7077 6.76109 17.6562 5.46875 17.6562H4.6875V10.4688H5.46875C6.76109 10.4688 7.8125 9.41734 7.8125 8.125C7.8125 6.83266 6.76109 5.78125 5.46875 5.78125H4.6875V3.90625C4.6875 2.61391 5.73891 1.5625 7.03125 1.5625H11.25H31.875C33.1673 1.5625 34.2188 2.61391 34.2188 3.90625V24.5312C34.2188 24.9627 34.5685 25.3125 35 25.3125C35.4315 25.3125 35.7812 24.9627 35.7812 24.5312V3.90625C35.7812 3.02758 35.4895 2.21586 34.9979 1.5625H36.0938C37.3861 1.5625 38.4375 2.61391 38.4375 3.90625V36.0938Z" fill="white"/>
</svg>
