<svg width="40" height="40" viewBox="0 0 40 40" fill="none" xmlns="http://www.w3.org/2000/svg">
<g clip-path="url(#clip0)">
<path d="M13.6422 19.6362C16.9566 19.6362 19.6595 17.6009 19.6595 15.1074C19.6595 12.6137 16.9646 10.5784 13.6422 10.5784C10.3199 10.5784 7.625 12.6137 7.625 15.1074C7.625 17.6009 10.3279 19.6362 13.6422 19.6362ZM13.6422 12.187C16.0554 12.187 18.0505 13.5226 18.0505 15.1072C18.0505 16.692 16.0313 18.0273 13.6422 18.0273C11.2529 18.0273 9.23367 16.692 9.23367 15.1072C9.23367 13.5226 11.2529 12.179 13.6422 12.179V12.187Z" fill="white"/>
<path d="M39.1502 23.4736H27.2766V15.0992C27.2766 9.59692 21.155 5.11633 13.6014 5.11633C6.04745 5.11633 -0.0742188 9.59692 -0.0742188 15.0992V24.9939C-0.0742188 30.0618 5.11444 34.2449 11.7993 34.8803H11.9362C12.491 34.9288 13.0542 34.969 13.6255 34.969H39.1502C39.5943 34.969 39.9546 34.6086 39.9546 34.1645V24.2778C39.9546 23.834 39.5943 23.4736 39.1502 23.4736ZM13.6415 6.73304C20.2779 6.73304 25.7081 10.4898 25.7081 15.1075C25.7081 19.7249 20.3103 23.4816 13.6415 23.4816C6.97272 23.4816 1.57491 19.7249 1.57491 15.1072C1.57491 10.4898 7.01289 6.73304 13.6415 6.73304ZM25.7081 19.7972V23.4736H21.0422C22.8635 22.6482 24.4524 21.3852 25.6677 19.7972H25.7081ZM38.3457 33.36H36.7367V29.2894C36.7367 28.8456 36.3764 28.485 35.9325 28.485C35.4884 28.485 35.1281 28.8453 35.1281 29.2894V33.3681H31.9101V31.1558C31.9101 30.7116 31.5498 30.3513 31.1057 30.3513C30.6615 30.3513 30.3012 30.7116 30.3012 31.1558V33.3681H27.0836V31.1558C27.0836 30.7116 26.7232 30.3513 26.2791 30.3513C25.8349 30.3513 25.4746 30.7116 25.4746 31.1558V33.3681H22.2567V29.2894C22.2567 28.8456 21.8963 28.485 21.4522 28.485C21.0084 28.485 20.6477 28.8453 20.6477 29.2894V33.3681H17.5669V31.1558C17.5669 30.7116 17.2063 30.3513 16.7625 30.3513C16.3183 30.3513 15.958 30.7116 15.958 31.1558V33.3681H13.6409C13.3354 33.3681 13.0379 33.3681 12.7401 33.3681V31.1558C12.7401 30.7116 12.3797 30.3513 11.9356 30.3513C11.4915 30.3513 11.1311 30.7116 11.1311 31.1558V33.175C5.70174 32.3705 1.61507 29.008 1.61507 24.9859V19.7972C3.91576 22.9425 8.44483 25.0823 13.6817 25.0823H38.3457V33.36Z" fill="white"/>
</g>
<defs>
<clipPath id="clip0">
<rect width="40" height="40" fill="white"/>
</clipPath>
</defs>
</svg>
