<svg width="40" height="39" viewBox="0 0 40 39" fill="none" xmlns="http://www.w3.org/2000/svg">
<path d="M39.9229 21.0459C39.5637 17.4335 37.9499 14.0279 35.3784 11.4564C33.1809 9.25897 30.4912 7.84684 27.661 7.21894V5.23391C28.8169 4.94632 29.6761 3.89998 29.6761 2.65629C29.6761 1.19158 28.4846 0 27.0199 0H21.3948C19.9301 0 18.7385 1.19158 18.7385 2.65629C18.7385 3.8999 19.5977 4.94625 20.7536 5.23391V7.22448C17.9321 7.85504 15.2512 9.26522 13.06 11.4565C12.5804 11.936 12.1382 12.4391 11.7335 12.9619C11.7138 12.9604 11.6942 12.9589 11.6742 12.9589H6.10689C5.67548 12.9589 5.32563 13.3087 5.32563 13.7402C5.32563 14.1717 5.67548 14.5215 6.10689 14.5215H10.6704C10.0976 15.4805 9.63569 16.4876 9.28412 17.5243H0.781262C0.349849 17.5243 0 17.8741 0 18.3056C0 18.7371 0.349849 19.0868 0.781262 19.0868H8.84263C8.61747 20.0752 8.48825 21.0811 8.45489 22.0898H5.00008C4.56866 22.0898 4.21881 22.4396 4.21881 22.871C4.21881 23.3025 4.56866 23.6523 5.00008 23.6523H8.47982C8.54575 24.6636 8.70833 25.6695 8.96764 26.6552H3.90631C3.4749 26.6552 3.12505 27.005 3.12505 27.4365C3.12505 27.868 3.4749 28.2178 3.90631 28.2178H9.46624C10.2327 30.2452 11.4304 32.1455 13.06 33.775C15.6339 36.349 19.043 37.9632 22.6592 38.3205C23.1753 38.3714 23.6918 38.3967 24.2076 38.3967C27.2562 38.3967 30.2661 37.5144 32.82 35.8512C33.1816 35.6158 33.2839 35.1318 33.0484 34.7702C32.8129 34.4086 32.3289 34.3064 31.9674 34.5418C26.3769 38.1823 18.8898 37.3952 14.1648 32.6702C8.62083 27.1262 8.62083 18.1055 14.1648 12.5614C19.7087 7.01753 28.7294 7.01753 34.2735 12.5614C38.9922 17.2803 39.7836 24.7609 36.1552 30.3487C35.9202 30.7105 36.0231 31.1945 36.3849 31.4294C36.747 31.6644 37.2307 31.5615 37.4656 31.1996C39.4043 28.214 40.2769 24.6081 39.9229 21.0459ZM20.301 2.65637C20.301 2.05323 20.7916 1.5626 21.3948 1.5626H27.0199C27.623 1.5626 28.1136 2.05323 28.1136 2.65637C28.1136 3.2595 27.623 3.75013 27.0199 3.75013H26.8797H21.5349H21.3948C20.7916 3.75013 20.301 3.25942 20.301 2.65637ZM22.3161 6.95588V5.31266H26.0984V6.95307C24.8425 6.8037 23.5718 6.80463 22.3161 6.95588Z" fill="white"/>
<path d="M34.8262 32.4409C34.6199 32.4409 34.4191 32.5245 34.2739 32.6698C34.1278 32.8151 34.0449 33.0167 34.0449 33.2222C34.0449 33.4276 34.1278 33.6292 34.2739 33.7745C34.4191 33.9206 34.62 34.0034 34.8262 34.0034C35.0316 34.0034 35.2324 33.9206 35.3785 33.7745C35.5238 33.6292 35.6074 33.4276 35.6074 33.2222C35.6074 33.0167 35.5239 32.8151 35.3785 32.6698C35.2324 32.5245 35.0316 32.4409 34.8262 32.4409Z" fill="white"/>
<path d="M24.2192 10.4961C17.5365 10.4961 12.0996 15.9329 12.0996 22.6157C12.0996 29.2986 17.5365 34.7354 24.2192 34.7354C30.902 34.7354 36.3389 29.2986 36.3389 22.6157C36.3389 15.9329 30.902 10.4961 24.2192 10.4961ZM24.2192 33.1728C18.398 33.1728 13.6621 28.4369 13.6621 22.6157C13.6621 16.7945 18.398 12.0586 24.2192 12.0586C30.0405 12.0586 34.7764 16.7945 34.7764 22.6157C34.7764 28.4369 30.0405 33.1728 24.2192 33.1728Z" fill="white"/>
<path d="M29.1619 16.5689L25.2923 20.4384C24.9687 20.2784 24.6047 20.188 24.22 20.188C23.8351 20.188 23.4712 20.2784 23.1476 20.4384L21.4158 18.7066C21.1106 18.4015 20.6161 18.4015 20.3108 18.7066C20.0058 19.0117 20.0058 19.5064 20.3108 19.8115L22.0427 21.5433C21.8826 21.8669 21.7923 22.2309 21.7923 22.6156C21.7923 23.9543 22.8813 25.0433 24.22 25.0433C25.5587 25.0433 26.6477 23.9543 26.6477 22.6156C26.6477 22.2309 26.5573 21.8669 26.3973 21.5433L30.1532 17.7873L30.2668 17.6738C30.5718 17.3687 30.5718 16.874 30.2668 16.5689C29.9617 16.2638 29.4671 16.2638 29.1619 16.5689ZM24.22 23.4809C23.7429 23.4809 23.3548 23.0928 23.3548 22.6157C23.3548 22.1387 23.7429 21.7505 24.22 21.7505C24.697 21.7505 25.0851 22.1387 25.0851 22.6157C25.0851 23.0928 24.697 23.4809 24.22 23.4809Z" fill="white"/>
<path d="M32.5715 21.8438H31.8477C31.4162 21.8438 31.0664 22.1935 31.0664 22.625C31.0664 23.0565 31.4162 23.4062 31.8477 23.4062H32.5715C33.0029 23.4062 33.3527 23.0565 33.3527 22.625C33.3527 22.1935 33.0029 21.8438 32.5715 21.8438Z" fill="white"/>
<path d="M16.589 21.825H15.8652C15.4338 21.825 15.084 22.1747 15.084 22.6062C15.084 23.0377 15.4338 23.3875 15.8652 23.3875H16.589C17.0204 23.3875 17.3702 23.0377 17.3702 22.6062C17.3702 22.1747 17.0204 21.825 16.589 21.825Z" fill="white"/>
<path d="M24.2285 15.7674C24.6599 15.7674 25.0098 15.4177 25.0098 14.9862V14.2625C25.0098 13.831 24.6599 13.4812 24.2285 13.4812C23.7971 13.4812 23.4473 13.831 23.4473 14.2625V14.9862C23.4473 15.4177 23.7971 15.7674 24.2285 15.7674Z" fill="white"/>
<path d="M24.2109 29.4639C23.7795 29.4639 23.4297 29.8136 23.4297 30.2451V30.9689C23.4297 31.4004 23.7795 31.7501 24.2109 31.7501C24.6423 31.7501 24.9922 31.4004 24.9922 30.9689V30.2451C24.9922 29.8136 24.6423 29.4639 24.2109 29.4639Z" fill="white"/>
<path d="M0.78125 26.655C0.575781 26.655 0.374219 26.7386 0.228906 26.8839C0.0835937 27.0292 0 27.2308 0 27.4363C0 27.6425 0.0835156 27.8433 0.228906 27.9886C0.374297 28.1339 0.575781 28.2175 0.78125 28.2175C0.986718 28.2175 1.18828 28.1339 1.33351 27.9886C1.47883 27.8433 1.5625 27.6417 1.5625 27.4363C1.5625 27.2308 1.47891 27.0292 1.33351 26.8839C1.18828 26.7386 0.986718 26.655 0.78125 26.655Z" fill="white"/>
</svg>
