<svg width="40" height="40" viewBox="0 0 40 40" fill="none" xmlns="http://www.w3.org/2000/svg">
<g clip-path="url(#clip0)">
<path d="M34.3887 16.0938C34.1831 16.0938 33.9816 16.1773 33.8363 16.3227C33.691 16.468 33.6074 16.6695 33.6074 16.875C33.6074 17.0805 33.6909 17.282 33.8363 17.4273C33.9816 17.5726 34.1831 17.6562 34.3887 17.6562C34.5949 17.6562 34.7957 17.5727 34.9409 17.4273C35.087 17.282 35.1699 17.0805 35.1699 16.875C35.1699 16.6695 35.087 16.468 34.9409 16.3227C34.7957 16.1773 34.5949 16.0938 34.3887 16.0938Z" fill="white"/>
<path d="M11.1306 7.12078C11.7021 6.44773 12.048 5.57742 12.048 4.62734V3.85812C12.048 1.73078 10.3172 0 8.18977 0C6.06234 0 4.33172 1.73078 4.33172 3.8582V4.62742C4.33172 5.57906 4.67875 6.4507 5.25195 7.12414C2.49125 7.83445 0.445312 10.3448 0.445312 13.3241V17.6953C0.445312 19.2246 1.68945 20.4688 3.21875 20.4688H3.34094L2.30203 22.9671C2.2018 23.2082 2.22859 23.4834 2.37352 23.7007C2.49227 23.8787 2.67789 23.997 2.88453 24.0345V28.607C2.88453 29.0384 3.23438 29.3882 3.66578 29.3882H4.29219V37.657C4.29219 38.9489 5.34328 40 6.63523 40C7.23477 40 7.78219 39.7734 8.19703 39.4016C8.61187 39.7734 9.1593 40 9.75883 40C11.0508 40 12.1018 38.9489 12.1018 37.657V29.3882H12.9072C13.3386 29.3882 13.6884 29.0384 13.6884 28.607V24.0421C13.9078 24.0145 14.107 23.8948 14.2341 23.7102C14.3053 23.6069 14.349 23.4896 14.3648 23.3687C15.2946 22.9885 15.9516 22.0745 15.9516 21.0095V13.3241C15.9516 10.3397 13.8985 7.82617 11.1306 7.12078ZM5.89422 3.8582C5.89422 2.59234 6.92398 1.5625 8.18977 1.5625C9.45562 1.5625 10.4855 2.59234 10.4855 3.8582V4.62742C10.4855 5.89328 9.45562 6.92312 8.18977 6.92312C6.92398 6.92312 5.89414 5.89328 5.89414 4.62742V3.8582H5.89422ZM6.63523 38.4375C6.20484 38.4375 5.85469 38.0873 5.85469 37.657V29.3882H7.41578V34.6555V37.657C7.41578 38.0873 7.06562 38.4375 6.63523 38.4375ZM10.5394 37.657C10.5394 38.0873 10.1893 38.4375 9.75891 38.4375C9.32852 38.4375 8.97836 38.0873 8.97836 37.657V34.6555V29.3882H10.5394V37.657ZM12.1259 27.8257H4.44703V24.0484H12.1259V27.8257ZM14.3891 21.0096C14.3891 21.3754 14.1884 21.6945 13.8918 21.8646L13.006 19.5435V14.1148C13.006 13.6834 12.6562 13.3335 12.2248 13.3335C11.7934 13.3335 11.4435 13.6834 11.4435 14.1148V19.6875C11.4435 19.6937 11.4443 19.6995 11.4445 19.7056C11.4448 19.7219 11.4455 19.7381 11.447 19.7545C11.4479 19.7657 11.4493 19.7768 11.4507 19.788C11.4525 19.8016 11.4545 19.8152 11.457 19.8288C11.4595 19.8427 11.4626 19.8564 11.4659 19.87C11.4684 19.8807 11.471 19.8913 11.4741 19.902C11.4786 19.9179 11.4838 19.9334 11.4893 19.949C11.4913 19.9547 11.4927 19.9604 11.4948 19.966L12.4565 22.4859H4.19438L5.03312 20.4688H7.00773H8.57023C9.00164 20.4688 9.35148 20.1189 9.35148 19.6875V13.2671C9.35148 12.8357 9.00164 12.4859 8.57023 12.4859H4.11711C3.6857 12.4859 3.33586 12.8357 3.33586 13.2671V13.4375V15.3125V16.5625C3.33586 16.9939 3.6857 17.3438 4.11711 17.3438H7.00773C7.43852 17.3438 7.78898 17.6942 7.78898 18.125C7.78898 18.5558 7.43852 18.9062 7.00773 18.9062H4.11711H3.21867C2.55094 18.9062 2.00773 18.363 2.00773 17.6953V13.3241C2.00773 10.6562 4.17828 8.48555 6.84625 8.48555H9.55055C12.2185 8.48555 14.3891 10.6561 14.3891 13.3241V21.0096ZM4.89844 15.3125V14.0484H7.78906V15.9156C7.54453 15.8289 7.28172 15.7812 7.00781 15.7812H4.89844V15.3125Z" fill="white"/>
<path d="M38.7728 22.3077H35.0363C35.1229 22.0634 35.1705 21.8009 35.1705 21.5273V20.0099C35.1705 19.5785 34.8206 19.2287 34.3892 19.2287C33.9578 19.2287 33.608 19.5785 33.608 20.0099V21.5273C33.608 21.9577 33.2579 22.3077 32.8276 22.3077C32.3973 22.3077 32.0472 21.9577 32.0472 21.5273V17.6172C32.0472 17.5942 32.0457 17.5716 32.0438 17.5492V14.2428C32.0438 13.8114 31.6939 13.4616 31.2625 13.4616C30.8311 13.4616 30.4813 13.8114 30.4813 14.2428V19.2188H24.3533V17.6172C24.3533 17.5942 24.3518 17.5716 24.3498 17.5492V14.2428C24.3498 13.8114 24 13.4616 23.5686 13.4616C23.1372 13.4616 22.7873 13.8114 22.7873 14.2428V21.5934C22.7528 21.9929 22.417 22.3077 22.0087 22.3077C21.5774 22.3077 21.2266 21.9568 21.2266 21.5255V11.978C21.2266 10.0523 22.7933 8.48555 24.719 8.48555H30.1154C32.0412 8.48555 33.6079 10.0523 33.6079 11.978V13.75C33.6079 14.1814 33.9577 14.5312 34.3892 14.5312C34.8206 14.5312 35.1704 14.1814 35.1704 13.75V11.978C35.1704 9.31867 33.1059 7.13414 30.4957 6.93883C30.9796 6.29414 31.2668 5.49367 31.2668 4.62734V3.85812C31.2668 1.73078 29.536 0 27.4086 0C25.2812 0 23.5505 1.73078 23.5505 3.8582V4.62742C23.5505 5.4943 23.838 6.29523 24.3225 6.94016C21.72 7.14328 19.6641 9.3243 19.6641 11.978V21.5256C19.6641 22.8184 20.7159 23.8702 22.0087 23.8702C22.2816 23.8702 22.5435 23.8229 22.7873 23.7368V37.2954C22.7873 38.7868 24.0006 40.0001 25.492 40.0001C26.2439 40.0001 26.9249 39.6915 27.4156 39.1946C27.9062 39.6915 28.5871 40.0001 29.339 40.0001C30.8304 40.0001 32.0437 38.7868 32.0437 37.2954V31.9952H38.7728C39.2042 31.9952 39.554 31.6454 39.554 31.214V23.089C39.554 22.6575 39.2042 22.3077 38.7728 22.3077ZM25.1131 3.8582C25.1131 2.59234 26.1429 1.5625 27.4087 1.5625C28.6745 1.5625 29.7044 2.59234 29.7044 3.8582V4.62742C29.7044 5.89328 28.6745 6.92312 27.4087 6.92312C26.1429 6.92312 25.1131 5.89328 25.1131 4.62742V3.8582ZM37.9915 25.625H33.8561C33.7757 25.2791 33.4662 25.021 33.0959 25.021C32.7256 25.021 32.4159 25.2791 32.3356 25.625H28.2002V23.8702H37.9915V25.625ZM25.492 38.4375C24.8622 38.4375 24.3498 37.9251 24.3498 37.2953V21.651C24.352 21.6095 24.3533 21.5677 24.3533 21.5256V20.7812H30.4813V22.3077H27.4191C26.9877 22.3077 26.6378 22.6575 26.6378 23.0889L26.6344 37.2953C26.6343 37.9251 26.122 38.4375 25.492 38.4375ZM30.4813 37.2953C30.4813 37.9252 29.9688 38.4375 29.3391 38.4375C28.7093 38.4375 28.1969 37.9251 28.1969 37.2953V31.9952H30.4813V37.2953ZM28.2002 30.4327V27.1875H32.3356C32.416 27.5334 32.7256 27.7914 33.0959 27.7914C33.4662 27.7914 33.7757 27.5334 33.8561 27.1875H37.9915V30.4327H28.2002Z" fill="white"/>
</g>
<defs>
<clipPath id="clip0">
<rect width="40" height="40" fill="white"/>
</clipPath>
</defs>
</svg>
