<svg width="50" height="50" viewBox="0 0 50 50" fill="none" xmlns="http://www.w3.org/2000/svg">
<path d="M47.0703 19.9219H43.75V19.3604C43.75 18.1193 42.9262 17.0674 41.7969 16.7219V15.6982C41.7969 14.1501 40.5374 12.8906 38.9893 12.8906H38.4766V2.92969C38.4766 1.31426 37.1623 0 35.5469 0H2.92969C1.31426 0 0 1.31426 0 2.92969V47.0703C0 48.6857 1.31426 50 2.92969 50H11.1328H37.5H47.0703C48.6857 50 50 48.6857 50 47.0703V22.8516C50 21.2361 48.6857 19.9219 47.0703 19.9219ZM48.0469 22.8516V24.5117H40.5843C40.045 24.5117 39.6077 24.9489 39.6077 25.4883C39.6077 26.0276 40.045 26.4648 40.5843 26.4648H48.0469V31.543H33.5938V31.0547C33.5938 30.5153 33.1564 30.0781 32.6172 30.0781H25.5859C25.0467 30.0781 24.6094 30.5153 24.6094 31.0547V31.543H10.1562V22.8516C10.1562 22.3131 10.5943 21.875 11.1328 21.875H47.0703C47.6088 21.875 48.0469 22.3131 48.0469 22.8516ZM26.5625 32.0312H31.6406V35.3516C31.6406 36.7516 30.5017 37.8906 29.1016 37.8906C27.7015 37.8906 26.5625 36.7516 26.5625 35.3516V32.0312ZM17.1143 18.5547H17.4561C17.9003 18.5547 18.2617 18.9161 18.2617 19.3604V19.9219H16.3086V19.3604C16.3086 18.9161 16.67 18.5547 17.1143 18.5547ZM39.8438 19.9219V19.3604C39.8438 18.9161 40.2052 18.5547 40.6494 18.5547H40.9912C41.4354 18.5547 41.7969 18.9161 41.7969 19.3604V19.9219H39.8438ZM39.8438 15.6982V16.7219C38.7145 17.0674 37.8906 18.1193 37.8906 19.3604V19.9219H20.2148V19.3604C20.2148 18.1193 19.391 17.0674 18.2617 16.7219V15.6982C18.2617 15.2271 18.645 14.8438 19.1162 14.8438H38.9893C39.4604 14.8438 39.8438 15.2271 39.8438 15.6982ZM1.95312 47.0703V2.92969C1.95312 2.39121 2.39121 1.95312 2.92969 1.95312H35.5469C36.0854 1.95312 36.5234 2.39121 36.5234 2.92969V12.8906H19.1162C17.5681 12.8906 16.3086 14.1501 16.3086 15.6982V16.7219C15.1793 17.0674 14.3555 18.1193 14.3555 19.3604V19.9219H11.1328C9.51738 19.9219 8.20312 21.2361 8.20312 22.8516V47.0703C8.20312 47.4127 8.2627 47.7412 8.37109 48.0469H2.92969C2.39121 48.0469 1.95312 47.6088 1.95312 47.0703ZM47.0703 48.0469H37.5H11.1328C10.5943 48.0469 10.1562 47.6088 10.1562 47.0703V33.4961H24.6094V35.3516C24.6094 37.8285 26.6246 39.8438 29.1016 39.8438C31.5785 39.8438 33.5938 37.8285 33.5938 35.3516V33.4961H48.0469V47.0703C48.0469 47.6088 47.6088 48.0469 47.0703 48.0469Z" fill="white"/>
<path d="M6.25 7.22656H19.043C19.5822 7.22656 20.0195 6.78936 20.0195 6.25C20.0195 5.71064 19.5822 5.27344 19.043 5.27344H6.25C5.71074 5.27344 5.27344 5.71064 5.27344 6.25C5.27344 6.78936 5.71074 7.22656 6.25 7.22656Z" fill="white"/>
<path d="M22.9492 7.22656C23.2061 7.22656 23.458 7.12207 23.6396 6.94043C23.8213 6.75879 23.9258 6.50684 23.9258 6.25C23.9258 5.99316 23.8213 5.74121 23.6396 5.55957C23.458 5.37793 23.2061 5.27344 22.9492 5.27344C22.6924 5.27344 22.4404 5.37793 22.2588 5.55957C22.0771 5.74121 21.9727 5.99316 21.9727 6.25C21.9727 6.50684 22.0771 6.75879 22.2588 6.94043C22.4405 7.12207 22.6924 7.22656 22.9492 7.22656Z" fill="white"/>
<path d="M6.25 11.9141H12.8093C13.3485 11.9141 13.7858 11.4769 13.7858 10.9375C13.7858 10.3981 13.3485 9.96094 12.8093 9.96094H6.25C5.71074 9.96094 5.27344 10.3981 5.27344 10.9375C5.27344 11.4769 5.71074 11.9141 6.25 11.9141Z" fill="white"/>
<path d="M13.7858 15.625C13.7858 15.0856 13.3485 14.6484 12.8093 14.6484H6.25C5.71074 14.6484 5.27344 15.0856 5.27344 15.625C5.27344 16.1644 5.71074 16.6016 6.25 16.6016H12.8093C13.3485 16.6016 13.7858 16.1644 13.7858 15.625Z" fill="white"/>
<path d="M36.6777 24.5117C36.4209 24.5117 36.1689 24.6162 35.9873 24.7979C35.8057 24.9795 35.7012 25.2314 35.7012 25.4883C35.7012 25.7451 35.8056 25.9971 35.9873 26.1787C36.169 26.3604 36.4209 26.4648 36.6777 26.4648C36.9355 26.4648 37.1865 26.3604 37.3681 26.1787C37.5507 25.9971 37.6543 25.7451 37.6543 25.4883C37.6543 25.2314 37.5507 24.9795 37.3681 24.7979C37.1875 24.6162 36.9355 24.5117 36.6777 24.5117Z" fill="white"/>
<path d="M29.1016 36.6211C29.6408 36.6211 30.0781 36.1839 30.0781 35.6445V34.9609C30.0781 34.4216 29.6408 33.9844 29.1016 33.9844C28.5623 33.9844 28.125 34.4216 28.125 34.9609V35.6445C28.125 36.1839 28.5623 36.6211 29.1016 36.6211Z" fill="white"/>
</svg>
