<svg width="45" height="45" viewBox="0 0 45 45" fill="none" xmlns="http://www.w3.org/2000/svg">
<g clip-path="url(#clip0)">
<path d="M38.6895 18.1055C38.4582 18.1055 38.2315 18.1994 38.0681 18.363C37.9046 18.5266 37.8105 18.7532 37.8105 18.9844C37.8105 19.2155 37.9045 19.4423 38.0681 19.6057C38.2315 19.7692 38.4582 19.8633 38.6895 19.8633C38.9215 19.8633 39.1474 19.7692 39.3108 19.6057C39.4751 19.4423 39.5684 19.2155 39.5684 18.9844C39.5684 18.7532 39.4751 18.5265 39.3108 18.363C39.1474 18.1994 38.9215 18.1055 38.6895 18.1055Z" fill="white"/>
<path d="M12.5229 8.01088C13.1659 7.2537 13.555 6.2746 13.555 5.20576V4.34039C13.5549 1.94713 11.6078 0 9.21446 0C6.82111 0 4.87416 1.94713 4.87416 4.34048V5.20585C4.87416 6.27645 5.26457 7.25704 5.90942 8.01466C2.80363 8.81376 0.501953 11.6379 0.501953 14.9897V19.9072C0.501953 21.6277 1.90161 23.0273 3.62207 23.0273H3.75953L2.59076 25.838C2.478 26.1092 2.50814 26.4189 2.67118 26.6633C2.80478 26.8635 3.0136 26.9967 3.24607 27.0388V32.1828C3.24607 32.6682 3.63965 33.0617 4.12498 33.0617H4.82969V42.3641C4.82969 43.8175 6.01217 45 7.46562 45C8.14009 45 8.75594 44.7451 9.22264 44.3268C9.68934 44.745 10.3052 45 10.9797 45C12.4331 45 13.6155 43.8175 13.6155 42.3641V33.0617H14.5216C15.0069 33.0617 15.4005 32.6682 15.4005 32.1828V27.0474C15.6473 27.0163 15.8714 26.8817 16.0144 26.674C16.0945 26.5577 16.1436 26.4258 16.1614 26.2898C17.2074 25.8621 17.9465 24.8338 17.9465 23.6357V14.9896C17.9466 11.6321 15.6368 8.80444 12.5229 8.01088ZM6.63197 4.34048C6.63197 2.91639 7.79046 1.75781 9.21446 1.75781C10.6386 1.75781 11.7971 2.91639 11.7971 4.34048V5.20585C11.7971 6.62994 10.6386 7.78852 9.21446 7.78852C7.79046 7.78852 6.63189 6.62994 6.63189 5.20585V4.34048H6.63197ZM7.46562 43.2422C6.98143 43.2422 6.5875 42.8483 6.5875 42.3641V33.0617H8.34373V38.9875V42.3641C8.34373 42.8483 7.9498 43.2422 7.46562 43.2422ZM11.8578 42.3641C11.8578 42.8483 11.4639 43.2422 10.9797 43.2422C10.4956 43.2422 10.1016 42.8483 10.1016 42.3641V38.9875V33.0617H11.8578V42.3641ZM13.6427 31.3039H5.00389V27.0544H13.6427V31.3039ZM16.1888 23.6358C16.1888 24.0473 15.963 24.4063 15.6292 24.5977L14.6327 21.9865V15.8791C14.6327 15.3938 14.2392 15.0002 13.7538 15.0002C13.2685 15.0002 12.8749 15.3938 12.8749 15.8791V22.1484C12.8749 22.1554 12.8758 22.162 12.876 22.1688C12.8764 22.1871 12.8772 22.2054 12.8788 22.2238C12.8799 22.2364 12.8814 22.2489 12.883 22.2615C12.885 22.2768 12.8872 22.2921 12.89 22.3074C12.893 22.3231 12.8964 22.3385 12.9001 22.3538C12.903 22.3658 12.9059 22.3777 12.9093 22.3897C12.9144 22.4076 12.9203 22.4251 12.9264 22.4426C12.9287 22.449 12.9302 22.4554 12.9327 22.4618L14.0145 25.2966H4.71965L5.66324 23.0273H7.88468H9.64249C10.1278 23.0273 10.5214 22.6338 10.5214 22.1484V14.9255C10.5214 14.4402 10.1278 14.0466 9.64249 14.0466H4.63273C4.14739 14.0466 3.75382 14.4402 3.75382 14.9255V15.1172V17.2266V18.6328C3.75382 19.1181 4.14739 19.5117 4.63273 19.5117H7.88468C8.36931 19.5117 8.76359 19.906 8.76359 20.3906C8.76359 20.8753 8.36931 21.2695 7.88468 21.2695H4.63273H3.62198C2.87078 21.2695 2.25968 20.6584 2.25968 19.9072V14.9897C2.25968 11.9882 4.70154 9.54624 7.70301 9.54624H10.7453C13.7468 9.54624 16.1888 11.9881 16.1888 14.9897V23.6358ZM5.51172 17.2266V15.8044H8.76367V17.9051C8.48857 17.8075 8.19291 17.7539 7.88477 17.7539H5.51172V17.2266Z" fill="white"/>
<path d="M43.6203 25.0961H39.4169C39.5142 24.8214 39.5678 24.526 39.5678 24.2183V22.5112C39.5678 22.0258 39.1742 21.6323 38.6889 21.6323C38.2035 21.6323 37.81 22.0258 37.81 22.5112V24.2183C37.81 24.7024 37.4161 25.0961 36.932 25.0961C36.4479 25.0961 36.0541 24.7024 36.0541 24.2183V19.8193C36.0541 19.7935 36.0524 19.7681 36.0502 19.7429V16.0232C36.0502 15.5378 35.6566 15.1443 35.1713 15.1443C34.686 15.1443 34.2924 15.5378 34.2924 16.0232V21.6211H27.3984V19.8193C27.3984 19.7935 27.3968 19.7681 27.3946 19.7429V16.0232C27.3946 15.5378 27.001 15.1443 26.5156 15.1443C26.0303 15.1443 25.6367 15.5378 25.6367 16.0232V24.2925C25.5979 24.742 25.2201 25.0961 24.7607 25.0961C24.2756 25.0961 23.8809 24.7014 23.8809 24.2162V13.4752C23.8809 11.3088 25.6434 9.54624 27.8098 9.54624H33.8808C36.0473 9.54624 37.8099 11.3088 37.8099 13.4752V15.4688C37.8099 15.9541 38.2034 16.3477 38.6888 16.3477C39.1741 16.3477 39.5677 15.9541 39.5677 15.4688V13.4752C39.5677 10.4835 37.2451 8.02591 34.3087 7.80618C34.853 7.08091 35.1761 6.18038 35.1761 5.20576V4.34039C35.1761 1.94713 33.229 0 30.8357 0C28.4423 0 26.4953 1.94713 26.4953 4.34048V5.20585C26.4953 6.18108 26.8187 7.08214 27.3638 7.80768C24.436 8.03619 22.123 10.4898 22.123 13.4753V24.2163C22.123 25.6707 23.3063 26.854 24.7607 26.854C25.0677 26.854 25.3624 26.8008 25.6367 26.7039V41.9573C25.6367 43.6351 27.0017 45.0001 28.6795 45.0001C29.5254 45.0001 30.2914 44.6529 30.8435 44.0939C31.3954 44.6529 32.1615 45.0001 33.0073 45.0001C34.6852 45.0001 36.0501 43.6351 36.0501 41.9573V35.9946H43.6203C44.1057 35.9946 44.4992 35.6011 44.4992 35.1157V25.9751C44.4992 25.4897 44.1057 25.0961 43.6203 25.0961ZM28.2532 4.34048C28.2532 2.91639 29.4117 1.75781 30.8357 1.75781C32.2598 1.75781 33.4184 2.91639 33.4184 4.34048V5.20585C33.4184 6.62994 32.2598 7.78852 30.8357 7.78852C29.4117 7.78852 28.2532 6.62994 28.2532 5.20585V4.34048ZM42.7414 28.8281H38.0891C37.9987 28.4389 37.6504 28.1486 37.2338 28.1486C36.8172 28.1486 36.4689 28.4389 36.3786 28.8281H31.7263V26.8539H42.7414V28.8281ZM28.6795 43.2422C27.9709 43.2422 27.3946 42.6657 27.3946 41.9572V24.3574C27.397 24.3106 27.3984 24.2636 27.3984 24.2163V23.3789H34.2924V25.0961H30.8474C30.3621 25.0961 29.9685 25.4897 29.9685 25.975L29.9647 41.9572C29.9646 42.6657 29.3882 43.2422 28.6795 43.2422ZM34.2924 41.9572C34.2924 42.6658 33.7159 43.2422 33.0074 43.2422C32.2989 43.2422 31.7225 42.6657 31.7225 41.9572V35.9945H34.2924V41.9572ZM31.7263 34.2367V30.5859H36.3786C36.469 30.975 36.8172 31.2653 37.2338 31.2653C37.6504 31.2653 37.9987 30.975 38.0891 30.5859H42.7414V34.2367H31.7263Z" fill="white"/>
</g>
<defs>
<clipPath id="clip0">
<rect width="45" height="45" fill="white"/>
</clipPath>
</defs>
</svg>
