<svg width="50" height="50" viewBox="0 0 50 50" fill="none" xmlns="http://www.w3.org/2000/svg">
<path d="M43.5484 12.4294V8.34959C43.5484 7.90423 43.1873 7.54314 42.7419 7.54314H41.129V3.51088H43.5484C43.7623 3.51088 43.9673 3.4258 44.1185 3.27459L45.7315 1.66168L44.5911 0.521362L43.2145 1.89798H30.6452C30.4312 1.89798 30.2262 1.98306 30.075 2.13427L28.4621 3.74717L29.6024 4.88749L30.979 3.51088H36.2903V7.54314H34.6774C34.2321 7.54314 33.871 7.90423 33.871 8.34959V12.4294C30.2002 12.8435 27.4244 15.9459 27.4194 19.6399V23.6722H23.7452C24.0354 23.184 24.1902 22.6272 24.1935 22.0593C24.1935 20.2777 22.7493 18.8335 20.9677 18.8335H9.67742C9.46351 18.8335 9.25847 18.9185 9.10726 19.0698L5.31129 22.8657H0.806452C0.361089 22.8657 0 23.2268 0 23.6722V39.8012C0 40.2466 0.361089 40.6077 0.806452 40.6077H5.31129L9.10726 44.4036C9.25847 44.5548 9.46351 44.6399 9.67742 44.6399H27.4194V48.6722C27.4194 49.1175 27.7804 49.4786 28.2258 49.4786H49.1936C49.6389 49.4786 50 49.1175 50 48.6722V19.6399C49.995 15.9459 47.2192 12.8435 43.5484 12.4294ZM4.83871 38.9948H1.6129V24.4786H4.83871V38.9948ZM37.9032 3.51088H39.5161V7.54314H37.9032V3.51088ZM35.4839 9.15604H41.9355V12.3818H35.4839V9.15604ZM10.0113 43.027L6.45161 39.4673V24.006L10.0113 20.4464H20.9677C21.8586 20.4464 22.5806 21.1684 22.5806 22.0593C22.5806 22.9501 21.8586 23.6722 20.9677 23.6722H17.7419V25.2851H33.0645C33.9553 25.2851 34.6774 26.0072 34.6774 26.898C34.6774 27.7888 33.9553 28.5109 33.0645 28.5109H23.3871V30.1238H37.0968C37.9876 30.1238 38.7097 30.8459 38.7097 31.7367C38.7097 32.6275 37.9876 33.3496 37.0968 33.3496H23.3871V34.9625H35.4839C36.3747 34.9625 37.0968 35.6846 37.0968 36.5754C37.0968 37.4662 36.3747 38.1883 35.4839 38.1883H23.3871V39.8012H30.6452C31.536 39.8012 32.2581 40.5233 32.2581 41.4141C32.2581 42.3049 31.536 43.027 30.6452 43.027H10.0113ZM48.3871 47.8657H29.0323V44.6399H30.6452C32.4267 44.6399 33.871 43.1957 33.871 41.4141C33.8676 40.8462 33.7128 40.2894 33.4226 39.8012H35.4839C37.2654 39.8005 38.7091 38.3556 38.7084 36.5741C38.7081 35.931 38.5156 35.3027 38.1556 34.7698C39.8352 34.1891 40.7261 32.3568 40.1455 30.6772C39.6963 29.378 38.4715 28.5077 37.0968 28.5109H35.8419C36.1322 28.0227 36.287 27.4659 36.2903 26.898C36.2903 25.1164 34.8461 23.6722 33.0645 23.6722H29.0323V19.6399C29.0358 16.5237 31.5612 13.9983 34.6774 13.9948H42.7419C45.8582 13.9983 48.3836 16.5237 48.3871 19.6399V47.8657Z" fill="white"/>
<path d="M42.7422 15.6075V17.2204C44.0784 17.2204 45.1615 18.3036 45.1615 19.6398V26.0914H46.7744V19.6398C46.7718 17.414 44.968 15.6102 42.7422 15.6075Z" fill="white"/>
<path d="M37.0971 41.4139C35.7609 41.4139 34.6777 42.4971 34.6777 43.8333C34.6777 45.1695 35.7609 46.2526 37.0971 46.2526C38.4333 46.2526 39.5164 45.1695 39.5164 43.8333C39.5164 42.4971 38.4333 41.4139 37.0971 41.4139ZM37.0971 44.6397C36.6517 44.6397 36.2906 44.2787 36.2906 43.8333C36.2906 43.3879 36.6517 43.0268 37.0971 43.0268C37.5425 43.0268 37.9035 43.3879 37.9035 43.8333C37.9035 44.2787 37.5425 44.6397 37.0971 44.6397Z" fill="white"/>
<path d="M43.5481 36.5753C41.7665 36.5753 40.3223 38.0196 40.3223 39.8011C40.3223 41.5827 41.7665 43.0269 43.5481 43.0269C45.3296 43.0269 46.7739 41.5827 46.7739 39.8011C46.7739 38.0196 45.3296 36.5753 43.5481 36.5753ZM43.5481 41.414C42.6572 41.414 41.9352 40.692 41.9352 39.8011C41.9352 38.9103 42.6572 38.1882 43.5481 38.1882C44.4389 38.1882 45.161 38.9103 45.161 39.8011C45.161 40.692 44.4389 41.414 43.5481 41.414Z" fill="white"/>
<path d="M11.1399 15.2753C11.9554 16.0106 13.0153 16.4165 14.1134 16.4141C15.214 16.4172 16.2754 16.0054 17.086 15.2608C17.9919 16.4976 19.4351 17.2262 20.9682 17.2205C23.6353 17.2245 25.8005 15.0657 25.8044 12.3986C25.8067 10.8403 25.0569 9.37667 23.7908 8.4681C24.0554 7.92919 24.1934 7.33695 24.194 6.73665C24.1914 4.51084 22.3876 2.70701 20.1618 2.70439C19.5614 2.70459 18.969 2.8425 18.4303 3.10762C16.8754 0.940783 13.8583 0.444715 11.6915 1.99965C10.4254 2.90822 9.67559 4.37183 9.67791 5.9302C9.67851 7.06407 10.0821 8.16074 10.8166 9.02455C9.17982 10.8399 9.32448 13.6385 11.1399 15.2753ZM12.6439 8.57435C12.6029 8.5176 12.5547 8.46639 12.5005 8.42213C11.1183 7.30863 10.9005 5.28554 12.014 3.90338C13.1275 2.52123 15.1506 2.30338 16.5327 3.41689C16.9172 3.72667 17.2252 4.12092 17.4327 4.56891C17.622 4.97213 18.1022 5.14562 18.5054 4.95631C18.5629 4.92929 18.617 4.89562 18.6666 4.85601C19.0888 4.51074 19.6164 4.32062 20.1618 4.3173C21.498 4.3173 22.5811 5.40046 22.5811 6.73665C22.5783 7.28353 22.3882 7.81296 22.0424 8.23665C21.7645 8.58473 21.8214 9.09209 22.1693 9.37002C22.2186 9.40943 22.2724 9.4428 22.3295 9.46972C23.9413 10.2192 24.6404 12.1334 23.8909 13.7452C23.1414 15.357 21.2272 16.0561 19.6154 15.3066C18.8585 14.9546 18.2678 14.3223 17.9683 13.5431C17.857 13.256 17.592 13.0573 17.2853 13.031C17.2624 13.0298 17.2396 13.0298 17.2167 13.031C16.9332 13.0309 16.6705 13.1798 16.5248 13.4229C16.0222 14.2773 15.1047 14.8017 14.1135 14.8012C12.5546 14.8012 11.2909 13.5375 11.2909 11.9786C11.2895 11.0743 11.7262 10.2252 12.4627 9.70036C12.8236 9.43947 12.9048 8.93544 12.6439 8.57435Z" fill="white"/>
<path d="M5.64592 5.93026C6.98211 5.93026 8.06527 4.8471 8.06527 3.51091C8.06527 2.17472 6.98211 1.09155 5.64592 1.09155C4.30973 1.09155 3.22656 2.17472 3.22656 3.51091C3.22656 4.8471 4.30973 5.93026 5.64592 5.93026ZM5.64592 2.70446C6.09128 2.70446 6.45237 3.06554 6.45237 3.51091C6.45237 3.95627 6.09128 4.31736 5.64592 4.31736C5.20055 4.31736 4.83947 3.95627 4.83947 3.51091C4.83947 3.06554 5.20055 2.70446 5.64592 2.70446Z" fill="white"/>
</svg>
