<svg width="47" height="49" viewBox="0 0 47 49" fill="none" xmlns="http://www.w3.org/2000/svg">
<path d="M25.7812 9.32661V4.4686C25.7812 4.25387 25.6989 4.04792 25.5524 3.89608C25.4059 3.74424 25.2072 3.65894 25 3.65894H7.8125C7.6053 3.65894 7.40659 3.74424 7.26007 3.89608C7.11356 4.04792 7.03125 4.25387 7.03125 4.4686V9.32661C7.03125 9.54135 7.11356 9.74729 7.26007 9.89913C7.40659 10.051 7.6053 10.1363 7.8125 10.1363H25C25.2072 10.1363 25.4059 10.051 25.5524 9.89913C25.6989 9.74729 25.7812 9.54135 25.7812 9.32661ZM24.2188 8.51694H8.59375V5.27827H24.2188V8.51694Z" fill="white"/>
<path d="M3.90625 13.3748V23.0908C3.90625 23.3055 3.98856 23.5114 4.13507 23.6633C4.28159 23.8151 4.4803 23.9004 4.6875 23.9004H14.0625C14.2697 23.9004 14.4684 23.8151 14.6149 23.6633C14.7614 23.5114 14.8438 23.3055 14.8438 23.0908V18.4287L13.2812 20.0481V22.2811H5.46875V14.1845H12.3109L13.8734 12.5652H4.6875C4.4803 12.5652 4.28159 12.6505 4.13507 12.8023C3.98856 12.9542 3.90625 13.1601 3.90625 13.3748Z" fill="white"/>
<path d="M15.8536 12.8025L10.1559 18.7073L8.36446 16.8508L7.25977 17.9956L9.60353 20.4246C9.75003 20.5764 9.94871 20.6616 10.1559 20.6616C10.363 20.6616 10.5617 20.5764 10.7082 20.4246L16.9583 13.9473L15.8536 12.8025Z" fill="white"/>
<path d="M3.90625 36.8549C3.90625 37.0697 3.98856 37.2756 4.13507 37.4274C4.28159 37.5793 4.4803 37.6646 4.6875 37.6646H14.0625C14.2697 37.6646 14.4684 37.5793 14.6149 37.4274C14.7614 37.2756 14.8438 37.0697 14.8438 36.8549V32.1929L13.2812 33.8122V36.0453H5.46875V27.9487H12.3109L13.8734 26.3293H4.6875C4.4803 26.3293 4.28159 26.4146 4.13507 26.5665C3.98856 26.7183 3.90625 26.9243 3.90625 27.139V36.8549Z" fill="white"/>
<path d="M8.36446 30.6149L7.25977 31.7598L9.60353 34.1888C9.75003 34.3405 9.94871 34.4258 10.1559 34.4258C10.363 34.4258 10.5617 34.3405 10.7082 34.1888L16.9583 27.7115L15.8536 26.5667L10.1559 32.4715L8.36446 30.6149Z" fill="white"/>
<path d="M18.75 18.2327H28.9062V19.8519H18.75V18.2327Z" fill="white"/>
<path d="M18.75 14.1846H28.9062V15.804H18.75V14.1846Z" fill="white"/>
<path d="M18.75 27.9485H23.4375V29.5679H18.75V27.9485Z" fill="white"/>
<path d="M18.75 31.9971H23.4375V33.6163H18.75V31.9971Z" fill="white"/>
<path d="M1.5625 47.3807V2.03949H31.25V19.3307C31.7771 19.1396 32.2979 18.931 32.8125 18.7048V1.22983C32.8125 1.01509 32.7302 0.809152 32.5837 0.657311C32.4372 0.50547 32.2384 0.420166 32.0312 0.420166H0.78125C0.57405 0.420166 0.375336 0.50547 0.228823 0.657311C0.08231 0.809152 0 1.01509 0 1.22983V48.1903C0 48.4051 0.08231 48.611 0.228823 48.7629C0.375336 48.9147 0.57405 49 0.78125 49H32.0312C32.1135 48.9967 32.1948 48.9797 32.2719 48.9498C31.5345 48.4773 30.8292 47.9531 30.1609 47.3807H1.5625Z" fill="white"/>
<path d="M46.1789 22.286C42.724 21.8978 39.3725 20.8291 36.3047 19.1372C36.1917 19.0749 36.0656 19.0422 35.9375 19.0422C35.8094 19.0422 35.6833 19.0749 35.5703 19.1372C32.5025 20.8291 29.151 21.8978 25.6961 22.286C25.5048 22.3077 25.328 22.4019 25.1995 22.5504C25.0711 22.6989 25 22.8913 25 23.0908V32.6812C25.0216 36.1776 26.0438 39.5887 27.9373 42.4826C29.8308 45.3765 32.5104 47.623 35.6367 48.9375C35.732 48.9787 35.8342 48.9999 35.9375 48.9999C36.0408 48.9999 36.143 48.9787 36.2383 48.9375C39.3646 47.623 42.0442 45.3765 43.9377 42.4826C45.8312 39.5887 46.8534 36.1776 46.875 32.6812V23.0908C46.875 22.8913 46.8039 22.6989 46.6755 22.5504C46.547 22.4019 46.3702 22.3077 46.1789 22.286ZM45.3125 32.6812C45.2916 35.8001 44.3937 38.845 42.7285 41.4432C41.0634 44.0413 38.7034 46.0799 35.9375 47.3092C33.1716 46.0799 30.8116 44.0413 29.1465 41.4432C27.4813 38.845 26.5834 35.8001 26.5625 32.6812V23.8073C29.8324 23.3573 33.0035 22.3286 35.9375 20.7663C38.8715 22.3287 42.0425 23.3574 45.3125 23.8073V32.6812Z" fill="white"/>
<path d="M29.4582 32.2342L28.3535 33.379L33.041 38.237C33.1875 38.3888 33.3862 38.474 33.5934 38.474C33.8005 38.474 33.9992 38.3888 34.1457 38.237L43.5208 28.5211L42.4161 27.3762L33.5934 36.5197L29.4582 32.2342Z" fill="white"/>
<path d="M17.9688 43.3323H23.4375V44.9515H17.9688V43.3323Z" fill="white"/>
<path d="M10.9375 40.0935H23.4375V41.713H10.9375V40.0935Z" fill="white"/>
</svg>
