<svg width="58" height="58" viewBox="0 0 58 58" fill="none" xmlns="http://www.w3.org/2000/svg">
<path d="M21.5154 12.1612C23.0654 12.1612 24.3219 10.9048 24.3219 9.35479C24.3219 7.80481 23.0654 6.54834 21.5154 6.54834C19.9655 6.54834 18.709 7.80481 18.709 9.35479C18.709 10.9048 19.9655 12.1612 21.5154 12.1612ZM21.5154 8.41931C22.0321 8.41931 22.4509 8.83817 22.4509 9.35479C22.4509 9.87141 22.0321 10.2903 21.5154 10.2903C20.9988 10.2903 20.58 9.87141 20.58 9.35479C20.58 8.83817 20.9988 8.41931 21.5154 8.41931Z" fill="white"/>
<path d="M38.3552 11.2258C40.9384 11.2258 43.0326 9.13161 43.0326 6.54839C43.0326 3.96517 40.9384 1.87097 38.3552 1.87097C35.7719 1.87097 33.6777 3.96517 33.6777 6.54839C33.6808 9.13033 35.7732 11.2228 38.3552 11.2258ZM38.3552 3.74194C39.9051 3.74194 41.1616 4.99841 41.1616 6.54839C41.1616 8.09837 39.9051 9.35484 38.3552 9.35484C36.8052 9.35484 35.5487 8.09837 35.5487 6.54839C35.5487 4.99841 36.8052 3.74194 38.3552 3.74194Z" fill="white"/>
<path d="M19.6443 42.0968C18.0943 42.0968 16.8379 40.8404 16.8379 39.2904H14.9669C14.9669 40.3237 14.1293 41.1613 13.0959 41.1613C12.0626 41.1613 11.225 40.3237 11.225 39.2904C11.225 38.257 12.0626 37.4194 13.0959 37.4194V37.3446C13.4056 37.3918 13.7181 37.4168 14.0314 37.4194V35.5484C11.4482 35.5484 9.35399 33.4542 9.35399 30.871C9.35399 28.2878 11.4482 26.1936 14.0314 26.1936V24.3226C10.4185 24.3219 7.48898 27.2502 7.48828 30.8632C7.48781 33.1613 8.69318 35.2911 10.6637 36.4736C9.09345 37.8077 8.90203 40.1621 10.236 41.7323C11.57 43.3025 13.9245 43.494 15.4947 42.16C15.5913 42.0779 15.6837 41.991 15.7714 41.8996C17.2199 44.0385 20.1281 44.5982 22.2671 43.1497C23.5481 42.2822 24.3172 40.8374 24.3217 39.2904H22.4508C22.4508 40.8404 21.1943 42.0968 19.6443 42.0968Z" fill="white"/>
<path d="M51.4521 30.871C51.449 28.2891 49.3566 26.1966 46.7746 26.1936V28.0646C48.3246 28.0646 49.5811 29.321 49.5811 30.871C49.5811 32.421 48.3246 33.6775 46.7746 33.6775V35.5484C47.808 35.5484 48.6456 36.386 48.6456 37.4194C48.6456 38.4528 47.808 39.2904 46.7746 39.2904C45.7413 39.2904 44.9037 38.4528 44.9037 37.4194H43.0327C43.0327 38.9694 41.7762 40.2258 40.2262 40.2258C38.6763 40.2258 37.4198 38.9694 37.4198 37.4194H35.5488C35.5505 40.0026 37.6461 42.0954 40.2293 42.0938C41.783 42.0927 43.2349 41.3202 44.1038 40.0322C45.5461 41.5079 47.9117 41.535 49.3874 40.0927C50.8632 38.6503 50.8903 36.2848 49.4479 34.809C49.428 34.7887 49.4078 34.7685 49.3874 34.7486C50.6776 33.8798 51.4514 32.4264 51.4521 30.871Z" fill="white"/>
<path d="M10.2908 23.3871C11.8408 23.3871 13.0973 22.1306 13.0973 20.5806C13.0973 19.0306 11.8408 17.7742 10.2908 17.7742C8.74085 17.7742 7.48438 19.0306 7.48438 20.5806C7.48438 22.1306 8.74085 23.3871 10.2908 23.3871ZM10.2908 19.6451C10.8074 19.6451 11.2263 20.064 11.2263 20.5806C11.2263 21.0972 10.8074 21.5161 10.2908 21.5161C9.77421 21.5161 9.35534 21.0972 9.35534 20.5806C9.35534 20.064 9.77421 19.6451 10.2908 19.6451Z" fill="white"/>
<path d="M3.74194 33.6774C1.67533 33.6774 0 35.3527 0 37.4193C0 39.4859 1.67533 41.1612 3.74194 41.1612C5.80854 41.1612 7.48387 39.4859 7.48387 37.4193C7.48387 35.3527 5.80854 33.6774 3.74194 33.6774ZM3.74194 39.2903C2.70858 39.2903 1.87097 38.4527 1.87097 37.4193C1.87097 36.3859 2.70858 35.5483 3.74194 35.5483C4.77529 35.5483 5.6129 36.3859 5.6129 37.4193C5.6129 38.4527 4.77529 39.2903 3.74194 39.2903Z" fill="white"/>
<path d="M46.7733 24.3226C48.3232 24.3226 49.5797 23.0661 49.5797 21.5162C49.5797 19.9662 48.3232 18.7097 46.7733 18.7097C45.2233 18.7097 43.9668 19.9662 43.9668 21.5162C43.9668 23.0661 45.2233 24.3226 46.7733 24.3226ZM46.7733 20.5807C47.2899 20.5807 47.7087 20.9995 47.7087 21.5162C47.7087 22.0328 47.2899 22.4517 46.7733 22.4517C46.2566 22.4517 45.8378 22.0328 45.8378 21.5162C45.8378 20.9995 46.2566 20.5807 46.7733 20.5807Z" fill="white"/>
<path d="M54.2576 14.0322C52.191 14.0322 50.5156 15.7076 50.5156 17.7742C50.5156 19.8408 52.191 21.5161 54.2576 21.5161C56.3242 21.5161 57.9995 19.8408 57.9995 17.7742C57.9995 15.7076 56.3242 14.0322 54.2576 14.0322ZM54.2576 19.6451C53.2242 19.6451 52.3866 18.8075 52.3866 17.7742C52.3866 16.7408 53.2242 15.9032 54.2576 15.9032C55.2909 15.9032 56.1285 16.7408 56.1285 17.7742C56.1285 18.8075 55.2909 19.6451 54.2576 19.6451Z" fill="white"/>
<path d="M41.1604 33.6775C41.677 33.6775 42.0959 33.2586 42.0959 32.742V23.3871C42.0959 22.8705 41.677 22.4517 41.1604 22.4517H16.8378C16.3212 22.4517 15.9023 22.8705 15.9023 23.3871V32.742C15.9023 33.2586 16.3212 33.6775 16.8378 33.6775H22.9989L26.1927 36.8712V53.3226C26.1927 54.8726 27.4491 56.1291 28.9991 56.1291C30.5491 56.1291 31.8056 54.8726 31.8056 53.3226V36.8712L34.9993 33.6775H41.1604ZM17.7733 24.3226H40.2249V26.1936H17.7733V24.3226ZM19.6443 31.8065H17.7733V28.0646H19.6443V31.8065ZM21.5152 31.8065V28.0646H40.2249V31.8065H21.5152ZM28.9991 54.2581C28.4825 54.2581 28.0636 53.8392 28.0636 53.3226C28.0636 52.806 28.4825 52.3871 28.9991 52.3871C29.5157 52.3871 29.9346 52.806 29.9346 53.3226C29.9346 53.8392 29.5157 54.2581 28.9991 54.2581ZM29.9346 50.6883C29.332 50.4588 28.6662 50.4588 28.0636 50.6883V37.4194H29.9346V50.6883ZM30.4828 35.5484H27.5154L25.6445 33.6775H32.3538L30.4828 35.5484Z" fill="white"/>
<path d="M19.6443 15.9032C21.1942 15.9032 22.4507 17.1597 22.4507 18.7096H24.3217C24.3217 16.1264 26.4159 14.0322 28.9991 14.0322C31.5823 14.0322 33.6765 16.1264 33.6765 18.7096H35.5475C35.5475 17.1597 36.804 15.9032 38.354 15.9032C39.9039 15.9032 41.1604 17.1597 41.1604 18.7096H43.0314C43.0427 16.1378 40.967 14.0437 38.3952 14.0322C37.0112 14.0261 35.6961 14.636 34.8066 15.6964C33.1479 12.489 29.2032 11.2336 25.9959 12.8922C24.7934 13.5141 23.8135 14.4939 23.1916 15.6964C21.5389 13.7259 18.6016 13.4682 16.6311 15.1211C15.5706 16.0105 14.9608 17.3256 14.9668 18.7096H16.8378C16.8378 17.1597 18.0943 15.9032 19.6443 15.9032Z" fill="white"/>
<path d="M37.1402 45.1766L35.2695 43.3059L33.9466 44.6289L35.8172 46.4995L37.1402 45.1766Z" fill="white"/>
<path d="M37.6938 48.3721L39.5645 50.2428L40.8874 48.9198L39.0167 47.0492L37.6938 48.3721Z" fill="white"/>
<path d="M37.6966 45.1773L39.0195 46.5002L40.8902 44.6296L39.5672 43.3066L37.6966 45.1773Z" fill="white"/>
<path d="M33.9544 48.9191L35.2773 50.2421L37.148 48.3714L35.825 47.0484L33.9544 48.9191Z" fill="white"/>
</svg>
