<svg width="50" height="50" viewBox="0 0 50 50" fill="none" xmlns="http://www.w3.org/2000/svg">
<path d="M43.75 33.5938C43.4932 33.5938 43.2412 33.6982 43.0596 33.8799C42.8779 34.0615 42.7734 34.3135 42.7734 34.5703C42.7734 34.8281 42.8779 35.0791 43.0596 35.2607C43.2412 35.4424 43.4932 35.5469 43.75 35.5469C44.0068 35.5469 44.2588 35.4424 44.4404 35.2607C44.6221 35.0791 44.7266 34.8271 44.7266 34.5703C44.7266 34.3135 44.6221 34.0615 44.4404 33.8799C44.2588 33.6982 44.0068 33.5938 43.75 33.5938Z" fill="white"/>
<path d="M16.3633 38.8672C16.1064 38.8672 15.8545 38.9717 15.6729 39.1533C15.4912 39.335 15.3867 39.5869 15.3867 39.8438C15.3867 40.1006 15.4912 40.3525 15.6729 40.5342C15.8545 40.7158 16.1064 40.8203 16.3633 40.8203C16.6201 40.8203 16.8721 40.7158 17.0537 40.5342C17.2354 40.3525 17.3398 40.1006 17.3398 39.8438C17.3398 39.5869 17.2354 39.335 17.0537 39.1533C16.8721 38.9717 16.6201 38.8672 16.3633 38.8672Z" fill="white"/>
<path d="M33.4922 22.9807L29.5768 22.1245C31.1854 20.99 32.2393 19.119 32.2393 17.0054V14.7605V13.722V13.4883C32.2393 10.0355 29.4303 7.22656 25.9775 7.22656C22.5248 7.22656 19.7158 10.0355 19.7158 13.4883V13.722V14.7605V17.0054C19.7158 19.1165 20.7671 20.9856 22.3726 22.1204L18.4592 22.9789C15.9637 23.5264 14.1523 25.778 14.1523 28.3329V32.6208C14.1523 33.1602 14.5896 33.5974 15.1289 33.5974H36.8261C37.3654 33.5974 37.8026 33.1602 37.8026 32.6208V28.3354C37.8026 25.7788 35.9898 23.5269 33.4922 22.9807ZM21.6689 13.4883C21.6689 11.1125 23.6018 9.17969 25.9775 9.17969C28.2022 9.17969 30.0385 10.8744 30.2631 13.0406L28.2218 11.8414C27.8104 11.5997 27.285 11.6906 26.9786 12.0562C26.0585 13.1542 24.7091 13.784 23.2765 13.784H21.6689V13.722V13.4883ZM21.6689 15.7371H23.2765C25.0073 15.7371 26.6518 15.0824 27.9002 13.9177L30.2861 15.3194V17.0054C30.2861 19.3812 28.3533 21.314 25.9775 21.314C23.6018 21.314 21.6689 19.3812 21.6689 17.0054V15.7371ZM27.2925 23.1271L25.9638 26.2494L24.6321 23.1199C25.0658 23.2153 25.5156 23.2671 25.9775 23.2671C26.4286 23.2671 26.8682 23.2181 27.2925 23.1271ZM35.8495 31.6442H16.1056V28.3329C16.1056 26.6884 17.2714 25.2391 18.8777 24.8866L22.887 24.0071L25.0651 29.1259C25.2185 29.4861 25.5722 29.72 25.9638 29.72C26.3553 29.72 26.7091 29.4861 26.8624 29.1259L29.0408 24.0066L33.075 24.8888C34.6827 25.2403 35.8496 26.6898 35.8496 28.3355V31.6442H35.8495Z" fill="white"/>
<path d="M35.5479 38.8672H20.2715C19.7321 38.8672 19.2949 39.3044 19.2949 39.8438C19.2949 40.3831 19.7321 40.8203 20.2715 40.8203H35.5479C36.0873 40.8203 36.5245 40.3831 36.5245 39.8438C36.5245 39.3044 36.0873 38.8672 35.5479 38.8672Z" fill="white"/>
<path d="M45.1172 0H39.8438H14.0625H8.78906C6.09668 0 3.90625 2.19043 3.90625 4.88281V7.22656H2.92969C1.31426 7.22656 0 8.54082 0 10.1562C0 11.7717 1.31426 13.0859 2.92969 13.0859H3.90625V22.0703H2.92969C1.31426 22.0703 0 23.3846 0 25C0 26.6154 1.31426 27.9297 2.92969 27.9297H3.90625V36.9141H2.92969C1.31426 36.9141 0 38.2283 0 39.8438C0 41.4592 1.31426 42.7734 2.92969 42.7734H3.90625V45.1172C3.90625 47.8096 6.09668 50 8.78906 50H14.0625H39.8438H45.1172C47.8096 50 50 47.8096 50 45.1172V4.88281C50 2.19043 47.8096 0 45.1172 0ZM1.95312 10.1562C1.95312 9.61777 2.39121 9.17969 2.92969 9.17969H6.83594C7.37441 9.17969 7.8125 9.61777 7.8125 10.1562C7.8125 10.6947 7.37441 11.1328 6.83594 11.1328H2.92969C2.39121 11.1328 1.95312 10.6947 1.95312 10.1562ZM1.95312 25C1.95312 24.4615 2.39121 24.0234 2.92969 24.0234H6.83594C7.37441 24.0234 7.8125 24.4615 7.8125 25C7.8125 25.5385 7.37441 25.9766 6.83594 25.9766H2.92969C2.39121 25.9766 1.95312 25.5385 1.95312 25ZM1.95312 39.8438C1.95312 39.3053 2.39121 38.8672 2.92969 38.8672H6.83594C7.37441 38.8672 7.8125 39.3053 7.8125 39.8438C7.8125 40.3822 7.37441 40.8203 6.83594 40.8203H2.92969C2.39121 40.8203 1.95312 40.3822 1.95312 39.8438ZM48.0469 45.1172C48.0469 46.7326 46.7326 48.0469 45.1172 48.0469H43.7474C44.3618 47.2302 44.7266 46.2155 44.7266 45.1172V38.5182C44.7266 37.9788 44.2894 37.5416 43.75 37.5416C43.2106 37.5416 42.7734 37.9788 42.7734 38.5182V45.1172C42.7734 46.7326 41.4592 48.0469 39.8438 48.0469H14.0625H8.78906C7.17363 48.0469 5.85938 46.7326 5.85938 45.1172V42.7734H6.83594C8.45137 42.7734 9.76562 41.4592 9.76562 39.8438C9.76562 38.2283 8.45137 36.9141 6.83594 36.9141H5.85938V27.9297H6.83594C8.45137 27.9297 9.76562 26.6154 9.76562 25C9.76562 23.3846 8.45137 22.0703 6.83594 22.0703H5.85938V13.0859H6.83594C8.45137 13.0859 9.76562 11.7717 9.76562 10.1562C9.76562 8.54082 8.45137 7.22656 6.83594 7.22656H5.85938V4.88281C5.85938 3.26738 7.17363 1.95312 8.78906 1.95312H14.0625H39.8438C41.4592 1.95312 42.7734 3.26738 42.7734 4.88281V30.6641C42.7734 31.2034 43.2106 31.6406 43.75 31.6406C44.2894 31.6406 44.7266 31.2034 44.7266 30.6641V4.88281C44.7266 3.78447 44.3618 2.76982 43.7474 1.95312H45.1172C46.7326 1.95312 48.0469 3.26738 48.0469 4.88281V45.1172Z" fill="white"/>
</svg>
