<svg width="36" height="36" viewBox="0 0 36 36" fill="none" xmlns="http://www.w3.org/2000/svg">
<g clip-path="url(#clip0)">
<path d="M25.2905 28.7507L21.9494 25.4096C20.9855 24.4457 19.4169 24.4458 18.4531 25.4096L16.9853 26.8775C13.6328 25.1219 10.8778 22.3669 9.12225 19.0144L10.5902 17.5465C11.554 16.5826 11.554 15.0141 10.5902 14.0502L7.24919 10.7093C6.28528 9.74535 4.71682 9.74535 3.7529 10.7093L1.08012 13.3821C-0.316431 14.7786 -0.360095 17.2405 0.957139 20.314C2.14458 23.0848 4.32398 26.1361 7.0938 28.9059C9.86362 31.6757 12.915 33.8552 15.6857 35.0426C17.1754 35.681 18.5213 35.9998 19.6719 35.9998C20.8952 35.9998 21.898 35.6393 22.6176 34.9197L25.2904 32.2469C25.7574 31.78 26.0145 31.1591 26.0145 30.4987C26.0146 29.8385 25.7574 29.2176 25.2905 28.7507ZM23.7986 30.7552L21.1259 33.428C20.4022 34.1516 18.6793 34.0304 16.5167 33.1037C13.9867 32.0194 11.17 29.9989 8.58541 27.4142C6.00086 24.8296 3.98029 22.013 2.89601 19.4831C1.96929 17.3206 1.84793 15.5975 2.57165 14.8739L5.24444 12.2011C5.38591 12.0597 5.61597 12.0597 5.75737 12.2011L9.09834 15.5421C9.23974 15.6835 9.23974 15.9136 9.09834 16.0549L6.56815 18.5852L6.88638 19.2569C8.92938 23.5699 12.4298 27.0704 16.7429 29.1134L17.4146 29.4316L19.9448 26.9014C20.0372 26.809 20.1452 26.7951 20.2012 26.7951C20.2573 26.7951 20.3652 26.8089 20.4576 26.9013L23.7986 30.2423C23.891 30.3347 23.9048 30.4426 23.9048 30.4987C23.905 30.5549 23.891 30.6628 23.7986 30.7552Z" fill="#1B975B"/>
<path d="M32.7485 2.72545C30.698 0.967922 27.982 0 25.1007 0C22.2195 0 19.5034 0.967922 17.453 2.72545C15.3561 4.52285 14.2012 6.92634 14.2012 9.49317C14.2012 12.06 15.3561 14.4634 17.453 16.2609C17.8288 16.5829 18.2271 16.8783 18.6445 17.1462C17.8737 18.3075 16.9727 19.375 15.9592 20.3245C18.1698 20.1417 20.2659 19.5559 22.1751 18.6422C23.1163 18.8689 24.0985 18.9863 25.1007 18.9863C27.982 18.9863 30.698 18.0184 32.7485 16.2609C34.8455 14.4636 36.0004 12.06 36.0004 9.49317C36.0004 6.92634 34.8455 4.52292 32.7485 2.72545ZM25.1007 16.8768C20.254 16.8768 16.3108 13.5645 16.3108 9.49317C16.3108 5.42187 20.254 2.10959 25.1007 2.10959C29.9475 2.10959 33.8907 5.42187 33.8907 9.49317C33.8908 13.5645 29.9475 16.8768 25.1007 16.8768Z" fill="#1B975B"/>
<path d="M25.0998 10.8992C25.8765 10.8992 26.5061 10.2695 26.5061 9.49282C26.5061 8.71609 25.8765 8.08643 25.0998 8.08643C24.323 8.08643 23.6934 8.71609 23.6934 9.49282C23.6934 10.2695 24.323 10.8992 25.0998 10.8992Z" fill="#1B975B"/>
<path d="M20.1779 10.8992C20.9546 10.8992 21.5843 10.2695 21.5843 9.49282C21.5843 8.71609 20.9546 8.08643 20.1779 8.08643C19.4011 8.08643 18.7715 8.71609 18.7715 9.49282C18.7715 10.2695 19.4011 10.8992 20.1779 10.8992Z" fill="#1B975B"/>
<path d="M30.0236 10.8992C30.8003 10.8992 31.43 10.2695 31.43 9.49282C31.43 8.71609 30.8003 8.08643 30.0236 8.08643C29.2468 8.08643 28.6172 8.71609 28.6172 9.49282C28.6172 10.2695 29.2468 10.8992 30.0236 10.8992Z" fill="#1B975B"/>
</g>
<defs>
<clipPath id="clip0">
<rect width="36" height="36" fill="white"/>
</clipPath>
</defs>
</svg>
