<svg width="34" height="42" viewBox="0 0 34 42" fill="none" xmlns="http://www.w3.org/2000/svg">
<path d="M30.0246 0.5H4.37496C2.51198 0.502194 1.00219 2.01198 1 3.87496V37.6245C1.00219 39.4875 2.51198 40.9973 4.37496 40.9995H30.0246C31.8876 40.9973 33.3974 39.4875 33.3996 37.6245V3.87496C33.3974 2.01198 31.8876 0.502194 30.0246 0.5ZM10.4499 1.84998H23.9497V3.19997H10.4499V1.84998ZM29.3497 4.54995V11.2999H5.04995V4.54995H29.3497ZM32.0496 37.6245C32.0496 38.7429 31.143 39.6495 30.0246 39.6495H4.37496C3.25658 39.6495 2.34998 38.7429 2.34998 37.6245V3.87496C2.34998 2.75658 3.25658 1.84998 4.37496 1.84998H9.0999V3.19997H4.37496C4.00219 3.19997 3.69997 3.50219 3.69997 3.87496V11.9749C3.69997 12.3476 4.00219 12.6499 4.37496 12.6499H30.0246C30.3974 12.6499 30.6996 12.3476 30.6996 11.9749V3.87496C30.6996 3.50219 30.3974 3.19997 30.0246 3.19997H25.2997V1.84998H30.0246C31.143 1.84998 32.0496 2.75658 32.0496 3.87496V37.6245Z" fill="#FD5F43" stroke="#FD5F43" stroke-width="0.5"/>
<path d="M17.2011 14C15.3372 14 13.8262 15.5111 13.8262 17.375C13.8284 19.2379 15.3382 20.7477 17.2011 20.7499C19.065 20.7499 20.5761 19.2389 20.5761 17.375C20.5761 15.5111 19.065 14 17.2011 14ZM17.2011 19.3999C16.0828 19.3999 15.1762 18.4933 15.1762 17.375C15.1762 16.2566 16.0828 15.35 17.2011 15.35C18.3195 15.35 19.2261 16.2566 19.2261 17.375C19.2261 18.4933 18.3195 19.3999 17.2011 19.3999Z" fill="#FD5F43" stroke="#FD5F43" stroke-width="0.5"/>
<path d="M25.9765 14C24.1126 14 22.6016 15.5111 22.6016 17.375C22.6038 19.2379 24.1135 20.7477 25.9765 20.7499C27.8404 20.7499 29.3515 19.2389 29.3515 17.375C29.3515 15.5111 27.8404 14 25.9765 14ZM25.9765 19.3999C24.8581 19.3999 23.9515 18.4933 23.9515 17.375C23.9515 16.2566 24.8581 15.35 25.9765 15.35C27.0949 15.35 28.0015 16.2566 28.0015 17.375C28.0015 18.4933 27.0949 19.3999 25.9765 19.3999Z" fill="#FD5F43" stroke="#FD5F43" stroke-width="0.5"/>
<path d="M8.42379 14C6.55988 14 5.04883 15.5111 5.04883 17.375C5.05102 19.2379 6.56081 20.7477 8.42379 20.7499C10.2877 20.7499 11.7987 19.2389 11.7987 17.375C11.7987 15.5111 10.2877 14 8.42379 14ZM8.42379 19.3999C7.30541 19.3999 6.39881 18.4933 6.39881 17.375C6.39881 16.2566 7.30541 15.35 8.42379 15.35C9.54217 15.35 10.4488 16.2566 10.4488 17.375C10.4488 18.4933 9.54217 19.3999 8.42379 19.3999Z" fill="#FD5F43" stroke="#FD5F43" stroke-width="0.5"/>
<path d="M17.2011 22.1006C15.3372 22.1006 13.8262 23.6116 13.8262 25.4755C13.8284 27.3385 15.3382 28.8483 17.2011 28.8505C19.065 28.8505 20.5761 27.3394 20.5761 25.4755C20.5761 23.6116 19.065 22.1006 17.2011 22.1006ZM17.2011 27.5005C16.0828 27.5005 15.1762 26.5939 15.1762 25.4755C15.1762 24.3572 16.0828 23.4506 17.2011 23.4506C18.3195 23.4506 19.2261 24.3572 19.2261 25.4755C19.2261 26.5939 18.3195 27.5005 17.2011 27.5005Z" fill="#FD5F43" stroke="#FD5F43" stroke-width="0.5"/>
<path d="M25.9765 22.1006C24.1126 22.1006 22.6016 23.6116 22.6016 25.4755C22.6038 27.3385 24.1135 28.8483 25.9765 28.8505C27.8404 28.8505 29.3515 27.3394 29.3515 25.4755C29.3515 23.6116 27.8404 22.1006 25.9765 22.1006ZM25.9765 27.5005C24.8581 27.5005 23.9515 26.5939 23.9515 25.4755C23.9515 24.3572 24.8581 23.4506 25.9765 23.4506C27.0949 23.4506 28.0015 24.3572 28.0015 25.4755C28.0015 26.5939 27.0949 27.5005 25.9765 27.5005Z" fill="#FD5F43" stroke="#FD5F43" stroke-width="0.5"/>
<path d="M8.42379 22.1006C6.55988 22.1006 5.04883 23.6116 5.04883 25.4755C5.05102 27.3385 6.56081 28.8483 8.42379 28.8505C10.2877 28.8505 11.7987 27.3394 11.7987 25.4755C11.7987 23.6116 10.2877 22.1006 8.42379 22.1006ZM8.42379 27.5005C7.30541 27.5005 6.39881 26.5939 6.39881 25.4755C6.39881 24.3572 7.30541 23.4506 8.42379 23.4506C9.54217 23.4506 10.4488 24.3572 10.4488 25.4755C10.4488 26.5939 9.54217 27.5005 8.42379 27.5005Z" fill="#FD5F43" stroke="#FD5F43" stroke-width="0.5"/>
<path d="M17.2011 30.2002C15.3372 30.2002 13.8262 31.7112 13.8262 33.5752C13.8284 35.4381 15.3382 36.9479 17.2011 36.9501C19.065 36.9501 20.5761 35.4391 20.5761 33.5752C20.5761 31.7112 19.065 30.2002 17.2011 30.2002ZM17.2011 35.6001C16.0828 35.6001 15.1762 34.6935 15.1762 33.5752C15.1762 32.4568 16.0828 31.5502 17.2011 31.5502C18.3195 31.5502 19.2261 32.4568 19.2261 33.5752C19.2261 34.6935 18.3195 35.6001 17.2011 35.6001Z" fill="#FD5F43" stroke="#FD5F43" stroke-width="0.5"/>
<path d="M8.42379 30.2002C6.55988 30.2002 5.04883 31.7112 5.04883 33.5752C5.05102 35.4381 6.56081 36.9479 8.42379 36.9501C10.2877 36.9501 11.7987 35.4391 11.7987 33.5752C11.7987 31.7112 10.2877 30.2002 8.42379 30.2002ZM8.42379 35.6001C7.30541 35.6001 6.39881 34.6935 6.39881 33.5752C6.39881 32.4568 7.30541 31.5502 8.42379 31.5502C9.54217 31.5502 10.4488 32.4568 10.4488 33.5752C10.4488 34.6935 9.54217 35.6001 8.42379 35.6001Z" fill="#FD5F43" stroke="#FD5F43" stroke-width="0.5"/>
<path d="M28.6765 30.2002H23.2766C22.9038 30.2002 22.6016 30.5024 22.6016 30.8752V37.6251C22.6016 37.9979 22.9038 38.3001 23.2766 38.3001H28.6765C29.0493 38.3001 29.3515 37.9979 29.3515 37.6251V30.8752C29.3515 30.5024 29.0493 30.2002 28.6765 30.2002ZM28.0015 36.9501H23.9515V31.5502H28.0015V36.9501Z" fill="#FD5F43" stroke="#FD5F43" stroke-width="0.5"/>
<path d="M25.2992 8.60059H23.9492V9.95057H25.2992V8.60059Z" fill="#FD5F43" stroke="#FD5F43" stroke-width="0.5"/>
<path d="M28.0004 8.60059H26.6504V9.95057H28.0004V8.60059Z" fill="#FD5F43" stroke="#FD5F43" stroke-width="0.5"/>
<path d="M9.10036 7.25037V5.90039H7.75037V7.25037H6.40039V8.60036H7.75037V9.95034H9.10036V8.60036H10.4503V7.25037H9.10036Z" fill="#FD5F43" stroke="#FD5F43" stroke-width="0.5"/>
<path d="M26.6488 34.9248H25.9738C25.6011 34.9248 25.2988 35.227 25.2988 35.5998C25.2988 35.9726 25.6011 36.2748 25.9738 36.2748H26.6488C27.0216 36.2748 27.3238 35.9726 27.3238 35.5998C27.3238 35.227 27.0216 34.9248 26.6488 34.9248Z" fill="#FD5F43" stroke="#FD5F43" stroke-width="0.5"/>
</svg>
