<svg width="36" height="36" viewBox="0 0 36 36" fill="none" xmlns="http://www.w3.org/2000/svg">
<path d="M8.4375 25.6289C7.66209 25.6289 7.03125 26.2597 7.03125 27.0352C7.03125 27.8106 7.66209 28.4414 8.4375 28.4414C9.2129 28.4414 9.84375 27.8106 9.84375 27.0352C9.84375 26.2597 9.2129 25.6289 8.4375 25.6289Z" fill="#1B975B"/>
<path d="M31.2474 14.5898H24.0463L25.0357 6.67448C25.1412 5.83052 24.8789 4.98079 24.316 4.3432C23.7531 3.70561 22.9424 3.33984 22.0919 3.33984C20.8859 3.33984 19.8095 4.06019 19.3495 5.17507L14.9665 15.7987L14.9519 15.8361C14.653 16.6467 13.8717 17.1914 13.0078 17.1914H0V19.3008H11.9531V30.5507H0V32.6601H14.0625V30.577C14.6035 30.6546 15.103 30.9031 15.4964 31.2965C16.3757 32.1759 17.5448 32.6602 18.7884 32.6602H29.9818C31.3848 32.6602 32.6352 31.7185 33.0228 30.3702L35.8151 20.6553C35.9378 20.2283 36 19.7867 36 19.3425C35.9999 16.7218 33.8679 14.5898 31.2474 14.5898ZM33.7877 20.0726L30.9954 29.7874C30.8662 30.2369 30.4494 30.5507 29.9818 30.5507H18.7884C18.1082 30.5507 17.4688 30.2859 16.9879 29.805C16.1956 29.0126 15.1678 28.5425 14.0625 28.4568V19.1636C15.3558 18.8235 16.4416 17.8726 16.9236 16.5858L21.2994 5.97944C21.4323 5.65727 21.7434 5.44914 22.0919 5.44914C22.4284 5.44914 22.639 5.63076 22.7347 5.73911C22.8303 5.84746 22.9843 6.07893 22.9426 6.41278L21.6568 16.6992H31.2474C32.7048 16.6992 33.8906 17.8849 33.8906 19.3424C33.8906 19.5894 33.856 19.8351 33.7877 20.0726Z" fill="#1B975B"/>
</svg>
