<svg width="48" height="48" viewBox="0 0 48 48" fill="none" xmlns="http://www.w3.org/2000/svg">
<path d="M6.36641 39.333C5.91151 39.333 5.46683 39.4679 5.0886 39.7206C4.71036 39.9734 4.41557 40.3326 4.24148 40.7528C4.0674 41.1731 4.02186 41.6356 4.1106 42.0817C4.19935 42.5279 4.4184 42.9377 4.74006 43.2594C5.06172 43.581 5.47154 43.8001 5.9177 43.8888C6.36386 43.9776 6.82631 43.932 7.24658 43.7579C7.66685 43.5839 8.02606 43.2891 8.27879 42.9108C8.53151 42.5326 8.66641 42.0879 8.66641 41.633C8.66572 41.0232 8.42317 40.4386 7.99199 40.0074C7.56081 39.5762 6.97619 39.3337 6.36641 39.333ZM6.36641 42.3997C6.21477 42.3997 6.06655 42.3547 5.94047 42.2705C5.81439 42.1862 5.71613 42.0665 5.6581 41.9264C5.60007 41.7863 5.58489 41.6322 5.61447 41.4834C5.64405 41.3347 5.71707 41.1981 5.82429 41.0909C5.93151 40.9837 6.06812 40.9107 6.21684 40.8811C6.36556 40.8515 6.51971 40.8667 6.6598 40.9247C6.79989 40.9827 6.91962 41.081 7.00387 41.2071C7.08811 41.3332 7.13307 41.4814 7.13307 41.633C7.13284 41.8363 7.05199 42.0311 6.90827 42.1749C6.76454 42.3186 6.56967 42.3994 6.36641 42.3997Z" fill="#FD5F43" stroke="#FD5F43" stroke-width="0.5"/>
<path d="M11.0652 15.1091C11.1083 15.2069 11.1715 15.2947 11.2505 15.3666C11.3296 15.4386 11.4228 15.4933 11.5242 15.5271L13.8242 16.2938C13.9675 16.3415 14.1217 16.3459 14.2675 16.3063C14.4133 16.2667 14.5441 16.1849 14.6436 16.0712L18.6667 11.4735V13.0247L13.4386 20.4934C13.3484 20.6223 13.3 20.7758 13.3 20.9331V23.2331H14.8333V21.1747L19.8325 14.0331H23.4629L25.5667 21.0456V23.9997H27.1V20.9331C27.1 20.8585 27.0891 20.7842 27.0677 20.7128L24.8 13.1539V10.1997V10.1975C24.8 10.1925 24.7999 10.1874 24.7998 10.1824L24.7997 10.1788C24.7996 10.1736 24.7994 10.1683 24.7991 10.1631L24.7988 10.1562L24.7982 10.1473C24.7978 10.1413 24.7973 10.1353 24.7968 10.1294L24.7966 10.1277C24.7862 10.0152 24.7508 9.90636 24.6931 9.80915L21.6323 4.45273C21.5653 4.33537 21.4684 4.23783 21.3515 4.16998C21.2346 4.10214 21.1018 4.0664 20.9667 4.06641H11.7667C11.5633 4.06641 11.3683 4.14718 11.2246 4.29096C11.0808 4.43474 11 4.62974 11 4.83307V7.13307C11 7.29399 11.0506 7.45082 11.1447 7.58137C11.2388 7.71191 11.3716 7.80955 11.5242 7.86045L12.647 8.23469L12.5882 8.38173C12.5475 8.48333 12.5291 8.59245 12.5341 8.70176C12.5392 8.81106 12.5676 8.91803 12.6174 9.01545C12.6672 9.11288 12.7373 9.19851 12.823 9.26659C12.9086 9.33467 13.0079 9.38363 13.114 9.41016L13.3022 9.45719L11.0661 14.4884C11.0227 14.5861 11.0002 14.6918 11 14.7987C10.9998 14.9056 11.022 15.0113 11.0652 15.1091ZM20.2 12.4997V10.9664H23.2667V12.4997H20.2ZM15.3524 5.59974H20.5218L22.7122 9.43307H19.5277L14.338 8.13567L15.3524 5.59974ZM12.5333 6.58044V5.59974H13.701L13.2175 6.80847L12.5333 6.58044ZM14.8123 9.8347L17.4797 10.5016L13.8254 14.6779L12.8102 14.3395L14.8123 9.8347Z" fill="#FD5F43" stroke="#FD5F43" stroke-width="0.5"/>
<path d="M46.8712 38.9081L42.5557 32.4348C42.3984 32.1983 42.185 32.0044 41.9346 31.8704C41.6842 31.7363 41.4045 31.6664 41.1204 31.6667H40.1V7.9H38.5667V31.6667H37.0333V2.725C37.0334 2.67418 37.0536 2.62547 37.0895 2.58954C37.1255 2.5536 37.1742 2.53339 37.225 2.53333H38.375C38.4258 2.53339 38.4745 2.5536 38.5105 2.58954C38.5464 2.62547 38.5666 2.67418 38.5667 2.725V6.36667H40.1V2.725C40.0995 2.26766 39.9176 1.8292 39.5942 1.50582C39.2708 1.18243 38.8323 1.00052 38.375 1H37.225C36.7677 1.00052 36.3292 1.18243 36.0058 1.50582C35.6824 1.8292 35.5005 2.26766 35.5 2.725V25.5333H27.0667C27.0667 25.33 26.9859 25.135 26.8421 24.9912C26.6983 24.8474 26.5033 24.7667 26.3 24.7667H13.2667C13.0633 24.7667 12.8683 24.8474 12.7246 24.9912C12.5808 25.135 12.5 25.33 12.5 25.5333H1.76667C1.56333 25.5333 1.36833 25.6141 1.22455 25.7579C1.08077 25.9017 1 26.0967 1 26.3V27.45C1.0008 28.1614 1.28376 28.8435 1.78681 29.3465C2.28986 29.8496 2.97191 30.1325 3.68333 30.1333H4.06667V33.2H5.6V30.1333H12.5V39.3333C12.5 39.5367 12.5808 39.7317 12.7246 39.8755C12.8683 40.0192 13.0633 40.1 13.2667 40.1H22.4667V38.5667H14.0333V36.2667H25.5333V38.5667H24V40.1H26.3C26.5033 40.1 26.6983 40.0192 26.8421 39.8755C26.9859 39.7317 27.0667 39.5367 27.0667 39.3333V30.1333H35.5V31.6667H34.4796C34.1955 31.6664 33.9158 31.7363 33.6654 31.8704C33.415 32.0044 33.2016 32.1983 33.0443 32.4348L28.7288 38.9081C28.6448 39.034 28.6 39.182 28.6 39.3333V45.4667H10.1189C10.9273 44.6749 11.4646 43.6479 11.6543 42.5325C11.8439 41.417 11.6761 40.2701 11.1749 39.2557C10.6737 38.2414 9.86462 37.4114 8.86339 36.8843C7.86215 36.3573 6.71995 36.1602 5.6 36.3213V34.7333H4.06667V36.7849C2.96576 37.3071 2.07533 38.1883 1.54181 39.2838C1.00828 40.3792 0.863432 41.6236 1.13108 42.8124C1.39872 44.0011 2.06293 45.0633 3.01446 45.8244C3.96599 46.5854 5.1482 47 6.36667 47C6.49554 47 6.62332 46.9955 6.75 46.9864V47H46.2333C46.4367 47 46.6317 46.9192 46.7754 46.7754C46.9192 46.6317 47 46.4367 47 46.2333V39.3333C47 39.182 46.9552 39.034 46.8712 38.9081ZM25.5333 26.3V31.6667H14.0333V26.3H25.5333ZM3.68333 28.6C3.37844 28.5997 3.08613 28.4784 2.87054 28.2628C2.65494 28.0472 2.53367 27.7549 2.53333 27.45V27.0667H12.5V28.6H3.68333ZM14.0333 34.7333V33.2H25.5333V34.7333H14.0333ZM27.0667 28.6V27.0667H35.5V28.6H27.0667ZM2.53333 41.6333C2.53333 40.8752 2.75815 40.134 3.17937 39.5036C3.60058 38.8733 4.19926 38.3819 4.89971 38.0918C5.60016 37.8017 6.37092 37.7257 7.11451 37.8737C7.85811 38.0216 8.54114 38.3867 9.07724 38.9228C9.61334 39.4589 9.97843 40.1419 10.1263 40.8855C10.2743 41.6291 10.1983 42.3998 9.90821 43.1003C9.61807 43.8007 9.12674 44.3994 8.49635 44.8206C7.86596 45.2418 7.12483 45.4667 6.36667 45.4667C5.35036 45.4655 4.376 45.0613 3.65737 44.3426C2.93873 43.624 2.53449 42.6496 2.53333 41.6333ZM34.3201 33.2853C34.3375 33.2591 34.3613 33.2375 34.3891 33.2226C34.4169 33.2077 34.448 33.2 34.4796 33.2H41.1204C41.152 33.2 41.1831 33.2077 41.2109 33.2226C41.2387 33.2375 41.2625 33.2591 41.2799 33.2853L45.3119 39.3333H30.2881L34.3201 33.2853ZM42.4 45.4667V42.4H40.8667V45.4667H38.5667V42.4H37.0333V45.4667H34.7333V42.4H33.2V45.4667H30.1333V40.8667H45.4667V45.4667H42.4Z" fill="#FD5F43" stroke="#FD5F43" stroke-width="0.5"/>
</svg>
