<svg width="88" height="83" viewBox="0 0 88 83" fill="none" xmlns="http://www.w3.org/2000/svg">
<g>
<path d="M6.2065 71.5226L73.7894 82.9032C77.5104 83.5299 81.0753 81.0437 81.7115 77.3785C81.7115 77.3785 88.3297 9.97434 82.2958 8.95837C82.2958 8.95837 11.3085 2.00928 10.2768 7.95258L0.597298 63.7195C-0.0386429 67.3846 2.48548 70.8959 6.2065 71.5226Z" fill="#E7E6E6"/>
<path d="M10.0369 73.9133L78.2886 80.3501C82.0463 80.7045 85.4155 77.966 85.7751 74.2647C85.7751 74.2647 87.3246 6.56332 81.2309 5.98862C81.2309 5.98862 9.91644 4.21895 9.33298 10.2211L3.85846 66.5395C3.49887 70.2405 6.27917 73.5589 10.0369 73.9133Z" fill="#EDEDED"/>
<path d="M80.4156 71.4989L18.6896 80.3501C14.9319 80.7045 11.5627 77.966 11.2031 74.2647C11.2031 74.2647 9.65357 6.56329 15.7472 5.98859C15.7472 5.98859 76.7957 4.45241 77.3792 10.4545L83.79 61.8604C84.1499 65.5617 84.1734 71.1447 80.4156 71.4989Z" fill="#EDEDED"/>
<path d="M12.0726 75.7225H80.6362C84.4113 75.7225 87.5 72.6802 87.5 68.9621V13.5331C87.5 7.5035 82.4916 2.57031 76.37 2.57031H16.3391C10.2175 2.57031 5.20906 7.5035 5.20906 13.5331V68.9619C5.20906 72.6802 8.29751 75.7225 12.0726 75.7225Z" fill="white"/>
<path d="M5.20906 21.5835H87.5V13.5331C87.5 7.5035 82.4916 2.57031 76.37 2.57031H16.3391C10.2175 2.57031 5.20906 7.5035 5.20906 13.5331V21.5835Z" fill="#FD5F43"/>
<path d="M74.1093 8.10239C75.0299 8.10239 75.7832 7.3604 75.7832 6.45366V2.57031H72.4352V6.45366C72.4355 7.3604 73.1885 8.10239 74.1093 8.10239Z" fill="#FD5F43"/>
<path d="M54.2988 8.10239C55.2194 8.10239 55.9727 7.3604 55.9727 6.45366V2.57031H52.6247V6.45366C52.6247 7.3604 53.378 8.10239 54.2988 8.10239Z" fill="#FD5F43"/>
<path d="M35.7714 8.10239C36.692 8.10239 37.4453 7.3604 37.4453 6.45366V2.57031H34.0973V6.45366C34.0976 7.3604 34.8509 8.10239 35.7714 8.10239Z" fill="#FD5F43"/>
<path d="M17.1132 8.10228C18.0338 8.10228 18.7871 7.36029 18.7871 6.45356C18.7871 6.45356 18.7871 2.85488 18.7871 2.5702C18.7871 2.30946 15.4391 2.60585 15.4391 2.60585V6.45356C15.4391 7.36029 16.1924 8.10228 17.1132 8.10228Z" fill="#FD5F43"/>
<path d="M54.9609 7.54798C55.8815 7.54798 56.6348 6.80599 56.6348 5.89925V1.64873C56.6348 0.74199 55.8815 0 54.9609 0C54.0403 0 53.287 0.74199 53.287 1.64873V5.899C53.2868 6.80599 54.0401 7.54798 54.9609 7.54798Z" fill="#EBEBEB"/>
<path d="M36.3398 7.54798C37.2604 7.54798 38.0137 6.80599 38.0137 5.89925V1.64873C38.0137 0.74199 37.2604 0 36.3398 0C35.4192 0 34.6659 0.74199 34.6659 1.64873V5.899C34.6659 6.80599 35.4192 7.54798 36.3398 7.54798Z" fill="#EBEBEB"/>
<path d="M17.7187 7.54798C18.6393 7.54798 19.3926 6.80599 19.3926 5.89925V1.64873C19.3926 0.74199 18.6393 0 17.7187 0C16.7982 0 16.0448 0.74199 16.0448 1.64873V5.899C16.0448 6.80599 16.7982 7.54798 17.7187 7.54798Z" fill="#EBEBEB"/>
<path opacity="0.2" d="M12.1503 55.3574L31.6152 75.5172C31.6152 75.5172 30.879 71.9679 30.8733 69.7374C30.8697 68.3206 31.1636 67.0849 31.2626 65.0501C31.54 59.3426 28.1848 57.8892 26.6004 57.0441C24.1709 55.7483 20.1867 56.7072 17.7843 56.5534C16.7697 56.4887 12.9075 56.3225 12.1503 55.3574Z" fill="#F8E6CB"/>
<path d="M5.70221 54.0882L31.6152 75.5165C31.6152 75.5165 30.3268 71.4419 30.073 68.83C29.9119 67.171 30.1329 65.6904 30.028 63.2961C29.734 56.5797 25.4911 55.2539 23.4698 54.4419C20.3705 53.1967 15.6291 54.7673 12.6893 54.8569C11.4479 54.8946 6.73031 55.1334 5.70221 54.0882Z" fill="#E7E6E6"/>
<path d="M68.0311 32.2227H79.0078V39.2323H68.0311V32.2227Z" fill="#EBEBEB"/>
<path d="M68.0311 44.6982H79.0078V51.7079H68.0311V44.6982Z" fill="#EBEBEB"/>
<path d="M50.5624 44.6982H61.5391V51.7079H50.5624V44.6982Z" fill="#EBEBEB"/>
<path d="M33.0956 44.6982H44.0723V51.7079H33.0956V44.6982Z" fill="#EBEBEB"/>
<path d="M15.9628 44.6982H26.9395V51.7079H15.9628V44.6982Z" fill="#EBEBEB"/>
<path d="M68.0311 57.1748H79.0078V64.1845H68.0311V57.1748Z" fill="#EBEBEB"/>
<path d="M50.5624 57.1748H61.5391V64.1845H50.5624V57.1748Z" fill="#EBEBEB"/>
<path d="M33.0956 57.1748H44.0723V64.1845H33.0956V57.1748Z" fill="#EBEBEB"/>
<path d="M50.5624 32.2227H61.5391V39.2323H50.5624V32.2227Z" fill="#EBEBEB"/>
<path d="M33.0956 32.2227H44.0723V39.2323H33.0956V32.2227Z" fill="#EBEBEB"/>
<path d="M15.6268 32.2227H26.6035V39.2323H15.6268V32.2227Z" fill="#EBEBEB"/>
<path d="M74.7734 7.54798C75.694 7.54798 76.4473 6.80599 76.4473 5.89925V1.64873C76.4475 0.74199 75.6942 0 74.7734 0C73.8528 0 73.0995 0.74199 73.0995 1.64873V5.899C73.0995 6.80599 73.8528 7.54798 74.7734 7.54798Z" fill="#EBEBEB"/>
<path d="M56.2803 36.9638C56.3214 37.0165 56.3048 37.139 56.1929 37.1212L56.1032 36.918L56.2803 36.9638Z" fill="#FD5F43"/>
<path d="M55.5676 37.4001C55.4989 37.3555 55.4226 37.2965 55.3699 37.2211C55.3174 37.1462 55.2887 37.0568 55.3197 36.957C55.397 37.0482 55.4402 37.0721 55.4852 37.1009C55.5299 37.1297 55.5772 37.1653 55.6571 37.2774C55.7683 37.2919 55.8422 37.1941 55.8179 37.1195C55.8396 37.1447 55.8815 37.1281 55.927 37.1243C55.9725 37.12 56.0213 37.1253 56.0547 37.1887C55.9208 37.3548 55.7473 37.3795 55.5449 37.2633C55.5095 37.3122 55.5545 37.3627 55.5676 37.4001Z" fill="#FD5F43"/>
<path d="M47.0577 42.8282L47.074 42.7598C47.0753 42.7826 47.0691 42.8054 47.0577 42.8282Z" fill="#FD5F43"/>
<path d="M45.3168 48.766C45.3239 48.7183 45.346 48.6991 45.3652 48.6973C45.3494 48.7408 45.335 48.777 45.3168 48.766Z" fill="#FD5F43"/>
<path d="M45.5694 49.8168C45.5616 49.7948 45.5577 49.7758 45.552 49.7559C45.5725 49.7784 45.5845 49.8015 45.5694 49.8168Z" fill="#FD5F43"/>
<path d="M47.0566 42.8271C47.0566 42.8271 47.0468 42.8709 47.0367 42.9145C47.0282 42.9588 47.0194 43.0028 47.0194 43.0028C46.9553 42.9766 47.022 42.9028 47.0566 42.8271Z" fill="#FD5F43"/>
<path d="M54.0098 37.1523C54.0496 37.1536 54.085 37.1658 54.1191 37.1842C54.0866 37.1821 54.0553 37.1814 54.0232 37.1829C54.0188 37.1722 54.0152 37.163 54.0098 37.1523Z" fill="#FD5F43"/>
<path d="M49.0022 40.8515L49.0397 40.8174C49.0671 40.825 49.0971 40.8372 49.1289 40.8525C49.1289 40.8525 49.0971 40.852 49.0653 40.8515C49.0338 40.8515 49.0022 40.8515 49.0022 40.8515Z" fill="#FD5F43"/>
<path d="M50.7148 39.6098C50.6784 39.6416 50.5685 39.5013 50.5103 39.4463C50.5734 39.4929 50.6225 39.5033 50.6657 39.4924C50.6846 39.5204 50.7006 39.5578 50.7148 39.6098Z" fill="#FD5F43"/>
<path d="M53.7015 37.9678C53.7015 37.9678 53.7179 37.9696 53.7345 37.9711C53.7512 37.9732 53.7676 37.9752 53.7676 37.9752C53.7501 37.9719 53.7221 37.9716 53.7015 37.9678Z" fill="#FD5F43"/>
<path d="M47.9767 41.96C47.9949 41.9797 48.0082 42.0004 48.0137 42.0153C47.9965 42.0012 47.9848 41.982 47.9767 41.96Z" fill="#FD5F43"/>
<path d="M57.3749 38.1777C57.3756 38.1904 57.3726 38.198 57.3723 38.2088C57.3608 38.1901 57.3577 38.1775 57.3749 38.1777Z" fill="#FD5F43"/>
<path d="M54.7424 38.9102L54.7775 38.9211C54.7798 38.9547 54.7822 38.9876 54.7809 39.0202L54.7424 38.9102Z" fill="#FD5F43"/>
<path d="M46.079 51.6515C46.0761 51.6484 46.0759 51.6472 46.0735 51.6441C46.0818 51.5923 46.0849 51.6199 46.079 51.6515Z" fill="#FD5F43"/>
<path d="M60.0896 57.6064C60.0105 57.7078 60.1039 57.7371 60.1861 57.7697C60.268 57.8028 60.3396 57.8407 60.2104 57.9657C60.2155 57.9286 60.1292 57.8804 60.07 57.8193C60.0108 57.7582 59.9793 57.6869 60.0896 57.6064Z" fill="#FD5F43"/>
<path d="M53.9551 37.1879C53.9241 37.1924 53.893 37.1988 53.8625 37.2085C53.9029 37.1922 53.9313 37.1858 53.9551 37.1879Z" fill="#FD5F43"/>
<path d="M60.2107 57.9668L60.2109 57.9681L60.183 57.9933C60.1945 57.9823 60.2008 57.976 60.2107 57.9668Z" fill="#FD5F43"/>
<path d="M47.8125 55.5713C47.7823 55.5833 47.7528 55.5838 47.7236 55.5833C47.7391 55.5733 47.7629 55.568 47.8125 55.5713Z" fill="#FD5F43"/>
<path d="M46.0458 52.8223L46.0957 52.8923C46.0694 52.8669 46.0554 52.8435 46.0458 52.8223Z" fill="#FD5F43"/>
<path d="M48.789 56.9434C48.8319 56.9604 48.8593 56.9502 48.8906 57.0057C48.8805 57.0093 48.8723 57.0108 48.8627 57.0113C48.8612 56.979 48.8459 56.953 48.789 56.9434Z" fill="#FD5F43"/>
<path d="M50.2695 57.8527C50.2556 57.8616 50.2401 57.8659 50.2251 57.8728C50.2103 57.8629 50.1928 57.8524 50.1775 57.8428L50.2695 57.8527Z" fill="#FD5F43"/>
<path d="M63.2188 39.3361C63.1606 39.3694 63.1169 39.4127 63.0794 39.4575C63.1502 39.3486 62.8866 39.2149 63.2188 39.3361Z" fill="#FD5F43"/>
<path d="M54.0303 37.2493C54.0087 37.2083 53.9868 37.1903 53.9546 37.1877C53.9775 37.1847 53.9996 37.1834 54.0214 37.1826C54.0334 37.207 54.0404 37.2311 54.0303 37.2493Z" fill="#FD5F43"/>
<path d="M47.9472 58.0654C47.9472 58.0654 48.0175 58.1125 48.0878 58.1597C48.1229 58.1831 48.1576 58.207 48.1852 58.2233C48.2124 58.2401 48.2305 58.2511 48.2305 58.2511C48.1423 58.2106 48.0423 58.1395 47.9472 58.0654Z" fill="#FD5F43"/>
<path d="M70.0783 50.5258L70.1191 50.46C70.1155 50.4884 70.1033 50.5125 70.0783 50.5258Z" fill="#FD5F43"/>
<path d="M49.069 58.8183C49.1538 58.7931 49.2277 58.7916 49.297 58.8018C49.3027 58.8206 49.3117 58.8382 49.3104 58.8606L49.069 58.8183Z" fill="#FD5F43"/>
<path d="M63.0776 39.46C63.0791 39.459 63.0801 39.457 63.0801 39.457C63.0801 39.457 63.0796 39.459 63.0776 39.46Z" fill="#FD5F43"/>
<path d="M66.0309 42.2288C66.0236 42.2183 66.0228 42.2083 66.0111 42.1972C66.0345 42.1952 66.0561 42.1947 66.0762 42.1962C66.0728 42.2175 66.0697 42.2385 66.0655 42.2585C66.0538 42.2485 66.0418 42.238 66.0309 42.2288Z" fill="#FD5F43"/>
<path d="M47.0762 42.7476L47.0731 42.7592C47.0726 42.7476 47.0718 42.7364 47.0656 42.7256C47.0685 42.7367 47.0731 42.7397 47.0762 42.7476Z" fill="#FD5F43"/>
<path d="M70.3195 49.8932L70.2748 49.8835L70.3242 49.8389L70.3195 49.8932Z" fill="#FD5F43"/>
<path d="M48.6823 40.0579C48.6765 40.0422 48.6747 40.022 48.6838 39.9961C48.6903 40.0058 48.6872 40.0299 48.6823 40.0579Z" fill="#FD5F43"/>
<path d="M49.7486 39.19L49.875 39.0293C49.8249 39.1062 49.7835 39.1543 49.7486 39.19Z" fill="#FD5F43"/>
<path d="M50.6034 38.5527C50.631 38.573 50.6461 38.5912 50.6602 38.6081C50.6596 38.6089 50.6591 38.6091 50.6589 38.6101L50.6034 38.5527Z" fill="#FD5F43"/>
<path d="M44.8883 53.1377C44.8922 53.1517 44.8945 53.166 44.8945 53.1795C44.894 53.2831 44.885 53.2159 44.8883 53.1377Z" fill="#FD5F43"/>
<path d="M44.666 48.1585C44.6298 48.2081 44.5941 48.2575 44.5698 48.311C44.5626 48.2224 44.5642 48.1534 44.666 48.1585Z" fill="#FD5F43"/>
<path d="M47.9164 58.0458C47.9167 58.0445 47.9175 58.0445 47.918 58.043C47.9277 58.0516 47.9372 58.0581 47.9473 58.0662L47.9164 58.0458Z" fill="#FD5F43"/>
<path d="M44.562 48.5415C44.5305 48.4518 44.5395 48.378 44.57 48.3115C44.576 48.3844 44.593 48.4702 44.562 48.5415Z" fill="#FD5F43"/>
<path d="M54.9525 36.9565L55.0033 36.9414C55.004 36.9532 55.0087 36.9622 55.0137 36.9688L54.9525 36.9565Z" fill="#FD5F43"/>
<path d="M55.0117 36.9688L55.0723 36.9806C55.0457 36.9847 55.0228 36.987 55.0117 36.9688Z" fill="#FD5F43"/>
<path d="M55.1992 37.0084C55.1992 37.0084 55.1677 37.0011 55.1361 36.9937C55.1204 36.9901 55.1046 36.9863 55.0927 36.9835C55.0808 36.9809 55.0731 36.9794 55.0731 36.9794C55.1142 36.9733 55.1654 36.9621 55.1992 37.0084Z" fill="#FD5F43"/>
<path d="M53.5742 37.3287L53.5409 37.2705C53.5531 37.281 53.5643 37.3 53.5742 37.3287Z" fill="#FD5F43"/>
<path d="M53.154 37.4301C53.2476 37.3871 53.3634 37.2266 53.5141 37.2246L53.541 37.2702C53.4953 37.233 53.4288 37.2929 53.3593 37.3512C53.2895 37.4102 53.2171 37.4675 53.154 37.4301Z" fill="#FD5F43"/>
<path d="M51.8241 38.795C51.8241 38.795 51.8952 38.7477 51.9665 38.7001C52.002 38.6759 52.0384 38.6535 52.0658 38.6367C52.0932 38.6196 52.1113 38.6084 52.1113 38.6084C52.0847 38.6942 52.0526 38.808 52.1992 38.763C52.1232 38.8511 52.087 38.8839 52.0687 38.8885C52.0503 38.8923 52.049 38.8656 52.0451 38.8343C52.0376 38.7711 52.0193 38.6886 51.8241 38.795Z" fill="#FD5F43"/>
<path d="M50.9455 39.367C51.1172 39.3037 50.9944 39.4536 51.0228 39.4819C50.8933 39.4854 50.8605 39.4864 50.9455 39.367Z" fill="#FD5F43"/>
<path d="M46.1072 44.8682L46.2656 44.9107C46.1938 45.028 46.2059 44.889 46.1072 44.8682Z" fill="#FD5F43"/>
<path d="M44.8518 46.014L44.791 45.85L44.9531 45.8223L44.8518 46.014Z" fill="#FD5F43"/>
<path d="M45.8051 47.0916L45.8379 47.0381L45.7425 47.2482L45.8051 47.0916Z" fill="#FD5F43"/>
<path d="M50.0605 57.5842L49.9346 57.7439C49.9016 57.7092 49.9091 57.6382 49.9359 57.5931C49.9494 57.5705 49.968 57.5539 49.9889 57.5506C50.0101 57.547 50.035 57.5552 50.0605 57.5842Z" fill="#FD5F43"/>
<path d="M55.2779 58.5332C55.3351 58.4323 55.4873 58.3633 55.5879 58.455C55.4643 58.4754 55.3428 58.5561 55.2779 58.5332Z" fill="#FD5F43"/>
<path d="M68.366 50.8855L68.2678 50.9591L68.3867 50.7959L68.366 50.8855Z" fill="#FD5F43"/>
</g>
<defs>
</defs>
</svg>
