<svg width="36" height="36" viewBox="0 0 36 36" fill="none" xmlns="http://www.w3.org/2000/svg">
<g clip-path="url(#clip0)">
<path d="M33.3974 3.46973H2.60224C1.40644 3.46973 0.433594 4.44257 0.433594 5.63838V33.8312C0.433594 35.027 1.40644 35.9999 2.60224 35.9999H33.3974C34.5932 35.9999 35.5661 35.027 35.5661 33.8312V5.63845C35.5661 4.44264 34.5932 3.46973 33.3974 3.46973ZM32.9637 33.3975H3.036V6.07213H32.9637V33.3975H32.9637Z" fill="#FD5F43"/>
<path d="M34.2645 12.1445H1.73438V14.7469H34.2645V12.1445Z" fill="#FD5F43"/>
<path d="M9.54144 0C8.82277 0 8.24023 0.582539 8.24023 1.3012V8.24098C8.24023 8.95964 8.82277 9.54218 9.54144 9.54218C10.2601 9.54218 10.8426 8.95964 10.8426 8.24098V1.3012C10.8426 0.582539 10.2601 0 9.54144 0Z" fill="#FD5F43"/>
<path d="M26.893 0C26.1743 0 25.5918 0.582539 25.5918 1.3012V8.24098C25.5918 8.95964 26.1743 9.54218 26.893 9.54218C27.6117 9.54218 28.1942 8.95964 28.1942 8.24098V1.3012C28.1942 0.582539 27.6117 0 26.893 0Z" fill="#FD5F43"/>
<path d="M22.9879 26.0244H13.4457C12.7271 26.0244 12.1445 26.607 12.1445 27.3256C12.1445 28.0443 12.7271 28.6268 13.4457 28.6268H22.9879C23.7066 28.6268 24.2891 28.0443 24.2891 27.3256C24.2891 26.607 23.7066 26.0244 22.9879 26.0244Z" fill="#FD5F43"/>
<path d="M22.9879 19.9521H13.4457C12.7271 19.9521 12.1445 20.5347 12.1445 21.2534C12.1445 21.972 12.7271 22.5546 13.4457 22.5546H22.9879C23.7066 22.5546 24.2891 21.9721 24.2891 21.2534C24.2891 20.5346 23.7066 19.9521 22.9879 19.9521Z" fill="#FD5F43"/>
</g>
<defs>
<clipPath id="clip0">
<rect width="36" height="36" fill="white"/>
</clipPath>
</defs>
</svg>
