<svg width="36" height="36" viewBox="0 0 36 36" fill="none" xmlns="http://www.w3.org/2000/svg">
<path d="M5.625 0V8.56498C3.77009 8.92624 1.88234 9.07692 0 9.01561C1.74016 10.4899 3.63459 11.687 5.625 12.6096V16.875H36V0H5.625ZM33.8906 14.7656H7.73438V2.10938H33.8906V14.7656Z" fill="#1B975B"/>
<path d="M30.375 27.69V19.125H0V36H30.375V31.7345C32.3654 30.8119 34.2598 29.6148 36 28.1405C34.1177 28.2019 32.2299 28.0512 30.375 27.69ZM28.2656 33.8906H2.10938V21.2344H28.2656V33.8906Z" fill="#1B975B"/>
<path d="M20.8125 9.84375C21.5892 9.84375 22.2188 9.21415 22.2188 8.4375C22.2188 7.66085 21.5892 7.03125 20.8125 7.03125C20.0358 7.03125 19.4062 7.66085 19.4062 8.4375C19.4062 9.21415 20.0358 9.84375 20.8125 9.84375Z" fill="#1B975B"/>
<path d="M15.8906 9.84375C16.6673 9.84375 17.2969 9.21415 17.2969 8.4375C17.2969 7.66085 16.6673 7.03125 15.8906 7.03125C15.114 7.03125 14.4844 7.66085 14.4844 8.4375C14.4844 9.21415 15.114 9.84375 15.8906 9.84375Z" fill="#1B975B"/>
<path d="M25.7344 9.84375C26.511 9.84375 27.1406 9.21415 27.1406 8.4375C27.1406 7.66085 26.511 7.03125 25.7344 7.03125C24.9577 7.03125 24.3281 7.66085 24.3281 8.4375C24.3281 9.21415 24.9577 9.84375 25.7344 9.84375Z" fill="#1B975B"/>
<path d="M15.1875 28.9688C15.9642 28.9688 16.5938 28.3392 16.5938 27.5625C16.5938 26.7858 15.9642 26.1562 15.1875 26.1562C14.4108 26.1562 13.7812 26.7858 13.7812 27.5625C13.7812 28.3392 14.4108 28.9688 15.1875 28.9688Z" fill="#1B975B"/>
<path d="M10.2656 28.9688C11.0423 28.9688 11.6719 28.3392 11.6719 27.5625C11.6719 26.7858 11.0423 26.1562 10.2656 26.1562C9.48897 26.1562 8.85938 26.7858 8.85938 27.5625C8.85938 28.3392 9.48897 28.9688 10.2656 28.9688Z" fill="#1B975B"/>
<path d="M20.1094 28.9688C20.886 28.9688 21.5156 28.3392 21.5156 27.5625C21.5156 26.7858 20.886 26.1562 20.1094 26.1562C19.3327 26.1562 18.7031 26.7858 18.7031 27.5625C18.7031 28.3392 19.3327 28.9688 20.1094 28.9688Z" fill="#1B975B"/>
</svg>
