<svg width="36" height="36" viewBox="0 0 36 36" fill="none" xmlns="http://www.w3.org/2000/svg">
<path d="M6.75 31.7812H32.4141V0H6.75C5.00534 0 3.58594 1.4194 3.58594 3.16406V32.8359C3.58594 34.5806 5.00534 36 6.75 36H32.4141V33.8906H6.75C6.16845 33.8906 5.69531 33.4175 5.69531 32.8359C5.69531 32.2544 6.16845 31.7812 6.75 31.7812ZM5.69531 3.16406C5.69531 2.58251 6.16845 2.10938 6.75 2.10938H30.3047V29.6719H6.75C6.38023 29.6719 6.02543 29.7362 5.69531 29.8533V3.16406Z" fill="#1B975B"/>
<path d="M21.3727 15.4557C22.1161 14.6426 22.5703 13.5609 22.5703 12.375V10.2656C22.5703 7.74555 20.5201 5.69531 18 5.69531C15.4799 5.69531 13.4297 7.74555 13.4297 10.2656V12.375C13.4297 13.5609 13.8839 14.6426 14.6272 15.4557C11.0535 16.8187 8.50781 20.2814 8.50781 24.3281V25.3828H27.4922V24.3281C27.4922 20.2814 24.9465 16.8187 21.3727 15.4557ZM15.5391 10.2656C15.5391 8.90866 16.643 7.80469 18 7.80469C19.357 7.80469 20.4609 8.90866 20.4609 10.2656V12.375C20.4609 13.732 19.357 14.8359 18 14.8359C16.643 14.8359 15.5391 13.732 15.5391 12.375V10.2656ZM10.6923 23.2734C11.2056 19.7004 14.2871 16.9453 18 16.9453C21.7129 16.9453 24.7944 19.7004 25.3077 23.2734H10.6923Z" fill="#1B975B"/>
</svg>
