<?xml version="1.0" encoding="UTF-8"?>
<svg width="205px" height="59px" viewBox="0 0 205 59" version="1.1" xmlns="http://www.w3.org/2000/svg" xmlns:xlink="http://www.w3.org/1999/xlink">
    <!-- Generator: Sketch 50 (54983) - http://www.bohemiancoding.com/sketch -->
    <title>Group 11</title>
    <desc>Created with Sketch.</desc>
    <defs></defs>
    <g id="Page-1" stroke="none" stroke-width="1" fill="none" fill-rule="evenodd">
        <g id="202" transform="translate(-33.000000, -175.000000)">
            <g id="Group-11" transform="translate(33.000000, 175.000000)">
                <path d="M32.8063146,21.5005478 L36.36629,15.3573628 L40.4944699,22.7941235 C39.4100429,26.7576235 38.3212175,30.7551123 37.2715786,34.6350397 C35.6001535,30.2508777 34.1078669,25.8727137 32.8063146,21.5005478 Z M16.0856665,34.7322078 C15.2023704,28.8729297 14.4062443,21.7960509 14.6273682,14.4188706 L20.7380661,22.4834254 C20.7352671,22.542606 20.1934535,32.3030046 19.9111506,37.4257244 C18.6415873,36.5192217 17.3656262,35.6227157 16.0856665,34.7322078 Z M8.92972817,19.9050711 C9.82262102,24.1428811 10.7970858,28.1475676 11.8875107,31.8471541 C10.3884264,30.826289 8.88494358,29.811022 7.3758627,28.8037524 C6.06351415,27.9200422 4.74556752,27.0439296 3.42522172,26.1710159 L8.92972817,19.9050711 Z M40.1721808,50 C44.2991611,50 47.8511392,47.420846 49.3010404,43.7948353 L42.4106107,44.4682144 L43.7569476,36.4924305 L49.9440193,41.2100831 C49.9804067,40.868995 50,40.5227086 50,40.1724234 L50,35.6255148 L47.6740001,33.5421982 L48.822805,32.7140698 L50,31.8655481 L50,26.5748834 L46.2448918,28.5678298 L44.9813264,29.2384098 L45.6199068,25.4584496 L50,20.0402268 L50,14.728769 L46.9394528,17.643413 L48.9891477,5.50299502 C48.3261758,4.16143505 47.3653063,2.99181868 46.1945091,2.07891811 C45.1464696,5.8664758 43.9892677,10.0603002 42.7852819,14.4380643 L39.6055757,9.76759623 L44.6382444,1.08364456 C43.2955063,0.392671204 41.7780284,0 40.1721808,0 L37.1464216,0 L35.4697984,3.69318863 L32.9554633,0 L27.8432219,0 L32.9606615,9.22097552 L27.1838488,21.9444022 C26.9959134,18.2999976 26.8087778,14.6551931 26.6392361,11.0107885 L26.1274122,0 L21.7913038,0 L21.2798797,11.0107885 C21.261486,11.399461 21.2414929,11.7881335 21.2230993,12.1772059 L16.5107203,7.44635759 L19.6608367,0 L15.229561,0 L12.9247539,3.8463384 L9.09327191,0 L8.20637701,0 C6.66330782,0 5.21700535,0.43185835 3.98103053,1.18001296 L10.9982166,9.90595085 C10.9218429,9.87436121 10.8442696,9.84397118 10.7682957,9.81198167 C9.50113161,9.2777569 8.27635293,8.69394838 7.0787649,8.07855024 C5.88157674,7.46275222 4.72437482,6.80096928 3.58036835,6.12239186 C2.67667922,5.58296879 1.79898115,5.01355555 0.923282391,4.44174311 C0.335084731,5.57097272 0,6.85095289 0,8.2061084 L0,10.1346758 C0.920883216,11.2459113 1.75419656,12.2871698 2.54752365,13.3752129 C3.1529154,14.2045409 3.74151292,15.0530626 4.30811801,15.9279756 L0,19.0097648 L0,29.3095865 C1.8921491,30.8270887 4.37169614,32.8416279 7.00199131,35.0413065 L0,38.2294607 L0,40.1724234 C0,45.5778505 4.42327839,50 9.82821909,50 L16.020489,50 L3.31206065,40.6054814 L10.6995194,38.1770779 C13.9368057,40.9641638 17.098918,43.8116298 19.4161209,46.1696564 L19.1961965,49.6757064 C19.1877994,49.783671 19.1806019,49.8920354 19.1726046,50 L28.7465112,50 C28.7381141,49.8920354 28.7313164,49.783671 28.7225195,49.6757064 L28.3766384,44.1519182 C28.1283239,39.5806176 27.8732116,35.0093169 27.6268963,30.4380163 L30.2272018,25.9506882 C31.7998608,34.4978847 32.7315404,41.7539047 32.8606959,50 L40.1721808,50 Z" id="Fill-1" fill="#93CD19"></path>
                <path d="M130.776095,1.15211684 L129.659536,1.15211684 C128.775962,1.15211684 128.287417,1.61764304 128.287417,2.42041352 C128.287417,3.13040149 128.775962,3.65482442 129.648249,3.65482442 L130.776095,3.65482442 L130.776095,1.15211684 Z M129.752246,0 L132.148213,0 L132.148213,7.93734274 L130.776095,7.93734274 L130.776095,4.73674926 L130.020704,4.73674926 L127.764206,7.93734274 L126.112344,7.93734274 L128.577642,4.56247949 C127.648116,4.32931299 126.879827,3.51444043 126.879827,2.38572093 C126.879827,1.1634121 127.624737,0 129.752246,0 Z M121.914564,6.72713598 L118.576979,6.72713598 L118.576979,4.42290231 L121.670292,4.42290231 L121.670292,3.24738814 L118.576979,3.24738814 L118.576979,1.21020676 L121.787188,1.21020676 L121.787188,0 L117.204861,0 L117.204861,7.93734274 L121.914564,7.93734274 L121.914564,6.72713598 Z M108.898788,3.89847938 L109.957302,3.89847938 C111.212524,3.89847938 111.539027,3.24738814 111.539027,2.52529811 C111.539027,1.75722022 111.096435,1.15211684 109.980681,1.15211684 L108.898788,1.15211684 L108.898788,3.89847938 Z M108.898788,7.93734274 L107.526669,7.93734274 L107.526669,0 L109.968589,0 C111.666404,0 112.934525,0.791475222 112.934525,2.50190078 C112.934525,4.07355596 111.980814,5.03930095 109.899257,5.03930095 L108.898788,5.03930095 L108.898788,7.93734274 Z M102.436449,6.72713598 L99.0980574,6.72713598 L99.0980574,4.42290231 L102.192176,4.42290231 L102.192176,3.24738814 L99.0980574,3.24738814 L99.0980574,1.21020676 L102.308266,1.21020676 L102.308266,0 L97.725939,0 L97.725939,7.93734274 L102.436449,7.93734274 L102.436449,6.72713598 Z M87.936495,5.98164862 L88.3089502,1.21020676 L91.1112319,1.21020676 L91.1112319,7.93734274 L92.4486846,7.93734274 L92.4486846,0 L87.0642083,0 L86.5990424,5.98164862 C86.5409974,6.64564873 86.3201041,6.83202057 85.9008905,6.83202057 C85.7388483,6.83202057 85.5292415,6.79732797 85.4478173,6.76182857 L85.4478173,7.91394541 C85.598573,7.95993327 85.8436517,8.01883 86.1104973,8.01883 C87.2851016,8.01883 87.8204051,7.43712395 87.936495,5.98164862 Z M77.3803739,4.94651843 L79.8222932,4.94651843 L79.0894755,2.90933705 C78.9266272,2.46720818 78.7637788,1.95488732 78.6476889,1.53615578 L78.5896439,1.53615578 C78.4614613,1.96698939 78.2873264,2.49060551 78.1244781,2.92063232 L77.3803739,4.94651843 Z M76.2984803,7.93734274 L74.9029827,7.93734274 L78.0551466,0 L79.3103689,0 L82.3222574,7.93734274 L80.8920941,7.93734274 L80.1826556,5.99294388 L77.0200114,5.99294388 L76.2984803,7.93734274 Z M68.3487392,1.21020676 L71.7097037,1.21020676 L71.7097037,0 L67,0 L67,7.93734274 L68.3487392,7.93734274 L68.3487392,1.21020676 Z M204.025611,47.1254513 L192.363411,32.6433104 L194.975434,29.0554507 C195.528474,28.1582841 195.96623,27.5088065 196.320949,27.0594164 C197.000559,26.1348184 198.491185,24.9827016 200.455846,24.7721256 C201.73606,24.630128 201.842476,23.8999699 201.842476,23.1641642 L201.842476,19.3665354 C201.842476,18.6275025 201.330551,17.8311864 200.200287,17.8311864 C195.155213,17.9102533 192.995456,19.112392 189.70866,23.6627694 C189.419242,24.0290586 188.667076,25.1585849 187.407016,27.1142791 C187.354615,27.1973799 187.275609,27.3159802 187.17403,27.4692731 C186.933789,27.8283011 186.567783,28.3785417 186.092137,29.1385516 C185.402047,30.2011131 184.947361,30.8562384 184.732111,31.0958593 C184.3524,31.5525107 183.731642,31.9139591 183.072993,32.079354 L183.072993,19.5182146 C183.072993,18.4306422 182.377259,17.7811645 181.210717,17.7811645 L176.80978,17.7811645 C175.816566,17.7811645 175.148243,18.4483919 175.148243,19.4415682 L175.148243,47.972596 C175.148243,49.4401734 176.156774,49.6588174 176.758185,49.6588174 L181.336481,49.6588174 C182.358717,49.6588174 183.072993,48.9238185 183.072993,47.8709386 L183.072993,40.6726288 C183.705038,40.5330516 184.254853,40.3337709 184.737754,40.0707527 C185.289988,39.7940187 185.809974,39.4495132 186.240474,39.0751559 C186.560527,38.7984219 186.949912,38.4337463 187.424752,37.9657997 L195.953331,48.4841101 C196.616817,49.3409364 197.15212,49.6588174 197.930084,49.6588174 L202.8631,49.6588174 C203.752316,49.6588174 204.39726,49.0351575 204.39726,48.1751039 C204.39726,47.8556093 204.288426,47.5345011 204.025611,47.1254513 Z M163.274824,33.7010311 C163.274824,28.397905 159.70264,24.6978996 154.588234,24.6978996 C154.537445,24.6970928 154.485849,24.696286 154.43506,24.696286 C152.230158,24.696286 150.132477,25.5910322 148.503187,27.2264249 C146.761032,28.9747703 145.750889,31.3895362 145.801678,33.6857018 C145.749276,36.0972405 146.802148,38.6072093 148.616053,40.420099 C150.264691,42.066787 152.37527,42.9462039 154.553568,42.8929548 C154.558405,42.892148 154.564049,42.892148 154.569692,42.8929548 C156.87053,42.954272 159.036735,42.0635598 160.63539,40.4628596 C162.349329,38.7484001 163.311102,36.2828055 163.274824,33.7010311 Z M168.86407,25.3046166 C170.278916,27.7508478 170.994804,30.5561071 170.994804,33.6437479 C171.073003,38.0908544 169.337298,42.4290422 166.231086,45.53766 C163.27563,48.4954053 159.351952,50.077549 155.263813,50.0138114 C151.82868,50.0138114 148.59348,48.7366399 146.054819,46.3985204 L146.054819,57.5663084 C146.054819,58.4771907 145.551762,59 144.67222,59 L139.866581,59 C138.956404,59 138.434805,58.4771907 138.434805,57.5663084 L138.434805,19.2148561 C138.434805,18.3039739 138.956404,17.7811645 139.866581,17.7811645 L143.331543,17.7811645 C144.015989,17.7811645 144.898756,18.084523 145.209942,19.5303167 L145.599327,21.7361202 C148.279875,19.0518816 151.770635,17.5278279 155.296866,17.5278279 C158.095117,17.5278279 160.727295,18.2192594 163.119231,19.582759 C165.541802,20.9648151 167.421008,22.8366016 168.86407,25.3046166 Z M124.427427,33.8551307 C124.475798,31.3879225 123.471298,28.9513729 121.67271,27.1513921 C119.979732,25.459523 117.824007,24.5631632 115.623942,24.597049 C115.617492,24.5962422 115.611849,24.5962422 115.607012,24.597049 C115.557029,24.5962422 115.507045,24.5954354 115.456256,24.5954354 C113.362607,24.5954354 111.262508,25.4974428 109.673527,27.0852341 C107.898318,28.8569768 106.906717,31.320151 106.954282,33.8389946 C106.91881,36.3909173 107.916054,38.8589323 109.691263,40.6258342 C111.321359,42.2475112 113.410171,43.1180533 115.607818,43.0712586 C117.861897,43.1204737 120.033746,42.2176594 121.70657,40.5427333 C123.485003,38.7637294 124.476604,36.3263729 124.427427,33.8551307 Z M132.148213,19.2148561 L132.148213,48.2259326 C132.148213,49.1368149 131.645157,49.6588174 130.767227,49.6588174 L126.441265,49.6588174 C125.332767,49.6588174 124.5282,48.8431381 124.5282,47.7192594 L124.5282,46.6445958 C121.834752,48.9552839 118.595521,50.2163193 115.31195,50.2163193 C112.495963,50.2163193 109.82912,49.4982633 107.385588,48.0831282 C104.907391,46.6736407 102.907258,44.7058445 101.443235,42.2378296 C99.9598638,39.7665874 99.2076979,36.9508396 99.2076979,33.8720736 C99.2076979,30.9328848 99.9413217,28.1695794 101.389221,25.6612242 C102.795199,23.1803003 104.760666,21.1705503 107.229189,19.6892572 C109.70658,18.2007029 112.350851,17.4769992 115.31195,17.4769992 C119.399283,17.4769992 122.428101,18.6662291 125.011102,21.3149683 L125.316644,19.1559594 C125.400487,18.5653785 125.637504,17.7811645 126.719397,17.7811645 L130.767227,17.7811645 C131.645157,17.7811645 132.148213,18.3039739 132.148213,19.2148561 Z M94.9833146,19.1640275 L94.9833146,48.2501367 C94.9833146,49.1327809 94.4665532,49.6588174 93.601522,49.6588174 L88.4411637,49.6588174 C87.5753264,49.6588174 87.058565,49.1327809 87.058565,48.2501367 L87.058565,24.9262252 L74.8981456,24.9262252 L74.8981456,48.2501367 C74.8981456,49.1327809 74.3813842,49.6588174 73.5163531,49.6588174 L68.356801,49.6588174 C67.4949945,49.6588174 67,49.1456897 67,48.2501367 L67,19.1640275 C67,18.3628706 67.5707755,17.7811645 68.356801,17.7811645 L93.601522,17.7811645 C94.4141515,17.7811645 94.9833146,18.3499617 94.9833146,19.1640275 Z" id="Fill-1" fill="#FFFFFF"></path>
            </g>
        </g>
    </g>
</svg>