<?xml version="1.0" encoding="utf-8"?>
<!-- Generator: Adobe Illustrator 22.1.0, SVG Export Plug-In . SVG Version: 6.00 Build 0)  -->
<svg version="1.1" id="Слой_1" xmlns="http://www.w3.org/2000/svg" xmlns:xlink="http://www.w3.org/1999/xlink" x="0px" y="0px"
	 viewBox="0 0 478 96" style="enable-background:new 0 0 478 96;" xml:space="preserve">
<g>
	<path class="st0" d="M225.9,35.3c0,0-37.7-5.4-62.2-1.3c-23.4,3.9-38.8,8.5-90.9,39.2c0,0-0.1,0-0.2,0c-0.1-0.1,0.1-0.3,0.1-0.3
		c4.5-3.6,38.5-30.1,51.5-40c13.8-10.5,15.6-11.1,34.7-11c20.5,0.2,44.5,2.2,66.4,12.7C225.7,34.8,225.5,35.1,225.9,35.3z"/>
	<path class="st0" d="M121.5,29.4c0,0-4-2.9-11.4-5.1c-7.4-2.2-12-1.9-15.7-0.1c-6.1,3-26.1,18.5-34.9,25.5
		c-8.4,6.8-29.9,23.4-29.9,23.4s23.9-13.4,40-23.6c16.1-10.1,31.3-15.9,35.7-17.2C109.8,31,115.7,29.8,121.5,29.4z"/>
	<path class="st0" d="M233.2,48.3c-1.9-3.8-6-3.8-9.2-3.7c-3.2,0.1-9.6,1.5-14.8,4c-5.2,2.5-21.2,5.9-31.9,6.6
		c-10.5,0.7-57.3,3.5-71.2,2.9c0,0-0.9,0.4,2.1,1c1.9,0.3,68.8,2.5,90.2,0.5C220.1,57.4,236.6,54.8,233.2,48.3z"/>
	<path class="st0" d="M79.6,25.1c0,0-41.3,11.8-46.8,15.3c-5.5,3.5-6.6,4.8-6.5,5.9c0.1,1-0.2,2.4,8.9,5.3
		c9.1,2.9,14.8,3.9,14.8,3.9S41.2,55.7,31,54s-17.7-2.3-18.6-6.2c-0.9-3.9,9.6-7.6,14.9-9.9c5.4-2.4,8-3.4,16.5-5.8
		C56.2,28.5,79.6,25.1,79.6,25.1z"/>
</g>
<g>
	<g>
		<path class="st1" d="M309.9,65.1c0,11.6-6.9,17.6-20.7,18.1v5.2h-12v-5.2c-13.8-0.5-20.7-6.6-20.7-18.1s6.9-17.6,20.7-18.1v-4.4
			h12v4.4C302.9,47.5,309.9,53.5,309.9,65.1z M277.3,74.2V55.9c-3.2,0.2-5.4,1-6.8,2.4c-1.4,1.4-2.1,3.6-2.1,6.7
			c0,3.1,0.7,5.3,2.1,6.7C271.9,73.2,274.1,74,277.3,74.2z M295.7,71.8c1.4-1.4,2.1-3.6,2.1-6.7c0-3.1-0.7-5.3-2.1-6.7
			c-1.4-1.4-3.7-2.2-6.8-2.4v18.2C292.1,74,294.3,73.2,295.7,71.8z"/>
		<path class="st1" d="M355.4,88h-12V64.4L327.7,88h-10.5V44.7h12v23.6l15.7-23.6h10.5V88z"/>
		<path class="st1" d="M422.9,88h-57.6V44.7h12v33.8h10.8V44.7h12v33.8h10.8V44.7h12V88z"/>
		<path class="st1" d="M466,54.2h-12V88h-12V54.2h-12v-9.5H466V54.2z"/>
	</g>
	<g>
		<path class="st1" d="M269.3,23.5c0,1.8-0.6,3-1.7,3.8c-0.8,0.6-1.9,0.9-3.2,0.9c-1.5,0-2.7-0.3-3.5-1c-0.8-0.6-1.3-1.5-1.5-2.6
			c-0.2-1.1-0.3-3.4-0.3-7c0-3.5,0.1-5.8,0.3-6.9s0.7-2,1.5-2.6c0.8-0.7,2-1,3.5-1c1.4,0,2.6,0.3,3.4,1c1,0.8,1.5,2,1.5,3.7h-1.5
			c0-1.4-0.4-2.4-1.2-3c-0.6-0.4-1.3-0.7-2.3-0.7c-1.1,0-1.9,0.2-2.4,0.7c-0.6,0.5-1,1.3-1.1,2.3c-0.2,1-0.2,3.2-0.2,6.5
			s0.1,5.6,0.2,6.5c0.2,1,0.5,1.7,1.1,2.3c0.6,0.5,1.4,0.7,2.4,0.7c1,0,1.7-0.2,2.3-0.7c0.8-0.6,1.2-1.6,1.2-3H269.3z"/>
		<path class="st1" d="M299.7,8.3h-4.3V28h-1.5V8.3h-4.3v-1h10.1V8.3z"/>
		<path class="st1" d="M330.6,28H329l-1.6-6.2h-6l-1.5,6.2h-1.6l5.6-20.7h1.3L330.6,28z M327.1,20.7l-2.8-11.1l-2.7,11.1H327.1z"/>
		<path class="st1" d="M363.6,31.3h-1.5V28h-10.9v3.3h-1.5v-4.3h1.6c1.4-2.9,2.1-6.3,2.1-10.3V7.3h8.4v19.7h1.8V31.3z M360.4,26.9
			V8.3h-5.5v8.4c0,4-0.7,7.4-2,10.2H360.4z"/>
		<path class="st1" d="M395.8,28h-1.5V10.6L387,28h-1.5V7.3h1.5v17.4l7.4-17.4h1.5V28z"/>
		<path class="st1" d="M428.9,10.7c0.2,1.1,0.3,3.4,0.3,6.9c0,3.5-0.1,5.8-0.3,7c-0.2,1.1-0.7,2-1.5,2.6c-0.8,0.7-2,1-3.5,1
			c-1.5,0-2.7-0.3-3.5-1c-0.8-0.6-1.3-1.5-1.5-2.6c-0.2-1.1-0.3-3.4-0.3-7c0-3.5,0.1-5.8,0.3-6.9c0.2-1.1,0.7-2,1.5-2.6
			c0.8-0.7,2-1,3.5-1c1.5,0,2.7,0.3,3.5,1C428.2,8.7,428.7,9.6,428.9,10.7z M427.6,24.2c0.2-1,0.2-3.2,0.2-6.5s-0.1-5.6-0.2-6.5
			c-0.2-1-0.5-1.7-1.1-2.3c-0.6-0.5-1.4-0.7-2.4-0.7c-1.1,0-1.9,0.2-2.4,0.7c-0.6,0.5-1,1.3-1.1,2.3c-0.2,1-0.2,3.2-0.2,6.5
			s0.1,5.6,0.2,6.5c0.2,1,0.5,1.7,1.1,2.3c0.6,0.5,1.4,0.7,2.4,0.7c1.1,0,1.9-0.2,2.4-0.7C427,25.9,427.4,25.2,427.6,24.2z"/>
		<path class="st1" d="M462,28h-1.5V18h-6.9v10h-1.5V7.3h1.5v9.7h6.9V7.3h1.5V28z"/>
	</g>
</g>
</svg>
