<svg xmlns="http://www.w3.org/2000/svg" viewBox="0 0 217.83 45.79" preserveAspectRatio="xMinYMid meet" fill="#fff">
    <path d="M46.94 7h11.92v25.51h7.45V.9H39.49v31.61h7.45V7zm21.62 25.51C81.88 34.32 82.79 24.2 83 18.06l.23-11h8.9v25.45h7.45V.9H76.15L75.92 16c-.14 5.28-.32 11.33-7.36 10.39v6.14zM113.53.9L101.7 32.51h7.86l2-5.91H123l2 5.91h8L121.08.9zm-.36 20.32l4.15-12.06 4.06 12.06zM138.5 7v25.51h7.5V7h9.53V.9h-26.6V7zm33.14 26.37c10.88 0 16-7.14 16-16.71S182.52 0 171.64 0c-12.46 0-16 9.35-16 16.71s3.52 16.71 16 16.71zm0-6.14c-4.11 0-7.9-2.3-7.9-10.57s3.79-10.57 7.9-10.57c7.59 0 7.95 7.68 7.95 10.57 0 2.66-.36 10.57-7.95 10.57zM190.69.9v31.61h15c5.6 0 12.1-1.26 12.1-8.85 0-5.78-4.29-7.59-6.73-8.08 3.07-1 5.19-2.94 5.19-6.59 0-3.43-1.49-8-9.75-8zm7.45 6.1h6.55c3.3 0 4 1.76 4 3.07s-.68 3.25-3.7 3.25h-6.86V7zm0 12.15h6.77c2.71 0 5.06.59 5.06 3.61s-2.8 3.57-4.11 3.57h-7.72v-7.14zM7.77 25.6l1-2.79 1 2.79zm0-5.26l-3.18 8.52h2.12l.6-1.53h3l.56 1.53H13l-3.2-8.52zm8.96 3.93h-1.57V22h1.57c.45 0 1.44-.05 1.44 1.11 0 .83-.47 1.17-1.44 1.17zm3.6-1.18c0-2.1-1.5-2.75-3.21-2.75h-4v8.51h2v-2.93h1.49l1.43 2.93h2.2l-1.64-3.13a2.46 2.46 0 0 0 1.74-2.63z"/><path d="M0 29.78h3.71V3.84h25.94v25.94H3.71L0 33.49h33.35V.14H0v29.64zM4.09 44l-1.65-4.74V44H.86v-6.63H3l1.61 4.53 1.57-4.53h2.19V44H6.82v-4.74L5.14 44zm8.56-1.38h1.45q-.43 1.56-2.48 1.56a3.38 3.38 0 0 1-1.08-.18 2.15 2.15 0 0 1-.81-.48 2.06 2.06 0 0 1-.51-.81A3.27 3.27 0 0 1 9 41.56a2.76 2.76 0 0 1 .32-1.34 2.19 2.19 0 0 1 .92-.9 3 3 0 0 1 1.48-.32 2.08 2.08 0 0 1 1.92.83 3.65 3.65 0 0 1 .54 1.83v.26h-3.65a1.52 1.52 0 0 0 .29.88 1 1 0 0 0 .86.38 1.17 1.17 0 0 0 .62-.16.75.75 0 0 0 .35-.44zm-2.12-1.46h2.18a1.14 1.14 0 0 0-.33-.93 1.12 1.12 0 0 0-.68-.23 1 1 0 0 0-.87.36 1.66 1.66 0 0 0-.31.8zM17.1 44v-2.1L15.7 44H14l2-2.55-1.82-2.27h1.57l1.34 1.95v-1.95h1.43v1.95l1.34-1.95h1.57l-1.82 2.27L21.58 44h-1.66l-1.37-2.1V44zm4-1h.63a5.19 5.19 0 0 0 .74-2.94v-.88h4.1V43h.79l-.08 2.2H26V44h-3.64v1.2h-1.22l-.08-2.2zm4-2.86h-1.35v1.25a4.31 4.31 0 0 1-.16.77 4.49 4.49 0 0 1-.36.84h1.87v-2.86zm2.79 5.56v-1a1.42 1.42 0 0 0 .46.07.57.57 0 0 0 .45-.17 1.33 1.33 0 0 0 .24-.49l.07-.24L27 39.18h1.72l1.11 3.12.86-3.12h1.52l-1.67 5a5.73 5.73 0 0 1-.33.83 1.41 1.41 0 0 1-.48.53 1.56 1.56 0 0 1-.87.22 5.14 5.14 0 0 1-1-.09zm5.94-3.76v2H32.4v-4.76h1.43V41h1.72v-1.8H37V44h-1.45v-2zm5.38-1.22h-1.37a1.74 1.74 0 0 1 .53-1.22 2.4 2.4 0 0 1 1.72-.5 2.87 2.87 0 0 1 1.43.29 1.34 1.34 0 0 1 .63.67 2.42 2.42 0 0 1 .14.83v2.18a3.2 3.2 0 0 0 0 .65.31.31 0 0 0 .24.25V44H41l-.12-.47a1.93 1.93 0 0 1-1.6.65 1.65 1.65 0 0 1-1.28-.46 1.44 1.44 0 0 1-.36-1 1.18 1.18 0 0 1 .52-1.08 3.86 3.86 0 0 1 1.57-.46l.77-.1a.56.56 0 0 0 .29-.12.4.4 0 0 0 .1-.28v-.13a.76.76 0 0 0-.14-.42q-.15-.22-.63-.22a1.29 1.29 0 0 0-.59.14.63.63 0 0 0-.28.62zM40.86 42v-.3l-.32.13-.24.06-.39.06c-.56.09-.84.32-.84.69a.46.46 0 0 0 .23.42 1 1 0 0 0 .51.13 1.16 1.16 0 0 0 .43-.1 1 1 0 0 0 .43-.37 1.25 1.25 0 0 0 .19-.72zM43 39.18h1.35v.57a2.08 2.08 0 0 1 3-.22 2.41 2.41 0 0 1 .61 1.1 4.55 4.55 0 0 1 .12 1 3.07 3.07 0 0 1-.25 1.37 2 2 0 0 1-.79.88 2.16 2.16 0 0 1-1.12.3 2 2 0 0 1-.55-.07 1.73 1.73 0 0 1-.5-.22 1.57 1.57 0 0 1-.4-.37v2.18H43v-6.52zm1.37 2.38a2.18 2.18 0 0 0 .28 1.17.93.93 0 0 0 .84.44.86.86 0 0 0 .91-.55 3.08 3.08 0 0 0 .2-1.07 1.85 1.85 0 0 0-.33-1.22 1 1 0 0 0-.78-.38 1.09 1.09 0 0 0-.76.34 1.73 1.73 0 0 0-.36 1.26zM51 44.14a3.34 3.34 0 0 1-1-.14 2.33 2.33 0 0 1-.83-.45 2.08 2.08 0 0 1-.58-.81 3 3 0 0 1-.21-1.18 2.8 2.8 0 0 1 .33-1.42 2.1 2.1 0 0 1 .92-.86A3.13 3.13 0 0 1 51 39a3.24 3.24 0 0 1 1.1.17 2.22 2.22 0 0 1 .83.5 2.17 2.17 0 0 1 .52.81 3.37 3.37 0 0 1 0 2.16 2.15 2.15 0 0 1-.52.82 2.24 2.24 0 0 1-.83.51 3.22 3.22 0 0 1-1.09.17zm0-1q1.13 0 1.13-1.62T51 40q-1.13 0-1.13 1.6T51 43.18zm2.59-.14h.63a5.19 5.19 0 0 0 .78-2.94v-.88h4.1V43h.79l-.07 2.2h-1.27V44h-3.66v1.2h-1.23l-.07-2.2zm4-2.86h-1.31v1.25a4.32 4.32 0 0 1-.16.77 4.53 4.53 0 0 1-.36.84h1.92v-2.86zm3.9 1.8v2h-1.4v-4.76h1.43V41h1.72v-1.8h1.43V44h-1.42v-2zm3.92-2.76h1.43v1.69h.91a3.27 3.27 0 0 1 1.44.3 1.32 1.32 0 0 1 .62 1.32Q69.84 44 68.1 44h-2.66v-4.82zm1.43 2.66V43h.65q.83 0 .83-.55t-.87-.61zm3.48-2.66h1.43V44h-1.39v-4.82zM74 42.29l2-3.11h1.52V44H76v-3.15L74.08 44h-1.53v-4.82H74v3.11zm-.84-4.91h1a.51.51 0 0 0 .27.5A1.2 1.2 0 0 0 75 38a1.09 1.09 0 0 0 .56-.15.51.51 0 0 0 .25-.48h1.05a1.44 1.44 0 0 1-.47.9 2 2 0 0 1-1.39.4 3 3 0 0 1-1.2-.26 1.1 1.1 0 0 1-.66-1zm10.18 0h1.56L87.38 44h-1.65l-.43-1.23h-2.38L82.5 44h-1.64l2.46-6.59zm-.07 4.23H85l-.85-2.51-.86 2.51zm5.93.41v-1h1.66a1 1 0 0 0-.37-.88 1.33 1.33 0 0 0-.69-.22 1.14 1.14 0 0 0-.82.27 1 1 0 0 0-.32.66h-1.43a2 2 0 0 1 .54-1.29 2.51 2.51 0 0 1 1.94-.6 2.33 2.33 0 0 1 2.1.81 3.27 3.27 0 0 1 .53 1.82A2.89 2.89 0 0 1 92 43a2 2 0 0 1-.88.87 3.06 3.06 0 0 1-1.44.31 3 3 0 0 1-1.52-.32 1.87 1.87 0 0 1-.78-.77 2.31 2.31 0 0 1-.24-.89h1.41a1.15 1.15 0 0 0 .31.71 1 1 0 0 0 .82.31q1.06 0 1.12-1.16zm3.66-2.84h1.34v.57a1.88 1.88 0 0 1 1.56-.75 1.86 1.86 0 0 1 1.44.53 2.41 2.41 0 0 1 .61 1.1 4.52 4.52 0 0 1 .12 1 3.07 3.07 0 0 1-.28 1.37 2 2 0 0 1-.79.88 2.16 2.16 0 0 1-1.13.3 2.05 2.05 0 0 1-.55-.07 1.73 1.73 0 0 1-.5-.22 1.57 1.57 0 0 1-.4-.37v2.18h-1.43v-6.52zm1.37 2.38a2.18 2.18 0 0 0 .28 1.17.93.93 0 0 0 .84.44.86.86 0 0 0 .91-.55 3.08 3.08 0 0 0 .2-1.07 1.85 1.85 0 0 0-.33-1.22 1 1 0 0 0-.78-.38 1.09 1.09 0 0 0-.76.34 1.73 1.73 0 0 0-.36 1.26zm6.62 2.58a3.34 3.34 0 0 1-1-.14 2.33 2.33 0 0 1-.83-.45 2.09 2.09 0 0 1-.58-.81 3 3 0 0 1-.21-1.18 2.81 2.81 0 0 1 .33-1.42 2.1 2.1 0 0 1 .92-.86 3.13 3.13 0 0 1 1.36-.28 3.23 3.23 0 0 1 1.09.17 2.22 2.22 0 0 1 .83.5 2.17 2.17 0 0 1 .52.81 3.37 3.37 0 0 1 0 2.16 2.15 2.15 0 0 1-.52.82 2.24 2.24 0 0 1-.83.51 3.22 3.22 0 0 1-1.09.17zm0-1q1.13 0 1.13-1.62T100.84 40q-1.13 0-1.13 1.6t1.13 1.62zm4.57-3V44H104v-4.82h4.7V44h-1.43v-3.86zm6.42 4a3.34 3.34 0 0 1-1-.14 2.33 2.33 0 0 1-.84-.45 2.09 2.09 0 0 1-.58-.81 3 3 0 0 1-.21-1.18 2.81 2.81 0 0 1 .33-1.42 2.1 2.1 0 0 1 .92-.86 3.13 3.13 0 0 1 1.36-.28 3.23 3.23 0 0 1 1.09.17 2.21 2.21 0 0 1 .83.5 2.18 2.18 0 0 1 .52.81 3.37 3.37 0 0 1 0 2.16 2.16 2.16 0 0 1-.52.82 2.24 2.24 0 0 1-.83.51 3.22 3.22 0 0 1-1.09.17zm0-1q1.13 0 1.13-1.62T111.83 40q-1.13 0-1.13 1.6t1.13 1.62zm3.14-4h1.35v.57a2.08 2.08 0 0 1 3-.22 2.41 2.41 0 0 1 .61 1.1 4.55 4.55 0 0 1 .12 1 3.07 3.07 0 0 1-.29 1.38 2 2 0 0 1-.79.88 2.16 2.16 0 0 1-1.12.3 2 2 0 0 1-.55-.07 1.73 1.73 0 0 1-.5-.22 1.57 1.57 0 0 1-.4-.37v2.21H115v-6.52zm1.37 2.38a2.18 2.18 0 0 0 .28 1.17.93.93 0 0 0 .84.44.86.86 0 0 0 .91-.55 3.08 3.08 0 0 0 .2-1.07 1.85 1.85 0 0 0-.33-1.22 1 1 0 0 0-.78-.38 1.09 1.09 0 0 0-.76.34 1.73 1.73 0 0 0-.36 1.26zm5.36-1.42h-1.58v-1h4.59v1h-1.58V44h-1.44v-3.86zm6.73-2.77h3.07a3 3 0 0 1 1.59.35 1.67 1.67 0 0 1 .73.82 2.77 2.77 0 0 1 .17 1q0 2.19-2.52 2.19H130V44h-1.55v-6.63zm1.56 1.32v1.76h1.21a1.41 1.41 0 0 0 .82-.21.8.8 0 0 0 .29-.7c0-.36-.1-.59-.31-.7a1.75 1.75 0 0 0-.8-.16zm6.81 5.49a3.34 3.34 0 0 1-1-.14 2.33 2.33 0 0 1-.83-.45 2.09 2.09 0 0 1-.58-.81 3 3 0 0 1-.21-1.18 2.81 2.81 0 0 1 .33-1.42 2.1 2.1 0 0 1 .92-.86 3.13 3.13 0 0 1 1.36-.28 3.24 3.24 0 0 1 1.1.17 2.21 2.21 0 0 1 .83.5 2.17 2.17 0 0 1 .52.81 3.37 3.37 0 0 1 0 2.16 2.15 2.15 0 0 1-.52.82 2.24 2.24 0 0 1-.83.51 3.22 3.22 0 0 1-1.09.17zm0-1q1.13 0 1.13-1.62T136.79 40q-1.13 0-1.13 1.6t1.13 1.62zm6.41-1h1.41a2.9 2.9 0 0 1-.19.76 1.94 1.94 0 0 1-.69.83 2.42 2.42 0 0 1-1.48.4 2.83 2.83 0 0 1-1.41-.32 2 2 0 0 1-.86-.9 3 3 0 0 1-.29-1.34 3.38 3.38 0 0 1 .21-1.18 2.1 2.1 0 0 1 .8-1 2.81 2.81 0 0 1 1.62-.41 2.74 2.74 0 0 1 1 .17 1.79 1.79 0 0 1 .67.46 1.9 1.9 0 0 1 .36.6 2.66 2.66 0 0 1 .15.65h-1.37a1.08 1.08 0 0 0-.31-.74 1 1 0 0 0-.6-.19.88.88 0 0 0-.85.45 2.21 2.21 0 0 0-.24 1.07q0 1.7 1.07 1.7a.8.8 0 0 0 .7-.31 1.28 1.28 0 0 0 .24-.71zm3-2h-1.58v-1h4.59v1h-1.58V44h-1.43v-3.86zm5.68 4a3.34 3.34 0 0 1-1-.14 2.33 2.33 0 0 1-.83-.45 2.09 2.09 0 0 1-.58-.81 3 3 0 0 1-.21-1.18 2.81 2.81 0 0 1 .33-1.42 2.1 2.1 0 0 1 .92-.86 3.13 3.13 0 0 1 1.36-.28 3.23 3.23 0 0 1 1.09.17 2.22 2.22 0 0 1 .83.5 2.18 2.18 0 0 1 .52.81 3.36 3.36 0 0 1 0 2.16 2.15 2.15 0 0 1-.52.82 2.24 2.24 0 0 1-.81.54 3.22 3.22 0 0 1-1.09.17zm0-1q1.13 0 1.13-1.62T151.92 40q-1.13 0-1.13 1.6t1.13 1.62zm3.14-4h2.85a2.64 2.64 0 0 1 1.1.22.92.92 0 0 1 .48.94 1 1 0 0 1-.29.77 1.21 1.21 0 0 1-.68.35 1.67 1.67 0 0 1 .86.4 1.16 1.16 0 0 1 .28.85 1 1 0 0 1-.47 1 2.69 2.69 0 0 1-1.28.26h-2.84v-4.75zm1.43 1v.91h1.06a1 1 0 0 0 .33-.12.32.32 0 0 0 .13-.3.35.35 0 0 0-.2-.37 1.53 1.53 0 0 0-.55-.08zm0 1.81V43h.9c.53 0 .8-.16.8-.49a.51.51 0 0 0-.18-.43 1.09 1.09 0 0 0-.64-.14zm5.11-1.22h-1.37a1.74 1.74 0 0 1 .54-1.22 2.4 2.4 0 0 1 1.72-.5 2.86 2.86 0 0 1 1.43.29 1.33 1.33 0 0 1 .63.67 2.43 2.43 0 0 1 .14.83v2.18a3.25 3.25 0 0 0 0 .65.31.31 0 0 0 .24.25V44h-1.51l-.12-.47a1.93 1.93 0 0 1-1.6.65 1.65 1.65 0 0 1-1.31-.42 1.44 1.44 0 0 1-.36-1 1.18 1.18 0 0 1 .52-1.08 3.85 3.85 0 0 1 1.57-.46l.77-.1a.56.56 0 0 0 .29-.12.4.4 0 0 0 .1-.28v-.13a.76.76 0 0 0-.14-.42c-.1-.14-.31-.22-.63-.22a1.29 1.29 0 0 0-.59.14.63.63 0 0 0-.28.62zm1.67 1.27v-.3l-.32.13-.24.06-.39.06c-.56.09-.84.32-.84.69a.46.46 0 0 0 .23.42 1 1 0 0 0 .51.13 1.16 1.16 0 0 0 .43-.1 1 1 0 0 0 .43-.37 1.25 1.25 0 0 0 .19-.72zm2.35 0v-1.15h2.72V42zm5.09-.09v2h-1.43v-4.73h1.43V41h1.72v-1.8h1.43V44h-1.43v-2zm5.38-1.22h-1.37a1.74 1.74 0 0 1 .53-1.22A2.4 2.4 0 0 1 177 39a2.87 2.87 0 0 1 1.43.29 1.34 1.34 0 0 1 .57.71 2.42 2.42 0 0 1 .14.83v2.18a3.2 3.2 0 0 0 0 .65.31.31 0 0 0 .24.25V44h-1.51l-.12-.47a1.93 1.93 0 0 1-1.6.65 1.65 1.65 0 0 1-1.31-.42 1.44 1.44 0 0 1-.36-1 1.18 1.18 0 0 1 .52-1.08 3.86 3.86 0 0 1 1.57-.46l.77-.1a.56.56 0 0 0 .29-.12.4.4 0 0 0 .1-.28v-.13a.76.76 0 0 0-.14-.42q-.15-.22-.63-.22a1.29 1.29 0 0 0-.59.14.63.63 0 0 0-.28.62zm1.65 1.31v-.3l-.32.13-.24.06-.39.06c-.56.09-.84.32-.84.69a.46.46 0 0 0 .23.42 1 1 0 0 0 .51.13 1.16 1.16 0 0 0 .43-.1 1 1 0 0 0 .43-.37 1.25 1.25 0 0 0 .19-.72zm2.35 0v-1.15h2.72V42zm9.5.65h.93l-.07 2.77h-1.37V44h-4.45v1.49h-1.37l-.08-2.77h.65a5.39 5.39 0 0 0 .57-1.1 5.74 5.74 0 0 0 .3-1.21 11.68 11.68 0 0 0 .1-1.48v-1.52h4.77v5.31zm-1.55-4h-1.76v1.78a6.82 6.82 0 0 1-.13.83 4.71 4.71 0 0 1-.23.75 4 4 0 0 1-.36.69H188v-4zm5.16 5.49a3.34 3.34 0 0 1-1-.14 2.33 2.33 0 0 1-.83-.45 2.09 2.09 0 0 1-.58-.81 3 3 0 0 1-.21-1.18 2.8 2.8 0 0 1 .33-1.42 2.1 2.1 0 0 1 .92-.86 3.13 3.13 0 0 1 1.36-.28 3.24 3.24 0 0 1 1.1.17 2.22 2.22 0 0 1 .83.5 2.17 2.17 0 0 1 .52.81 3.37 3.37 0 0 1 0 2.16 2.15 2.15 0 0 1-.52.82 2.24 2.24 0 0 1-.83.51 3.22 3.22 0 0 1-1.09.17zm0-1q1.13 0 1.13-1.62T193.18 40q-1.13 0-1.13 1.6t1.13 1.62zm4.57-1.24v2h-1.43v-4.72h1.43V41h1.72v-1.8h1.43V44h-1.43v-2zm4.25 3.8v-1a1.42 1.42 0 0 0 .46.07.57.57 0 0 0 .45-.17 1.33 1.33 0 0 0 .24-.49l.07-.24-2.08-4.72h1.72L204 42.3l.86-3.12h1.52l-1.67 5a5.79 5.79 0 0 1-.33.83 1.4 1.4 0 0 1-.48.53 1.56 1.56 0 0 1-.87.22 5.13 5.13 0 0 1-1-.09z"/>
</svg>