<svg width="12" height="16" viewBox="0 0 12 16" xmlns="http://www.w3.org/2000/svg">
<path d="M11.3878 12.4244L11.0282 11.8672C10.3814 10.8777 9.4888 9.7421 8.318 9.7421C8.10109 9.7421 7.88628 9.78259 7.67364 9.86457L7.04523 10.1146C6.98783 10.1367 6.93207 10.1618 6.87304 10.1884C6.7122 10.261 6.52983 10.3432 6.34224 10.3432C5.87948 10.3432 5.34331 9.78446 4.83272 8.76991C4.33163 7.77413 4.36359 7.2521 4.47862 6.98942C4.60555 6.69961 4.9007 6.5757 5.21778 6.46436C5.26188 6.44884 5.3017 6.43477 5.34043 6.41997L5.97678 6.17137C7.6346 5.5281 7.01786 3.28013 6.81564 2.54312L6.64415 1.90945C6.49755 1.3872 6.10884 0 4.8195 0C4.58082 0 4.32618 0.0515971 4.06292 0.15342C3.89019 0.217069 1.51311 1.11738 0.651921 2.69907C-0.377336 4.58175 -0.187024 7.1064 1.21702 10.2013C2.61057 13.3001 4.41765 15.1954 6.58808 15.8347C6.96038 15.9444 7.38114 16 7.83876 16C7.83876 16 7.83891 16 7.83899 16C9.33683 16 10.8154 15.4087 10.9354 15.3596C11.4518 15.1566 11.7856 14.8481 11.9275 14.4426C12.168 13.755 11.7645 13.0016 11.3878 12.4244ZM10.8177 14.1085C10.7847 14.2028 10.6701 14.2888 10.4772 14.3641C10.474 14.3654 10.4702 14.3669 10.4669 14.3683C10.4535 14.3738 9.11518 14.9177 7.83868 14.9176C7.50099 14.9176 7.19899 14.8791 6.94109 14.803C5.11256 14.2645 3.54899 12.576 2.29287 9.78295C1.02741 6.99332 0.825201 4.77471 1.69269 3.18798C2.36629 1.95087 4.47512 1.16609 4.49581 1.15859C4.50001 1.157 4.50413 1.15549 4.50825 1.1539C4.62834 1.10714 4.73597 1.08246 4.8195 1.08246C5.07655 1.08246 5.31049 1.45237 5.51379 2.1774L5.6845 2.8084C6.05284 4.15064 5.99676 4.99019 5.52522 5.1732L4.89191 5.42072C4.86671 5.43039 4.83724 5.44057 4.80473 5.45204C4.4549 5.57494 3.72694 5.83054 3.39772 6.58191C3.09899 7.26371 3.22265 8.12924 3.77539 9.22801C4.51984 10.7069 5.35941 11.4258 6.34208 11.4258C6.79814 11.4258 7.16423 11.2606 7.38293 11.1621C7.42321 11.1439 7.45922 11.1272 7.49795 11.1124L8.1273 10.8619C8.19224 10.8368 8.25461 10.8246 8.31792 10.8246C8.62085 10.8246 9.16402 11.103 10.029 12.426L10.3884 12.9828C10.8313 13.6614 10.8663 13.9695 10.8177 14.1085Z"/>
</svg>
