<svg width="41" height="34" viewBox="0 0 41 34" xmlns="http://www.w3.org/2000/svg">
<path d="M0.776 22.112C0.776 17.888 1.832 13.856 3.944 10.016C6.152 6.176 8.984 3.008 12.44 0.511993L17.768 4.832C15.464 6.368 13.4 8.43199 11.576 11.024C9.752 13.52 8.744 15.92 8.552 18.224H9.272C9.752 18.128 10.136 18.08 10.424 18.08C12.44 18.08 14.072 18.8 15.32 20.24C16.664 21.584 17.336 23.312 17.336 25.424C17.336 27.536 16.568 29.36 15.032 30.896C13.592 32.336 11.816 33.056 9.704 33.056C7.208 33.056 5.096 32.096 3.368 30.176C1.64 28.16 0.776 25.472 0.776 22.112ZM23.816 22.112C23.816 17.888 24.872 13.856 26.984 10.016C29.192 6.176 32.024 3.008 35.48 0.511993L40.808 4.832C38.504 6.368 36.44 8.43199 34.616 11.024C32.888 13.52 31.88 15.92 31.592 18.224H32.312C32.792 18.128 33.176 18.08 33.464 18.08C35.48 18.08 37.16 18.8 38.504 20.24C39.848 21.584 40.52 23.312 40.52 25.424C40.52 27.536 39.752 29.36 38.216 30.896C36.68 32.336 34.856 33.056 32.744 33.056C30.248 33.056 28.136 32.096 26.408 30.176C24.68 28.16 23.816 25.472 23.816 22.112Z"/>
</svg>
