<svg width="55" height="55" viewBox="0 0 55 55" fill="none" xmlns="http://www.w3.org/2000/svg">
<g>
<path d="M43.2027 3.11405C41.4158 1.10591 38.939 0 36.2283 0C33.2027 0 30.58 1.43064 28.6437 4.13713C28.4985 4.34005 28.3627 4.54297 28.2354 4.74385C28.1082 4.54286 27.9724 4.34005 27.8272 4.13713C25.8908 1.43064 23.2681 0 20.2425 0C17.5318 0 15.0549 1.10591 13.2681 3.11394C11.5726 5.0196 10.6387 7.56721 10.6387 10.2875C10.6387 13.2436 11.7858 15.9713 14.2485 18.8722C16.3972 21.403 19.4794 24.0044 23.0483 27.0168C24.3672 28.13 25.731 29.281 27.1802 30.5371C27.4829 30.7994 27.8591 30.9307 28.2353 30.9307C28.6114 30.9307 28.9876 30.7994 29.2904 30.5371C30.7394 29.2813 32.103 28.1303 33.4218 27.0173C35.7139 25.0826 37.6934 23.4119 39.4111 21.7913C42.7461 18.6448 45.8322 15.0733 45.8322 10.2876C45.8322 7.56721 44.8983 5.01971 43.2027 3.11405ZM37.2001 19.4477C35.5473 21.0072 33.5993 22.6513 31.3438 24.555C30.3403 25.4018 29.3112 26.2704 28.2354 27.1929C27.1594 26.2705 26.13 25.4017 25.1265 24.5547C18.1013 18.6251 13.8607 15.046 13.8607 10.2876C13.8605 6.25957 16.604 3.22211 20.2424 3.22211C22.1862 3.22211 23.8393 4.13713 25.1557 5.94171C26.2362 7.42262 26.6797 8.95789 26.6827 8.96821C26.8761 9.66612 27.5112 10.1493 28.2353 10.1493C28.9594 10.1493 29.5945 9.66612 29.7879 8.96821C29.8038 8.91074 31.4346 3.22211 36.2283 3.22211C39.8666 3.22211 42.6103 6.25968 42.6103 10.2876C42.6103 13.2061 41.0934 15.7743 37.2001 19.4477Z" fill="#FD5F43"/>
<path d="M50.1607 32.4464C48.8243 32.4464 47.5351 33.0075 46.6239 33.9856L41.889 39.0686C41.277 37.1011 39.4393 35.6684 37.273 35.6684H29.8308C28.789 35.6684 27.7842 35.2893 27.002 34.6009C22.795 30.8988 16.4716 30.8662 12.2246 34.4986C11.3488 33.2586 9.90573 32.4465 8.2755 32.4465H1.61686C0.727196 32.4465 0.00585938 33.1677 0.00585938 34.0575V53.3891C0.00585938 54.2788 0.727088 55.0001 1.61686 55.0001H8.2755C9.72226 55.0001 11.0216 54.3602 11.9081 53.3496L12.8621 53.6177C16.1253 54.535 19.4986 55 22.8883 55H37.2729C40.8034 55 44.1759 53.3137 46.2943 50.4893L54.0285 40.1771C54.0286 40.1769 54.0287 40.1767 54.029 40.1765C54.6601 39.3349 54.9936 38.3331 54.9936 37.2792C54.9936 34.6144 52.8255 32.4464 50.1607 32.4464ZM9.8865 50.167C9.8865 51.0553 9.16388 51.778 8.2755 51.778H3.22776V35.6683H8.2755C9.16377 35.6683 9.8865 36.3909 9.8865 37.2793V50.167ZM51.4512 38.2436C51.4512 38.2437 51.4511 38.2437 51.451 38.2438L43.7168 48.5562C42.2037 50.5737 39.7947 51.7781 37.2729 51.7781H22.8886C19.7937 51.7781 16.7137 51.3535 13.7342 50.516L13.1042 50.3389C13.1063 50.2817 13.1086 50.2247 13.1086 50.1671V38.0075L14.2313 37.0195C17.2649 34.3501 21.8401 34.3499 24.8739 37.0195C26.2447 38.2258 28.005 38.8901 29.8311 38.8901H37.2732C38.1615 38.8901 38.8842 39.6128 38.8842 40.5011C38.8842 41.3894 38.1616 42.1121 37.2732 42.1121H25.8237C24.934 42.1121 24.2127 42.8333 24.2127 43.7231C24.2127 44.6129 24.9339 45.3341 25.8237 45.3341H38.3527C39.6891 45.3341 40.9781 44.7733 41.8891 43.7953L48.9814 36.1817C49.2898 35.8506 49.7087 35.6683 50.1607 35.6683C51.049 35.6683 51.7717 36.3909 51.7717 37.2793C51.7717 37.6306 51.6609 37.964 51.4512 38.2436Z" fill="#FD5F43"/>
</g>
<defs>
</defs>
</svg>
