<svg width="66" height="49" viewBox="0 0 66 49" fill="none" xmlns="http://www.w3.org/2000/svg">
<path d="M57.2869 18.8009H44.0848L45.8988 5.57283C46.0921 4.16241 45.6113 2.74235 44.5793 1.67681C43.5473 0.611265 42.0611 0 40.5019 0C38.2909 0 36.3173 1.20385 35.4742 3.06702L27.4385 20.8212L27.4117 20.8837C26.8638 22.2384 25.4315 23.1486 23.8476 23.1486H0V26.6738H21.914V45.4747H0V48.9999H25.7812V45.5187C26.7731 45.6483 27.6889 46.0636 28.4101 46.7211C30.0222 48.1906 32.1655 49 34.4455 49H54.9667C57.5387 49 59.8312 47.4262 60.5417 45.173L65.661 28.9375C65.8859 28.2239 66 27.4859 66 26.7436C65.9999 22.3639 62.0912 18.8009 57.2869 18.8009ZM61.9441 27.9637L56.8249 44.1991C56.5881 44.9502 55.8239 45.4747 54.9666 45.4747H34.4454C33.1985 45.4747 32.0262 45.0321 31.1445 44.2284C29.692 42.9043 27.8076 42.1185 25.7812 41.9754V26.4445C28.1523 25.8762 30.1429 24.2871 31.0265 22.1365L39.049 4.41128C39.2926 3.87287 39.8629 3.52505 40.5019 3.52505C41.1188 3.52505 41.5049 3.82857 41.6802 4.00965C41.8555 4.19072 42.138 4.57755 42.0615 5.13547L39.7041 22.3261H57.2869C59.9588 22.3261 62.1327 24.3077 62.1327 26.7434C62.1327 27.1562 62.0693 27.5667 61.9441 27.9637Z" fill="#FFF7EB"/>
</svg>
